<?xml version="1.0" encoding="utf-8" ?>
<svg xmlns="http://www.w3.org/2000/svg" xmlns:xlink="http://www.w3.org/1999/xlink" width="1024" height="1024">
	<path fill="#29B7B5" d="M-0 -0L1024 0L1024 1024L-0 1024L0 -0Z"/>
	<path fill="#188988" d="M801.054 546.509C801.571 546.637 802.152 546.61 802.603 546.892C803.607 547.519 805.191 550.029 805.95 551C810.005 556.188 813.649 561.979 817.996 566.898L850.095 566.724L891.603 615.761L906.545 633.087C908.739 635.559 912.835 638.95 914.282 641.798L832.227 913.048L628.058 912.529L344.282 912.929L295.018 912.985L286.37 912.996C285.776 912.997 283.832 913.21 283.329 913C282.348 912.59 280.538 910.264 279.671 909.415L266.439 896.646L230.725 863.75L216.98 851.061L215.52 849.336L145.818 782.642L146.014 781.548L146.164 781.143C150.927 779.651 155.643 776.4 159.988 773.933C169.549 768.504 179.842 763.181 188.467 756.35C193.186 754.753 197.516 752.181 201.577 749.332C205.983 747.251 210.128 744.732 214.164 742.01C216.996 740.101 220.088 737.496 223.286 736.314C227.075 734.914 232.034 734.927 236.057 734.918L220.067 757.005L538.643 757.265L619.918 757.144L643.886 757.22C647.047 757.236 650.969 757.715 654.063 757.215L658.857 752.968L666.039 735.239C667.735 732.005 668.82 728.067 670.058 724.621L677.296 704.628L680.656 695.497L694.114 657.937L697.416 648.924L713.208 604.379L750.749 604.36C754.139 603.971 757.743 604.195 761.158 604.177L779.778 604.087C780.463 601.545 781.039 598.838 782.061 596.412L782.467 595.477L784.337 590.741C786.149 586.811 787.338 582.248 788.968 578.168C792.927 568.263 797.791 558.257 800.572 547.969L800.619 547.527L801.054 546.509Z"/>
	<path fill="#5B112E" d="M801.054 546.509C801.571 546.637 802.152 546.61 802.603 546.892C803.607 547.519 805.191 550.029 805.95 551C810.005 556.188 813.649 561.979 817.996 566.898L852.183 610.751L839.136 632.153C835.916 637.382 832.306 642.666 829.816 648.281L784.337 590.741C786.149 586.811 787.338 582.248 788.968 578.168C792.927 568.263 797.791 558.257 800.572 547.969L800.619 547.527L801.054 546.509Z"/>
	<path fill="#5B112E" d="M784.337 590.741L829.816 648.281L822.997 669.076L795.621 746.024L747.7 683.78L757.613 658.19L694.114 657.937L697.416 648.924L713.208 604.379L750.749 604.36C754.139 603.971 757.743 604.195 761.158 604.177L779.778 604.087C780.463 601.545 781.039 598.838 782.061 596.412L782.467 595.477L784.337 590.741Z"/>
	<path fill="#FE9F2A" d="M784.337 590.741L829.816 648.281L822.997 669.076L776.422 610.012C776.414 608.145 776.898 606.225 777.229 604.391L750.749 604.36C754.139 603.971 757.743 604.195 761.158 604.177L779.778 604.087C780.463 601.545 781.039 598.838 782.061 596.412L782.467 595.477L784.337 590.741Z"/>
	<path fill="#F83F4E" d="M713.208 604.379L750.749 604.36L777.229 604.391C776.898 606.225 776.414 608.145 776.422 610.012L761.099 649.052L757.613 658.19L694.114 657.937L697.416 648.924L713.208 604.379Z"/>
	<path fill="#FFBF57" d="M697.416 648.924L761.099 649.052L757.613 658.19L694.114 657.937L697.416 648.924Z"/>
	<path fill="#FB655F" d="M694.114 657.937L757.613 658.19L747.7 683.78L795.621 746.024L768.155 825.01L763.469 838.434C762.528 841.092 761.147 844.134 760.749 846.934L710.978 781.985L709.918 781.802L664.341 760.979C661.1 759.36 657.736 757.446 654.063 757.215L658.857 752.968L666.039 735.239C667.735 732.005 668.82 728.067 670.058 724.621L677.296 704.628L680.656 695.497L694.114 657.937Z"/>
	<path fill="#FFBF57" d="M680.656 695.497L744.378 695.236L740.635 703.421C738.465 703.777 736.602 704.135 734.622 705.117L734.57 705.097L732.544 704.994C728.128 704.425 723.232 704.848 718.762 704.87L693.108 704.937C687.858 704.944 682.522 705.175 677.296 704.628L680.656 695.497Z"/>
	<path fill="#FEE4A7" d="M734.57 705.097L734.622 705.117C736.602 704.135 738.465 703.777 740.635 703.421L734.673 719.119C733.509 722.066 732.477 725.278 730.856 727.992L710.978 781.985L709.918 781.802L664.341 760.979C661.1 759.36 657.736 757.446 654.063 757.215L658.857 752.968L666.039 735.239C667.735 732.005 668.82 728.067 670.058 724.621L677.296 704.628C682.522 705.175 687.858 704.944 693.108 704.937L718.762 704.87C723.232 704.848 728.128 704.425 732.544 704.994L734.57 705.097Z"/>
	<path fill="#5B112E" d="M732.544 704.994L734.57 705.097C726.004 709.31 718.21 714.744 710.278 720.008L676.702 742.128C671.092 745.739 664.896 750.209 658.857 752.968L666.039 735.239C673.373 732.921 680.346 729.38 687.317 726.164L718.772 711.293C723.206 709.146 728.418 707.532 732.544 704.994Z"/>
	<path fill="#FB655F" d="M677.296 704.628C682.522 705.175 687.858 704.944 693.108 704.937L718.762 704.87C723.232 704.848 728.128 704.425 732.544 704.994C728.418 707.532 723.206 709.146 718.772 711.293L687.317 726.164C680.346 729.38 673.373 732.921 666.039 735.239C667.735 732.005 668.82 728.067 670.058 724.621L677.296 704.628Z"/>
	<path fill="#FFBF57" d="M664.341 760.979L705.601 740.557L722.757 731.931C725.488 730.588 727.965 729.019 730.856 727.992L710.978 781.985L709.918 781.802L664.341 760.979Z"/>
	<path fill="#5B112E" d="M201.577 749.332C205.983 747.251 210.128 744.732 214.164 742.01C216.996 740.101 220.088 737.496 223.286 736.314C227.075 734.914 232.034 734.927 236.057 734.918L220.067 757.005L538.643 757.265L619.918 757.144L643.886 757.22C647.047 757.236 650.969 757.715 654.063 757.215C657.736 757.446 661.1 759.36 664.341 760.979L709.918 781.802L710.978 781.985L760.749 846.934L760.079 848.585C758.383 849.276 755.687 848.944 753.843 848.952L740.966 848.983L683.449 849.007L366.922 849.035L266.238 849.054L234.397 849.079C228.155 849.088 221.732 848.812 215.52 849.336L145.818 782.642L146.014 781.548L146.164 781.143C150.927 779.651 155.643 776.4 159.988 773.933C169.549 768.504 179.842 763.181 188.467 756.35C193.186 754.753 197.516 752.181 201.577 749.332Z"/>
	<path fill="#FE9F2A" d="M201.577 749.332C205.983 747.251 210.128 744.732 214.164 742.01C216.996 740.101 220.088 737.496 223.286 736.314C227.075 734.914 232.034 734.927 236.057 734.918L220.067 757.005L538.643 757.265L619.918 757.144L643.886 757.22C647.047 757.236 650.969 757.715 654.063 757.215C657.736 757.446 661.1 759.36 664.341 760.979L709.918 781.802L678.253 781.926L620.537 781.886L437.641 781.662L213.496 781.982L165.904 781.999L152.782 781.98C150.558 781.974 148.148 782.221 146.014 781.548L146.164 781.143C150.927 779.651 155.643 776.4 159.988 773.933C169.549 768.504 179.842 763.181 188.467 756.35C193.186 754.753 197.516 752.181 201.577 749.332Z"/>
	<path fill="#0A6E6E" d="M120.513 372.153C119.934 371.392 119.377 371.117 119.515 370.124C119.828 367.872 121.521 364.971 122.518 362.866C126.888 353.64 133.825 345.249 140.951 338.016C144.575 334.339 148.506 330.967 152.472 327.667C155.518 325.132 160.15 322.733 161.518 319L237.263 118.964L833.22 118.435L833.509 118.891C843.542 134.476 856.798 148.615 868.756 162.75L922.034 226.164L932.804 238.75C933.59 239.711 935.489 241.664 935.901 242.789C935.968 242.973 936.177 312.657 935.698 314.626C935.295 316.283 933.408 318.605 932.447 320.021L922.978 333.5L871.725 403.778L803.086 499.058L768.071 546.139L790.573 546.278C793.808 546.277 797.927 545.804 801.054 546.509L800.619 547.527L800.572 547.969C797.791 558.257 792.927 568.263 788.968 578.168C787.338 582.248 786.149 586.811 784.337 590.741L782.467 595.477L782.061 596.412C781.039 598.838 780.463 601.545 779.778 604.087L761.158 604.177C757.743 604.195 754.139 603.971 750.749 604.36L713.208 604.379L697.416 648.924L694.114 657.937L680.656 695.497L677.296 704.628L670.058 724.621C668.82 728.067 667.735 732.005 666.039 735.239L658.857 752.968L654.063 757.215C650.969 757.715 647.047 757.236 643.886 757.22L619.918 757.144L538.643 757.265L220.067 757.005L236.057 734.918C232.034 734.927 227.075 734.914 223.286 736.314C220.088 737.496 216.996 740.101 214.164 742.01C210.128 744.732 205.983 747.251 201.577 749.332C197.516 752.181 193.186 754.753 188.467 756.35C179.842 763.181 169.549 768.504 159.988 773.933C155.643 776.4 150.927 779.651 146.164 781.143C147.48 778.593 150.175 776.008 151.992 773.706L164.548 757.36L219.323 684.553L267.456 620.264L366.375 488.561C364.386 487.537 359.975 488.137 357.566 488.131L333.315 488.102L232.744 488.032L176.811 428.8L120.513 372.153Z"/>
	<path fill="#8BDBB8" d="M344 697.327L453.463 697.542C453.351 698.654 453.366 699.325 453.832 700.335L454.25 701.206L453.75 701.901L371.368 701.796L350.321 701.832C347.409 701.838 343.569 702.306 340.764 701.639L344 697.327Z"/>
	<path fill="#FB655F" d="M320.844 229.991L326.301 215.375C337.954 215.497 349.815 215.651 361.203 212.803C367.334 211.269 373.727 208.321 379.892 207.451C378.074 212.603 376.308 218.126 373.733 222.945C356.103 227.083 339.069 230.251 320.844 229.991Z"/>
	<path fill="#188988" d="M589.348 614.441C590.154 616.25 589.591 616.824 589.018 618.661L555.454 701.511L539.217 701.761C536.39 701.798 533.252 702.138 530.5 701.472C530.206 700.472 530.421 699.223 530.934 698.27L531.461 697.505C533.184 696.173 534.34 693.96 535.563 692.174L542.858 681.776L589.348 614.441Z"/>
	<path fill="#F83F4E" d="M320.844 229.991C339.069 230.251 356.103 227.083 373.733 222.945L352.53 275.879C348.06 274.792 341.973 275.513 337.333 275.509L304.141 275.527L320.844 229.991Z"/>
	<path fill="#8BDBB8" d="M575.577 714.497L631.841 560.642L644.369 581.219L592.426 724.882L587.899 738.245C587.196 740.561 586.418 745.111 584.926 746.974C584.996 745.323 584.361 743.682 583.968 742.079C582.864 737.574 581.209 733.217 579.866 728.781C578.447 724.093 577.472 718.984 575.577 714.497Z"/>
	<path fill="#FEE4A7" d="M304.141 275.527L337.333 275.509C341.973 275.513 348.06 274.792 352.53 275.879L353.316 277.122C356.357 281.4 360.47 285.473 362.935 290.082C358.656 300.173 354.009 310.09 350.516 320.5C344.923 337.169 341.301 354.494 336.938 371.507L335.632 371.61L299.157 346.25L287.376 338.243C286.579 337.686 284.569 336.637 284.03 335.899C283.743 335.508 283.656 335.003 283.469 334.555C283.317 331.422 285.592 326.97 286.63 323.981L299.044 289.92L304.141 275.527Z"/>
	<path fill="#F83F4E" d="M304.141 275.527L337.333 275.509C341.973 275.513 348.06 274.792 352.53 275.879L353.316 277.122C356.357 281.4 360.47 285.473 362.935 290.082C361.423 290.043 359.909 289.949 358.4 290.075C343.152 302.473 326.698 313.152 309.484 322.62C301.246 327.151 292.495 331.877 283.469 334.555C283.317 331.422 285.592 326.97 286.63 323.981L299.044 289.92L304.141 275.527Z"/>
	<path fill="#FFBF57" d="M304.141 275.527L337.333 275.509C341.973 275.513 348.06 274.792 352.53 275.879L353.316 277.122C356.357 281.4 360.47 285.473 362.935 290.082C361.423 290.043 359.909 289.949 358.4 290.075L299.044 289.92L304.141 275.527Z"/>
	<path fill="#F83F4E" d="M378.638 651.415L452.012 651.447L474.951 651.458C479.003 651.461 483.363 651.15 487.377 651.615L481.281 659.844L462.688 684.818C459.783 688.777 456.246 692.976 453.921 697.277L453.463 697.542L344 697.327L372.492 659.382L378.638 651.415Z"/>
	<path fill="#FFBF57" d="M378.638 651.415L452.012 651.447L474.951 651.458C479.003 651.461 483.363 651.15 487.377 651.615L481.281 659.844L372.492 659.382L378.638 651.415Z"/>
	<path fill="#5B112E" d="M388.713 256.557L540.887 255.971L504.88 304.071L427.466 304.11C426.299 303.203 425.242 301.544 424.299 300.377L418.194 292.848L388.713 256.557Z"/>
	<path fill="#FE9F2A" d="M661.631 133.047L824.591 132.535C820.454 135.874 815.418 138.145 810.807 140.75L781.256 156.951C773.739 160.964 746.771 177.058 740.087 176.412L753.511 158.572L753.944 158.063C750.288 158.643 746.322 158.386 742.613 158.405L722.124 158.459L652.944 158.466L528.326 158.308L490.907 158.197C483.756 158.187 476.523 158.541 469.391 158.049C473.161 155.894 480.161 156.385 484.5 155.914L501.896 153.756L538.466 149.088L589.785 143.391L626.817 138.168C638.469 136.608 650.119 135.535 661.631 133.047Z"/>
	<path fill="#F83F4E" d="M422.607 593.568L496.33 593.533L518.724 593.563C522.583 593.579 526.724 593.315 530.547 593.79L524.313 602.255L487.377 651.615C483.363 651.15 479.003 651.461 474.951 651.458L452.012 651.447L378.638 651.415L416.298 602.013L422.607 593.568Z"/>
	<path fill="#FE9F2A" d="M422.607 593.568L496.33 593.533L518.724 593.563C522.583 593.579 526.724 593.315 530.547 593.79L524.313 602.255L416.298 602.013L422.607 593.568Z"/>
	<path fill="#FE9F2A" d="M651.93 586.786L709.946 586.905L652.61 747.201L593.978 747.482L651.93 586.786Z"/>
	<path fill="#FB655F" d="M378.406 243.46L388.713 256.557L418.194 292.848L424.299 300.377C425.242 301.544 426.299 303.203 427.466 304.11C428.891 305.93 434.681 312.162 434.584 314.001C431.407 318.653 426.638 324.204 424.973 329.593L414.81 353.384C409.908 367.159 403.292 380.632 397.695 394.168C395.838 398.659 385.195 426.45 382.988 427.999L336.938 371.507C341.301 354.494 344.923 337.169 350.516 320.5C354.009 310.09 358.656 300.173 362.935 290.082C360.47 285.473 356.357 281.4 353.316 277.122L367.294 258.537C369.027 255.656 371.23 252.95 373.184 250.209C374.859 247.861 376.265 245.425 378.406 243.46Z"/>
	<path fill="#5B112E" d="M378.406 243.46L388.713 256.557L418.194 292.848L424.299 300.377C425.242 301.544 426.299 303.203 427.466 304.11C428.891 305.93 434.681 312.162 434.584 314.001C431.407 318.653 426.638 324.204 424.973 329.593L414.81 353.384L400.004 335.106L380.092 311.022C374.586 304.165 369.161 296.242 362.935 290.082C360.47 285.473 356.357 281.4 353.316 277.122L367.294 258.537C369.027 255.656 371.23 252.95 373.184 250.209C374.859 247.861 376.265 245.425 378.406 243.46Z"/>
	<path fill="#FE9F2A" d="M378.406 243.46L388.713 256.557L418.194 292.848L424.299 300.377C425.242 301.544 426.299 303.203 427.466 304.11C428.891 305.93 434.681 312.162 434.584 314.001C431.407 318.653 426.638 324.204 424.973 329.593L367.294 258.537C369.027 255.656 371.23 252.95 373.184 250.209C374.859 247.861 376.265 245.425 378.406 243.46Z"/>
	<path fill="#FE9F2A" d="M272.77 167.612L334.461 167.469L276.09 326.53L274.75 326.941L213.441 326.995L272.77 167.612Z"/>
	<path fill="#8BDBB8" d="M188.467 756.35C191.201 752.44 195.38 749.011 198.612 745.448L217.388 722.997L239.003 694L299.253 614.203L453.024 408.592L516.446 324.817L582.276 236.135L392.333 236.026L400.987 215.52L623.063 215.539C614.06 225.812 606.091 237.204 597.777 248.044L543 320.694L380.084 537.055L323.249 612.456L294.594 650.959L263.162 692.593C257.038 700.683 249.576 709.191 244.704 718.046C244.004 719.317 241.609 719.734 240.251 720.342C238.259 721.235 236.451 722.423 234.654 723.649C223.015 731.592 211.912 739.719 201.577 749.332C197.516 752.181 193.186 754.753 188.467 756.35Z"/>
	<path fill="#188988" d="M427.466 304.11L504.88 304.071C502.177 309.046 497.8 313.64 494.404 318.199L462.75 359.659L400.693 442.69L366.375 488.561C364.386 487.537 359.975 488.137 357.566 488.131L333.315 488.102L232.744 488.032L176.811 428.8C183.853 428.282 191.007 428.473 198.071 428.425L235.389 428.343L342.044 428.455L370.575 428.464C374.333 428.461 379.507 429.141 382.988 427.999C385.195 426.45 395.838 398.659 397.695 394.168C403.292 380.632 409.908 367.159 414.81 353.384L424.973 329.593C426.638 324.204 431.407 318.653 434.584 314.001C434.681 312.162 428.891 305.93 427.466 304.11Z"/>
	<path fill="#F83F4E" d="M549.26 427.03L654.52 427.346L616.416 478.098L610.215 486.328L573.924 535.107L568.099 543.221L530.547 593.79C526.724 593.315 522.583 593.579 518.724 593.563L496.33 593.533L422.607 593.568L460.662 543.075L466.994 534.893L504.586 485.956L510.486 477.952L549.26 427.03Z"/>
	<path fill="#FE9F2A" d="M466.994 534.893L541.352 534.958L562.147 534.947C565.973 534.945 570.156 534.612 573.924 535.107L568.099 543.221L460.662 543.075L466.994 534.893Z"/>
	<path fill="#F83F4E" d="M504.586 485.956L610.215 486.328L573.924 535.107C570.156 534.612 565.973 534.945 562.147 534.947L541.352 534.958L466.994 534.893L504.586 485.956Z"/>
	<path fill="#F83F4E" d="M549.26 427.03L654.52 427.346L616.416 478.098L610.215 486.328L504.586 485.956L510.486 477.952L549.26 427.03Z"/>
	<path fill="#FFBF57" d="M510.486 477.952L585.315 477.789L607.657 477.711C610.1 477.703 614.272 477.169 616.416 478.098L610.215 486.328L504.586 485.956L510.486 477.952Z"/>
	<path fill="#5B112E" d="M182.796 329.007L202.748 328.748L200.676 336.208C208.587 334.893 217.829 335.746 225.916 335.715L282.325 335.75L283.469 334.555C283.656 335.003 283.743 335.508 284.03 335.899C284.569 336.637 286.579 337.686 287.376 338.243L299.157 346.25L335.632 371.61L336.938 371.507L382.988 427.999C379.507 429.141 374.333 428.461 370.575 428.464L342.044 428.455L235.389 428.343L198.071 428.425C191.007 428.473 183.853 428.282 176.811 428.8L120.513 372.153L122.477 371.463C123.054 370.885 123.771 370.606 124.491 370.233L168.175 340.938C173.243 337.173 178.425 333.597 182.796 329.007Z"/>
	<path fill="#FE9F2A" d="M182.796 329.007L202.748 328.748L200.676 336.208C208.587 334.893 217.829 335.746 225.916 335.715L282.325 335.75L283.469 334.555C283.656 335.003 283.743 335.508 284.03 335.899C284.569 336.637 286.579 337.686 287.376 338.243L299.157 346.25L335.632 371.61L193.978 371.552L148.332 371.72C139.843 371.757 130.919 372.321 122.477 371.463C123.054 370.885 123.771 370.606 124.491 370.233L168.175 340.938C173.243 337.173 178.425 333.597 182.796 329.007Z"/>
	<path fill="#FEE4A7" d="M182.796 329.007L202.748 328.748L200.676 336.208C189.21 342.994 176.076 348.079 164 353.743L139.583 365.136C136.13 366.673 132.573 368.513 128.997 369.702C127.549 370.183 126.003 370.196 124.491 370.233L168.175 340.938C173.243 337.173 178.425 333.597 182.796 329.007Z"/>
	<path fill="#FEE4A7" d="M379.892 207.451L380 206.658L329.399 206.871L340.601 176.471C341.534 174.015 342.63 169.194 344.251 167.355L734.758 167.53L705.651 205.674L645.082 284.763L455.124 535.073L363.037 657.127L336.415 692C330.843 699.367 325.351 707.693 318.965 714.359L575.577 714.497C577.472 718.984 578.447 724.093 579.866 728.781C581.209 733.217 582.864 737.574 583.968 742.079C584.361 743.682 584.996 745.323 584.926 746.974C584.181 747.35 582.654 747.201 581.798 747.2L571.907 747.194L525.552 747.178L339.375 747.074L234.316 747.258L640.807 206.874L394.39 206.564C391.8 214.002 388.448 221.206 385.298 228.42C383.183 233.262 381.271 238.45 378.658 243.029L378.406 243.46C376.265 245.425 374.859 247.861 373.184 250.209C371.23 252.95 369.027 255.656 367.294 258.537L353.316 277.122L352.53 275.879L373.733 222.945C376.308 218.126 378.074 212.603 379.892 207.451Z"/>
	<path fill="#5B112E" d="M824.591 132.535L826.293 132.243C830.569 145.355 824.574 157.992 820.915 170.589C820.57 171.775 819.143 175.165 819.241 176.22C819.394 177.856 856.255 222.554 859.473 225.047C859.297 233.823 858.817 242.518 857.128 251.157C855.924 257.314 854.012 263.315 852.185 269.309C852.051 271.629 851.264 273.059 849.976 274.943L830.165 301.072L787.737 356.71L721.494 444.429L643.629 547.392L630.991 547.32L629.611 547.173C626.235 550.503 623.576 555.507 620.943 559.469C609.144 577.232 598.23 595.01 589.348 614.441L542.858 681.776L535.563 692.174C534.34 693.96 533.184 696.173 531.461 697.505L453.921 697.277C456.246 692.976 459.783 688.777 462.688 684.818L481.281 659.844L487.377 651.615L524.313 602.255L530.547 593.79L568.099 543.221L573.924 535.107L610.215 486.328L616.416 478.098L654.52 427.346L549.26 427.03L554.975 419.259L591.6 371.47L597.135 363.87L634.602 313.969L640.72 306.034L678.269 256.08L684.945 247.805L723.997 196.9L729.843 189.529L740.087 176.412C746.771 177.058 773.739 160.964 781.256 156.951L810.807 140.75C815.418 138.145 820.454 135.874 824.591 132.535Z"/>
	<path fill="#F83F4E" d="M640.72 306.034L713.771 306.005L735.233 306.004C739.25 306.005 743.608 305.669 747.58 306.19C745.665 308.805 743.816 311.756 741.618 314.121C737.622 318.53 734.186 323.457 730.58 328.184L713.647 350.661L706.3 360.567C705.624 361.454 704.38 363.53 703.499 364.109L697.329 372.081C693.925 376.397 661.749 418.976 660.442 419.596L654.52 427.346L549.26 427.03L554.975 419.259L591.6 371.47L597.135 363.87L634.602 313.969L640.72 306.034Z"/>
	<path fill="#FFBF57" d="M597.135 363.87L670.466 363.954L692.095 363.945C695.828 363.944 699.802 363.677 703.499 364.109L697.329 372.081L622.851 371.907L604.033 371.859C599.915 371.844 595.684 372.053 591.6 371.47L597.135 363.87Z"/>
	<path fill="#FE9F2A" d="M640.72 306.034L713.771 306.005L735.233 306.004C739.25 306.005 743.608 305.669 747.58 306.19C745.665 308.805 743.816 311.756 741.618 314.121L634.602 313.969L640.72 306.034Z"/>
	<path fill="#F83F4E" d="M591.6 371.47C595.684 372.053 599.915 371.844 604.033 371.859L622.851 371.907L697.329 372.081C693.925 376.397 661.749 418.976 660.442 419.596L654.52 427.346L549.26 427.03L554.975 419.259L591.6 371.47Z"/>
	<path fill="#FFBF57" d="M554.975 419.259L623.417 419.322L646.517 419.342C651.089 419.347 655.897 419.088 660.442 419.596L654.52 427.346L549.26 427.03L554.975 419.259Z"/>
	<path fill="#F83F4E" d="M824.591 132.535L826.293 132.243C830.569 145.355 824.574 157.992 820.915 170.589C820.57 171.775 819.143 175.165 819.241 176.22C819.394 177.856 856.255 222.554 859.473 225.047C859.297 233.823 858.817 242.518 857.128 251.157C855.924 257.314 854.012 263.315 852.185 269.309L812.036 221.155L791.971 247.895L785.451 256.502L747.58 306.19C743.608 305.669 739.25 306.005 735.233 306.004L713.771 306.005L640.72 306.034L678.269 256.08L684.945 247.805L723.997 196.9L729.843 189.529L740.087 176.412C746.771 177.058 773.739 160.964 781.256 156.951L810.807 140.75C815.418 138.145 820.454 135.874 824.591 132.535Z"/>
	<path fill="#FFBF57" d="M729.843 189.529L817.998 189.366L816.799 197.427L749.173 197.094L732.755 197.101C729.922 197.096 726.778 197.342 723.997 196.9L729.843 189.529Z"/>
	<path fill="#F83F4E" d="M678.269 256.08L684.945 247.805L791.971 247.895L785.451 256.502L747.58 306.19C743.608 305.669 739.25 306.005 735.233 306.004L713.771 306.005L640.72 306.034L678.269 256.08Z"/>
	<path fill="#FE9F2A" d="M678.269 256.08L684.945 247.805L791.971 247.895L785.451 256.502L714.8 256.386C702.826 256.365 690.126 257.31 678.269 256.08Z"/>
	<defs>
		<linearGradient id="gradient_0" gradientUnits="userSpaceOnUse" x1="300.22296" y1="60.159698" x2="765.43414" y2="547.97015">
			<stop offset="0" stop-color="#097274"/>
			<stop offset="1" stop-color="#198D8B"/>
		</linearGradient>
	</defs>
	<path fill="url(#gradient_0)" d="M120.513 372.153C119.934 371.392 119.377 371.117 119.515 370.124C119.828 367.872 121.521 364.971 122.518 362.866C126.888 353.64 133.825 345.249 140.951 338.016C144.575 334.339 148.506 330.967 152.472 327.667C155.518 325.132 160.15 322.733 161.518 319L237.263 118.964L833.22 118.435L833.509 118.891C843.542 134.476 856.798 148.615 868.756 162.75L922.034 226.164L932.804 238.75C933.59 239.711 935.489 241.664 935.901 242.789C935.968 242.973 936.177 312.657 935.698 314.626C935.295 316.283 933.408 318.605 932.447 320.021L922.978 333.5L871.725 403.778L803.086 499.058L768.071 546.139L790.573 546.278C793.808 546.277 797.927 545.804 801.054 546.509L800.619 547.527L800.572 547.969C797.791 558.257 792.927 568.263 788.968 578.168C787.338 582.248 786.149 586.811 784.337 590.741L782.467 595.477L782.061 596.412C781.039 598.838 780.463 601.545 779.778 604.087L761.158 604.177C757.743 604.195 754.139 603.971 750.749 604.36L713.208 604.379L716.211 595.599L719.554 586.021L722.672 577.442L652.878 577.669L630.991 547.32L643.629 547.392L721.494 444.429L787.737 356.71L830.165 301.072L849.976 274.943C851.264 273.059 852.051 271.629 852.185 269.309C854.012 263.315 855.924 257.314 857.128 251.157C858.817 242.518 859.297 233.823 859.473 225.047C856.255 222.554 819.394 177.856 819.241 176.22C819.143 175.165 820.57 171.775 820.915 170.589C824.574 157.992 830.569 145.355 826.293 132.243L824.591 132.535L661.631 133.047C650.119 135.535 638.469 136.608 626.817 138.168L589.785 143.391L538.466 149.088L501.896 153.756L484.5 155.914C480.161 156.385 473.161 155.894 469.391 158.049L276.121 158.107L265.83 158.306L202.748 328.748L182.796 329.007C178.425 333.597 173.243 337.173 168.175 340.938L124.491 370.233C123.771 370.606 123.054 370.885 122.477 371.463L120.513 372.153Z"/>
	<path fill="#5B112E" d="M826.293 132.243C828.722 132.374 829.533 132.636 831.249 134.589L863.068 172.691L875.351 187.686C877.467 190.283 880.048 192.966 881.758 195.837L859.473 225.047C856.255 222.554 819.394 177.856 819.241 176.22C819.143 175.165 820.57 171.775 820.915 170.589C824.574 157.992 830.569 145.355 826.293 132.243Z"/>
	<path fill="#8BDBB8" d="M253.093 141.061L253.568 141.637L264.895 157.947C268.546 157.961 272.512 157.667 276.121 158.107L265.83 158.306L202.748 328.748L182.796 329.007L253.093 141.061Z"/>
	<path fill="#FEE4A7" d="M643.629 547.392L800.619 547.527L800.572 547.969C797.791 558.257 792.927 568.263 788.968 578.168C787.338 582.248 786.149 586.811 784.337 590.741L782.467 595.477L782.061 596.412C781.039 598.838 780.463 601.545 779.778 604.087L761.158 604.177C757.743 604.195 754.139 603.971 750.749 604.36L713.208 604.379L716.211 595.599L719.554 586.021L722.672 577.442L652.878 577.669L630.991 547.32L643.629 547.392Z"/>
	<path fill="#FB655F" d="M719.554 586.021L800.572 547.969C797.791 558.257 792.927 568.263 788.968 578.168C787.338 582.248 786.149 586.811 784.337 590.741L782.467 595.477L782.061 596.412C781.039 598.838 780.463 601.545 779.778 604.087L761.158 604.177C757.743 604.195 754.139 603.971 750.749 604.36L713.208 604.379L716.211 595.599L719.554 586.021Z"/>
	<path fill="#FFBF57" d="M716.211 595.599L782.467 595.477L782.061 596.412C781.039 598.838 780.463 601.545 779.778 604.087L761.158 604.177C757.743 604.195 754.139 603.971 750.749 604.36L713.208 604.379L716.211 595.599Z"/>
	<path fill="#FEE4A7" d="M253.093 141.061L247.779 133.008C250.104 132.358 253.401 132.711 255.863 132.685L275.118 132.574L349.221 132.557L539.512 132.483L661.631 133.047C650.119 135.535 638.469 136.608 626.817 138.168L589.785 143.391L538.466 149.088L501.896 153.756L484.5 155.914C480.161 156.385 473.161 155.894 469.391 158.049L276.121 158.107C272.512 157.667 268.546 157.961 264.895 157.947L253.568 141.637L253.093 141.061Z"/>
</svg>
