<?xml version="1.0" encoding="utf-8" ?>
<svg xmlns="http://www.w3.org/2000/svg" xmlns:xlink="http://www.w3.org/1999/xlink" width="1024" height="1024">
	<path fill="#030639" d="M225.396 107.119L909.371 108.082L560.13 658.853C565.053 658.298 570.391 658.633 575.363 658.59C576.588 658.58 578.829 658.852 579.922 658.552C581.41 658.143 584.058 655.798 585.324 654.846L598.134 645.384L657.868 603.494L668.454 595.76C669.561 594.928 671.276 593.21 672.506 592.7C673.755 592.182 676.515 592.503 677.945 592.501L693.941 592.495L792.834 592.96L857.54 592.725L893.95 592.761L814.003 717.478L895.488 845.72L921.112 886.142L881.58 885.98C875.293 885.99 867.737 885.326 861.631 886.686C859.836 887.086 857.913 888.343 856.291 889.2L846.148 894.674L805.065 916.581L785.451 927.178C783.597 928.23 780.913 930.507 779.036 931.022C777.485 931.447 774.064 930.979 772.322 930.971L753.534 930.955L654.273 930.917L221.941 930.899L128.529 789.908C131.819 782.982 136.315 776.882 140.515 770.5L159.569 741.5L227.461 636.949L353.648 443.014L406.045 362.919L232.555 362.08L119.029 190.259L196.702 129.524L213.724 115.881C217.345 112.907 221.068 108.961 225.396 107.119Z"/>
	<path fill="#FB8937" d="M314.504 196.479C314.477 194.021 314.16 191.662 315.75 189.668L318.25 189.643L319.11 191.067C319.052 192.831 319.48 196.471 318.25 197.624C316.804 197.473 315.657 197.477 314.504 196.479Z"/>
	<path fill="#FB8937" d="M325.135 195.714C325.087 194.047 324.663 191.577 325.631 190.162C327.198 190.103 328.522 189.706 329.841 190.613L329.883 194.23L329.25 197.801C327.846 198.434 327.661 198.464 326.137 198.25C325.563 197.402 325.368 196.705 325.135 195.714Z"/>
	<path fill="#FB8937" d="M533.332 828.005C535.483 829.728 537.775 832.662 540.475 832.974C539.649 834.055 539.141 834.321 537.75 834.426C535.079 834.628 531.481 834.583 528.854 834.169C530.087 832.248 529.98 831.473 530.097 829.241L533.332 828.005Z"/>
	<path fill="#D4E8ED" d="M706.428 771.521L713.861 782.982L706.01 782.85L706.428 771.521Z"/>
	<path fill="#FB8937" d="M724.746 744.016L734.814 744.008C735.47 746.723 736.079 749.627 737.414 752.097L730.705 752.049L730.157 751.887L724.746 744.016Z"/>
	<path fill="#F6312A" d="M293.863 189.75C294.478 189.625 294.845 189.526 295.502 189.512C296.796 189.484 297.532 189.902 298.426 190.75L298.275 206.822C296.138 203.543 293.829 200.238 292.37 196.593C292.61 194.354 292.545 191.634 293.863 189.75Z"/>
	<path fill="#F6312A" d="M325.135 195.714C325.368 196.705 325.563 197.402 326.137 198.25C327.661 198.464 327.846 198.434 329.25 197.801L329.883 194.23L329.952 211.33C329.959 214.7 330.193 218.177 329.554 221.5C328.301 222.273 327.096 221.906 325.653 221.827C324.182 219.902 325.101 199.708 325.135 195.714Z"/>
	<path fill="#F6312A" d="M319.11 191.067C319.722 194.945 320.265 219.528 318.75 221.895L315.25 221.944C313.693 219.76 314.535 200.581 314.504 196.479C315.657 197.477 316.804 197.473 318.25 197.624C319.48 196.471 319.052 192.831 319.11 191.067Z"/>
	<path fill="#FB8937" d="M368.529 189.75L370.25 190.026C371.846 193.737 371.27 216.314 370.602 221.25L369.25 221.914C368.203 221.901 368.225 221.994 367.25 221.412C365.566 211.735 366.644 200.327 367.151 190.52L368.529 189.75Z"/>
	<path fill="#D4E8ED" d="M747.324 844.031L753.805 844.016L763.965 860.5C765.434 862.9 767.58 865.592 768.389 868.25C767.245 868.723 766.347 868.968 765.115 869.091L747.324 844.031Z"/>
	<path fill="#FB8937" d="M346.867 190.25L349.75 190.003L350.62 190.75L350.836 209.298C350.89 213.329 351.309 217.597 350.25 221.522L349.865 221.623C348.473 221.789 347.486 221.837 346.389 221C346.044 214.772 346.331 208.433 346.387 202.195C346.422 198.398 345.994 193.944 346.867 190.25Z"/>
	<path fill="#FB8937" d="M336.196 190.25C337.281 189.959 338.347 190.097 339.462 190.14C340.812 192.121 340.384 218.039 339.75 221.394C338.307 221.909 337.727 221.941 336.25 221.527C334.96 219.445 335.657 214.459 335.678 211.908C335.733 204.916 335.094 197.14 336.196 190.25Z"/>
	<path fill="#FB8937" d="M357.052 190.25C358.615 190.109 359.38 189.784 360.75 190.607C361.779 197.202 361.016 204.791 360.979 211.5C360.963 214.459 361.577 219.026 360.25 221.621C359.896 221.738 359.609 221.855 359.219 221.866C357.705 221.912 357.455 221.807 356.526 220.75L356.603 201.913C356.624 198.102 356.311 193.994 357.052 190.25Z"/>
	<path fill="#F6312A" d="M576.193 867.041C579.881 870.776 582.458 875.272 586.038 879.096L586.675 879.944L564.782 880.524L576.193 867.041Z"/>
	<path fill="#F6312A" d="M304.529 189.75C305.894 189.49 306.679 189.535 308.024 189.876C308.256 190.167 308.63 190.389 308.721 190.75C309.27 192.932 308.774 196.769 308.794 199.101L308.811 222.218L303.549 214.118C304.08 208.388 303.51 202.664 303.693 196.923C303.769 194.555 303.647 191.975 304.529 189.75Z"/>
	<path fill="#8F093F" d="M756.863 826.227C760.095 824.717 772.373 825.73 776.522 825.748C776.423 828.298 778.547 831.607 779.552 833.954L762.06 834.022L756.863 826.227Z"/>
	<path fill="#FB8937" d="M286.099 797.986L282.865 793.216L319.52 793.53L321.486 798.001L290.559 798.044L286.099 797.986Z"/>
	<path fill="#F6312A" d="M709.082 752.07L703.02 744.012L724.746 744.016L730.157 751.887L709.082 752.07Z"/>
	<path fill="#AF0536" d="M331.497 255.513C333.776 255.656 335.717 256.661 337.931 257.095C346.253 258.725 352.083 258.139 358.237 265.065C359.105 266.043 360.036 267.288 360.539 268.505L341.699 268.522C337.802 264.789 333.828 260.421 331.497 255.513Z"/>
	<path fill="#FCEC61" d="M508.926 791.609C511.388 791.864 511.751 792.919 513.242 794.752C519.982 803.035 525.86 812.121 532.088 820.795C534.511 824.17 539.583 829.106 540.475 832.974C537.775 832.662 535.483 829.728 533.332 828.005C529.824 824.95 526.755 820.203 523.813 816.551L508.409 797.453C508.868 795.535 508.853 793.572 508.926 791.609Z"/>
	<path fill="#FEFDFE" d="M319.52 793.53L325.668 793.482L351.805 833.965L345.42 834.029L341.32 827.008L321.486 798.001L319.52 793.53Z"/>
	<path fill="#AF0536" d="M257.623 142.35C254.819 141.276 251.679 134.211 250.266 131.525L275.09 132.015C277.577 135.43 280.946 138.4 283.073 141.988L257.623 142.35Z"/>
	<path fill="#F6312A" d="M390.653 599.09C388.611 600.93 386.772 602.562 384.037 603.222C381.798 603.763 379.754 603.204 377.836 601.994C375.526 600.537 373.856 598.339 373.307 595.639C372.81 593.193 373.231 590.333 374.655 588.25C376.368 585.746 379.235 584.129 382.23 583.75C384.982 583.402 387.501 585.517 389.59 587.015C391.516 589.467 392.505 592.344 391.915 595.5C391.724 596.522 391.285 597.474 390.902 598.432L390.653 599.09Z"/>
	<path fill="#F9C028" d="M389.59 587.015C391.516 589.467 392.505 592.344 391.915 595.5C391.724 596.522 391.285 597.474 390.902 598.432L390.653 599.09C388.6 599.038 386.348 599.105 384.34 598.67C382.115 598.189 380.775 597.163 379.598 595.25C379.396 593.367 379.213 591.742 380.479 590.186C382.914 587.193 386.032 587.378 389.59 587.015Z"/>
	<path fill="#098694" d="M422.025 516.601C432.248 519.628 439.853 523.396 445.117 533C446.215 535.003 446.883 537.073 447.53 539.25L447.766 540.012C448.623 542.934 448.556 546.022 448.63 549.043C446.193 549.049 441.613 549.462 439.796 547.75C439.935 546.837 440.067 546.139 439.857 545.22L439.691 544.658C439.344 542.178 438.87 539.986 437.839 537.695C434.848 531.049 428.615 527.05 422.008 524.607L422.025 516.601Z"/>
	<path fill="#F6312A" d="M371.064 634.289L367.75 637.422C365.591 639.05 362.584 639.713 359.931 639.123C357.246 638.525 354.389 636.201 353.075 633.805C351.502 630.935 350.975 627.389 352.026 624.25C352.964 621.446 355.151 619.108 357.886 617.989C361.096 616.677 365.038 617.562 368.072 618.933C370.687 621.199 372.655 623.136 372.984 626.75C373.232 629.479 372.556 632.014 371.064 634.289Z"/>
	<path fill="#F9C028" d="M368.072 618.933C370.687 621.199 372.655 623.136 372.984 626.75C373.232 629.479 372.556 632.014 371.064 634.289C368.74 634.251 365.936 634.469 363.75 633.621C361.141 632.609 359.876 631.045 358.75 628.549C358.744 627.071 358.928 625.889 359.632 624.563C361.55 620.948 364.441 620.108 368.072 618.933Z"/>
	<path fill="#F33956" d="M286.099 797.986L290.559 798.044L310.105 827.027L341.32 827.008L345.42 834.029L310.567 834.007L286.099 797.986Z"/>
	<path fill="#630D47" d="M674.922 639.75L676.503 639.492L677.8 641.19C677.454 645.258 672.251 650.534 669.762 653.75C665.37 659.425 661.068 665.652 656.178 670.87L653.07 667.419L644.929 659.084L674.922 639.75Z"/>
	<path fill="#8F093F" d="M660.991 893.284L639.634 920.432C639.299 920.811 639.025 921.301 638.562 921.505C638.092 921.712 636.327 921.561 635.764 921.575L625.772 921.824L646.607 892.899C651.163 893.805 656.34 893.316 660.991 893.284Z"/>
	<path fill="#FEFDFE" d="M231.024 133.073C232.864 133.738 233.609 134.752 234.75 136.327L255.453 167.256L289.498 217L315.812 255.333C319.474 260.732 324.092 266.45 326.999 272.25C327.336 272.923 327.527 273.531 327.738 274.25C327.377 274.905 327.109 275.506 326.569 276.033C323.111 271.775 320.577 266.586 317.547 262L300.128 236.621L252.384 166.588L232.547 137.518C231.578 135.997 231.049 134.883 231.024 133.073Z"/>
	<path fill="#1D6384" d="M703.433 899.733L788.708 899.828L782.354 904.304L780.25 904.069C772.837 903.211 765.211 903.504 757.75 903.483L714.177 903.303C701.694 903.375 689.227 904.046 676.747 903.383C675.899 903.338 672.909 903.468 672.25 903.105C671.978 902.956 671.778 902.702 671.542 902.5L672.042 901.25C672.445 900.946 672.79 900.546 673.25 900.338C674.969 899.56 679.22 900.003 681.199 900L703.433 899.733Z"/>
	<path fill="#C80F3A" d="M331.035 184.598C325.746 185.21 319.891 184.972 314.524 185.029L284.15 185.257L277.072 172.403L311.633 172.503C312.824 176.625 314.48 180.611 316.518 184.385C321.178 184.392 326.458 183.892 331.035 184.598Z"/>
	<path fill="#1D6384" d="M759.615 912.247L772.612 912.401C771.298 913.473 768.197 916.355 766.663 916.734C765.607 916.995 763.157 916.542 762 916.527L747.418 916.511L673.25 916.508L659.951 916.522L663.622 912.495L759.615 912.247Z"/>
	<path fill="#4D4E87" d="M666.064 625.75L667.152 625.754L672.403 633.328L672.149 633.658C670.131 635.908 666.221 637.941 663.67 639.748L645.608 652.56C643.867 653.778 641.121 656.199 639.179 656.9C637.644 657.453 633.055 656.981 631.25 657.005L623.986 656.977L666.064 625.75Z"/>
	<path fill="#AF0536" d="M356.757 240.994L322 240.815L312.981 227.813L333.875 227.638C338.188 227.613 342.699 227.296 346.981 227.862L356.757 240.994Z"/>
	<path fill="#AF0536" d="M378.953 250.133L327.849 250.264C326.099 248.715 324.743 246.087 323.429 244.137L411.44 244.566L410.463 245.103C409.902 247.17 410.35 248.805 411.34 250.731C407.696 249.593 403.412 250.029 399.604 250.039L378.953 250.133Z"/>
	<path fill="#F33956" d="M378.953 250.133C378.97 248.422 378.545 246.208 379.75 244.987L410.463 245.103C409.902 247.17 410.35 248.805 411.34 250.731C407.696 249.593 403.412 250.029 399.604 250.039L378.953 250.133Z"/>
	<path fill="#FB8937" d="M331.022 132.006L346.777 131.99C351.454 137.753 355.239 143.955 359.368 150.094C363.309 155.954 367.64 161.676 370.863 167.978L360.322 168.012C356.976 164.886 354.325 160.923 351.44 157.376L339.604 143.695C342.236 143.801 345.15 143.967 347.75 143.589L347.569 142.926C347.3 142.763 346.892 142.488 346.571 142.375C344.661 141.703 341.022 141.925 339.187 142.728L338.471 142.05L331.022 132.006Z"/>
	<path fill="#098694" d="M264.034 890.25C266.656 889.558 269.421 889.868 272.113 889.93L284.458 890.103L326.086 890.287L474.445 890.352L509.694 890.36C514.307 890.364 520.58 889.593 525.016 890.75L524.75 891.572L522.75 891.912L262.5 892.392L262.181 891.676L264.034 890.25Z"/>
	<path fill="#F33956" d="M275.09 132.015L331.022 132.006L338.471 142.05L283.073 141.988C280.946 138.4 277.577 135.43 275.09 132.015Z"/>
	<path fill="#1D6384" d="M684.896 885.973L773.035 885.996L799.093 886.008C803.507 886.011 808.296 885.64 812.65 886.197L807.181 889.255C805.668 890.069 804.501 890.449 802.779 890.522L776.255 890.512L720.215 890.586L693.995 890.696C690.405 890.715 685.957 891.238 682.448 890.588L684.896 885.973Z"/>
	<path fill="#098694" d="M271.925 880.75L272.416 880.638C275.529 880.005 278.675 880.368 281.824 880.446L294.319 880.499L352.536 880.593L461.432 880.876L530.191 881.28C531.657 881.349 532.636 881.187 533.863 882C533.249 883.081 532.859 882.993 531.75 883.458L270.533 883.36L270.15 882.597L271.925 880.75Z"/>
	<path fill="#F6312A" d="M573.582 863.899L522.004 791.998L532.316 792.323C535.947 799.96 541.614 807.148 546.33 814.199L575.68 858.105L593.528 857.779C594.863 859.72 595.972 861.61 596.969 863.745C589.764 863.3 580.648 862.564 573.582 863.899Z"/>
	<path fill="#F33956" d="M311.633 172.503L344.522 172.316C350.618 172.275 356.803 171.711 362.851 172.523C366.412 176.974 370.099 180.754 374.158 184.748L331.035 184.598C326.458 183.892 321.178 184.392 316.518 184.385C314.48 180.611 312.824 176.625 311.633 172.503Z"/>
	<path fill="#FB8937" d="M362.851 172.523L374.48 172.493L421.817 244.959C422.339 245.756 423.509 246.934 423.172 247.911L408.339 268.793L402.734 268.479C406.028 263.984 410.608 259.507 411.96 253.995C412.277 253.32 412.333 252.732 412.444 252L411.34 250.731C410.35 248.805 409.902 247.17 410.463 245.103L411.44 244.566L412.381 243.5L411.927 242.008C411.508 239.504 409.312 236.658 407.962 234.509L394.244 213.919C388.513 205.037 383.173 195.203 376.829 186.805C376.222 185.347 375.563 185.379 374.158 184.748C370.099 180.754 366.412 176.974 362.851 172.523Z"/>
	<path fill="#F9C028" d="M734.814 744.008L754.474 743.984L809.549 825.567C808.595 826.342 807.544 826.957 806.5 827.6C806.211 827.524 805.885 827.534 805.634 827.371C804.951 826.928 803.726 824.818 803.204 824.094L795.292 812.75L763.944 771.56L750.138 752.006L737.414 752.097C736.079 749.627 735.47 746.723 734.814 744.008Z"/>
	<path fill="#FEFDFE" d="M335.4 280.704C336.469 279.807 338.198 278.019 339.576 277.661C341.723 277.103 346.742 277.966 349.156 278.001L386.854 278.228L552.949 278.036L548.937 281.18L461.205 281.554L381.25 281.724L356.655 281.506C349.273 281.516 342.709 282.352 335.4 280.704Z"/>
	<path fill="#D4E8ED" d="M258.504 794.506L274.04 794.495L301.724 836.006L291.797 846.014C288.457 839.907 284.345 834.297 280.437 828.551L266.838 808.16C263.938 803.779 260.4 799.42 258.504 794.506Z"/>
	<path fill="#1D6384" d="M190.02 165.25L191.104 165.263C193.672 167.611 195.465 170.901 197.335 173.815L204.956 185.395L233.864 229.426L271.86 286.453L285.724 307.256C286.141 307.928 285.997 307.772 286.116 308.75L283.75 310.554L282.25 310.985L187.472 167.75C187.89 166.323 188.83 166.063 190.02 165.25Z"/>
	<path fill="#F6312A" d="M331.497 255.513L330.964 254.719L331.25 254.07L411.96 253.995C410.608 259.507 406.028 263.984 402.734 268.479L360.539 268.505C360.036 267.288 359.105 266.043 358.237 265.065C352.083 258.139 346.253 258.725 337.931 257.095C335.717 256.661 333.776 255.656 331.497 255.513Z"/>
	<path fill="#F1D4A4" d="M338.266 796.944C337.111 795.674 336.187 793.949 335.23 792.511L508.926 791.609C508.853 793.572 508.868 795.535 508.409 797.453L508.151 797.396C504.999 796.496 500.04 797.086 496.692 797.083L472.122 797.073L386.197 797.083C370.306 797.113 354.125 797.809 338.266 796.944Z"/>
	<path fill="#1D6384" d="M269.299 338.015L421.664 338.041L414.225 343.317C411.324 344.166 406.126 343.493 402.93 343.493L373.5 343.503L262.682 343.996L269.299 338.015Z"/>
	<path fill="#1D6384" d="M255.537 899.235L518.232 899.034L514.123 902.495L252.374 902.501L255.537 899.235Z"/>
	<path fill="#C80F3A" d="M290.559 798.044L321.486 798.001L341.32 827.008L310.105 827.027L290.559 798.044Z"/>
	<path fill="#14CAC1" d="M291.797 846.014L282.156 856.056C280.613 854.624 279.489 852.405 278.347 850.63L271.252 839.624L242.212 794.495L258.504 794.506C260.4 799.42 263.938 803.779 266.838 808.16L280.437 828.551C284.345 834.297 288.457 839.907 291.797 846.014Z"/>
	<path fill="#1D6384" d="M259.568 708.661L293.82 709.043L274.227 738.83L267.596 749.631L250.54 722.795C252.534 718.127 256.806 713.021 259.568 708.661Z"/>
	<path fill="#1D6384" d="M200.92 795.01L211.29 794.995C211.621 795.064 211.974 795.101 212.265 795.273C213.342 795.91 219.108 805.977 220.192 807.676L256.328 864.343L263.647 874.592L260.2 878.167L256.613 882.197L200.92 795.01Z"/>
	<path fill="#1D6384" d="M219.614 795.006L233.508 794.996L276.093 861.67L272.101 865.378L268.193 869.779L219.614 795.006Z"/>
	<path fill="#1D6384" d="M152.61 193.497C157.087 198.33 160.448 204.146 164.051 209.643L183.434 239.803L247.967 339.474L244.764 342.75C244.385 342.637 243.953 342.634 243.627 342.411C242.478 341.624 240.758 338.009 239.857 336.622L224.45 312.905L148.638 196.416C149.865 195.345 151.278 194.439 152.61 193.497Z"/>
	<path fill="#FEFDFE" d="M553.204 403.684L555.75 403.909L556.212 404.508C553.877 409.968 549.495 415.366 546.223 420.345L529.681 446.009L482.163 519.828L455.467 560L377.853 680.59L349.664 724.563C345.384 731.185 341.288 738.741 336.353 744.859C336.211 739.935 341.61 733.179 344.25 729.048L357.273 708.468L359.96 704.935L415.503 618.124C419.113 613.842 421.931 608.426 425.011 603.729C430.805 594.89 437.425 586.507 441.844 576.868C443.738 573.889 446.238 571.173 448.345 568.324C451.655 563.85 454.176 559.682 456.355 554.565L553.204 403.684Z"/>
	<path fill="#1D6384" d="M448.63 549.043C448.309 552.09 447.427 554.743 446.075 557.484C442.555 564.617 436.513 570.88 428.84 573.348L428 573.607C424.796 574.616 421.353 574.94 418 574.962C411.08 575.008 404.628 572.398 399.75 567.486C393.44 561.132 390.266 552.593 390.45 543.732C390.602 536.415 393.234 529.683 398.637 524.618C404.961 518.691 413.559 516.366 422.025 516.601L422.008 524.607C414.115 525.451 407.62 527.089 402.457 533.603C399.308 537.575 397.91 542.976 398.548 547.992C399.285 553.785 402.398 559.457 407.13 562.939C411.968 566.5 417.474 567.795 423.397 566.709L425.5 566.13L426.143 565.927C430.566 564.453 434.819 560.686 436.921 556.55C438.917 552.622 439.614 549.012 439.691 544.658L439.857 545.22C440.067 546.139 439.935 546.837 439.796 547.75C441.613 549.462 446.193 549.049 448.63 549.043Z"/>
	<path fill="#242260" d="M547.014 403.984L553.204 403.684L456.355 554.565L456.102 544.902L547.014 403.984Z"/>
	<path fill="#1D6384" d="M290.965 320.243L439.717 320.025C437.319 322.565 435.011 325.429 431.58 326.51L282.74 326.998C284.755 325.04 288.273 320.695 290.965 320.243Z"/>
	<path fill="#1D6384" d="M245.381 910.702L507.767 911.526C506.056 913.168 505.148 914.482 502.75 914.996L241.265 914.751L245.381 910.702Z"/>
	<path fill="#1D6384" d="M178.165 173.75L178.545 173.766C180.277 174.16 195.037 197.762 197.297 201.225L274.122 317.957L270.44 321.25L269.25 321.138L174.06 176.261L178.165 173.75Z"/>
	<path fill="#4D4E87" d="M643.114 405.072L646.5 405.101L647.108 405.75C646.318 408.495 644.48 411.073 643.023 413.517L633.977 428.097L593.758 490.543L584.588 504.641C582.433 508.043 580.416 511.725 577.832 514.813L573.642 515.052C572.147 515.012 570.934 515.271 569.683 514.399C573.304 507.235 578.344 500.303 582.657 493.504L607.959 453.721L626.057 425.179C629.236 420.163 632.141 414.818 635.869 410.182C637.96 407.583 640.094 406.314 643.114 405.072Z"/>
	<defs>
		<linearGradient id="gradient_0" gradientUnits="userSpaceOnUse" x1="569.23572" y1="915.01312" x2="628.76239" y2="865.48456">
			<stop offset="0" stop-color="#DF0331"/>
			<stop offset="1" stop-color="#FF1B4E"/>
		</linearGradient>
	</defs>
	<path fill="url(#gradient_0)" d="M551.569 895.894L560.371 885.958C560.654 885.672 561.828 884.333 562.128 884.236C562.961 883.965 565.76 884.418 566.747 884.447L579.908 884.491L647.498 884.014L639.855 893.97L625.44 894.893C621.609 895.077 601.848 894.759 599.785 896.864C591.677 898.404 582.548 897.277 574.252 897.321C567.763 897.355 560.413 898.105 554.012 897.362C552.831 897.034 552.357 896.846 551.569 895.894Z"/>
	<path fill="#1D6384" d="M181.618 795.009L192.503 795.003L252.291 887.482L248.713 891.068L245.914 894.298C243.944 893.087 235.546 878.626 233.5 875.462L181.618 795.009Z"/>
	<path fill="#1D6384" d="M165.866 183.25C166.156 183.349 166.475 183.386 166.736 183.548C168.379 184.564 184.72 211.057 187.072 214.681L261.175 328.716L257.096 333.016C252.014 327.169 247.981 319.811 243.876 313.256L227.585 287.889L161.532 186.668L165.866 183.25Z"/>
	<path fill="#F33956" d="M338.266 796.944C354.125 797.809 370.306 797.113 386.197 797.083L472.122 797.073L496.692 797.083C500.04 797.086 504.999 796.496 508.151 797.396L343.295 797.552L362.313 827.958L478.827 828.969L515.683 829.013C519.966 829.016 526.071 828.257 530.097 829.241C529.98 831.473 530.087 832.248 528.854 834.169L361.901 834.002L338.266 796.944Z"/>
	<path fill="#1D6384" d="M162.447 795.012L173.006 794.997L241.065 899.66L237.437 903.332L234.575 906.67L162.447 795.012Z"/>
	<path fill="#1D6384" d="M141.694 794.5L152.47 794.495L209.995 881.911L225.156 904.964C226.437 906.898 229.516 910.329 229.723 912.418L226.753 915.51L224.183 918.698L141.694 794.5Z"/>
	<path fill="#F9C028" d="M532.316 792.323L551.956 792.201L593.528 857.779L575.68 858.105L546.33 814.199C541.614 807.148 535.947 799.96 532.316 792.323Z"/>
	<path fill="#F6312A" d="M376.829 186.805C383.173 195.203 388.513 205.037 394.244 213.919L407.962 234.509C409.312 236.658 411.508 239.504 411.927 242.008C404.307 240.771 396.981 241.182 389.303 241.155L356.757 240.994L346.981 227.862L376.787 227.515C378.092 214.36 375.501 200.7 376.763 187.427L376.829 186.805Z"/>
	<path fill="#FEFDFE" d="M441.902 188.512L431.125 188.748L393.01 132.29L440.694 132.494L508.256 230.275C507.557 231.222 507.437 231.037 506.349 231.302L438.909 140.44C435.435 139.842 431.527 140.173 428 140.15L408.777 140.04L441.902 188.512Z"/>
	<path fill="#098694" d="M689.494 649.983L717.854 650.044L684.843 700.198L679.169 709.295L665.816 687.87C665.733 687.625 665.635 687.367 665.662 687.11C665.817 685.673 686.93 653.977 689.494 649.983Z"/>
	<path fill="#FEFDFE" d="M654.098 239.713L663.313 240.041L564.84 392.506C564.389 393.223 564.394 393.617 563.465 393.77L556.026 393.495L654.098 239.713Z"/>
	<path fill="#030639" d="M439.691 544.658C439.614 549.012 438.917 552.622 436.921 556.55C434.819 560.686 430.566 564.453 426.143 565.927L425.5 566.13L423.397 566.709C417.474 567.795 411.968 566.5 407.13 562.939C402.398 559.457 399.285 553.785 398.548 547.992C397.91 542.976 399.308 537.575 402.457 533.603C407.62 527.089 414.115 525.451 422.008 524.607C428.615 527.05 434.848 531.049 437.839 537.695C438.87 539.986 439.344 542.178 439.691 544.658Z"/>
	<path fill="#14CAC1" d="M416.722 532.001C419.214 531.958 421.416 532.113 423.75 533.069C427.518 534.612 430.334 538.36 431.815 542.045C433.197 545.487 432.712 549.476 431.096 552.734C429.27 556.415 425.637 558.524 421.871 559.787C419.327 560.055 416.921 559.759 414.5 558.9C410.947 557.64 408.196 554.264 406.646 550.93C405.101 547.608 405.087 544.385 406.464 541C408.417 536.198 412.133 533.839 416.722 532.001Z"/>
	<path fill="#630D47" d="M709.082 752.07L730.157 751.887L730.705 752.049C734.933 760.796 739.78 768.267 745.743 775.958C745.723 776.641 745.513 777.877 745.671 778.5C746.062 780.041 747.375 780.157 746.652 781.886L745.294 782.326L744.99 783.001L745.306 783.325L773.952 823.549C775.399 823.903 776.725 824.307 778.227 824.273L778.374 824.916L778.501 825.416L776.522 825.748C772.373 825.73 760.095 824.717 756.863 826.227L756.691 825.249C753.711 823.186 751.372 817.981 749.345 814.873L731.802 787.697C724.224 775.921 715.903 764.975 709.417 752.506L709.082 752.07Z"/>
	<path fill="#AF0536" d="M709.082 752.07L730.157 751.887L730.705 752.049C734.933 760.796 739.78 768.267 745.743 775.958C745.723 776.641 745.513 777.877 745.671 778.5C746.062 780.041 747.375 780.157 746.652 781.886L745.294 782.326L744.99 783.001L721.906 753.313L721.329 752.532L709.417 752.506L709.082 752.07Z"/>
	<path fill="#242260" d="M245.781 729.507L263.712 754.669L243.503 784.495L228.75 784.513L210.966 784.839C211.172 782.491 241.82 735.851 245.781 729.507Z"/>
	<path fill="#FEFDFE" d="M690.031 625.012L684.653 616.501L850.889 617.027L835.934 639.63L826.945 639.338C827.021 637.739 828.294 636.036 829.059 634.662L834.415 625.037L690.031 625.012Z"/>
	<path fill="#1D6384" d="M765.115 869.091L695.947 869.51L699.92 864.68C696.576 857.667 690.915 850.875 686.775 844.214L747.324 844.031L765.115 869.091Z"/>
	<path fill="#14CAC1" d="M364.074 140.548L372.045 140.354C378.767 148.131 384.377 156.726 390.35 165.075C400.699 179.538 410.92 193.521 419.737 209.024L449.368 209.004L468.476 231.313L424.766 231.331L364.074 140.548Z"/>
	<path fill="#FEFDFE" d="M513.319 688.609L520.608 678.993C521.23 679.421 521.729 679.817 522.5 679.936C524.777 680.288 527.471 680.047 529.783 680.049L545.068 680.057L590.859 680.132L612.762 680.1L646.734 680.222L689.551 746.504L680.459 746.5C679.815 744.711 678.271 742.861 677.205 741.257L670.506 731.055C667.807 726.15 664.466 721.805 661.461 717.106C655.176 707.28 649.23 696.964 641.623 688.084L535.368 689.026L526.477 688.483L513.319 688.609Z"/>
	<path fill="#14CAC1" d="M513.319 688.609L520.608 678.993C521.23 679.421 521.729 679.817 522.5 679.936C524.777 680.288 527.471 680.047 529.783 680.049L545.068 680.057L590.859 680.132L612.762 680.1C603.815 681.32 593.843 680.49 584.79 680.484L528.656 680.455L524.1 687.5C524.974 688.326 525.334 688.239 526.477 688.483L513.319 688.609Z"/>
	<path fill="#FEFDFE" d="M364.074 140.548L358.086 132.049L375.794 131.5C377.504 131.512 380.131 131.205 381.626 131.927L426.56 197.995L454.79 197.98L475.835 231.238L468.476 231.313L449.368 209.004L419.737 209.024C410.92 193.521 400.699 179.538 390.35 165.075C384.377 156.726 378.767 148.131 372.045 140.354L364.074 140.548Z"/>
	<path fill="#F6312A" d="M515.965 222.985L763.982 223.044L758.935 230.018L520.521 230.525L515.965 222.985Z"/>
	<path fill="#F9C028" d="M599.541 860.895C596.086 857.451 593.674 852.342 591.147 848.161L580.789 831.478L555.075 791.995L577.162 792.325C579.085 792.361 581.051 792.296 582.954 792.576L585.229 795.884L622.798 857.929L623.423 858.602C619.258 861.571 613.16 860.187 608.25 860.115C605.372 860.072 602.385 860.503 599.541 860.895Z"/>
	<path fill="#F6312A" d="M599.541 860.895C596.086 857.451 593.674 852.342 591.147 848.161L580.789 831.478L555.075 791.995L577.162 792.325L561.303 792.361L602.576 858.27C606.81 858.444 619.679 859.563 622.798 857.929L623.423 858.602C619.258 861.571 613.16 860.187 608.25 860.115C605.372 860.072 602.385 860.503 599.541 860.895Z"/>
	<path fill="#F9C028" d="M620.82 801.918L616.108 793.25L616.75 792.497L620.924 792.499L641.976 792.667L681.942 857.5C683.073 859.131 684.093 860.713 684.961 862.5C684.823 863.081 684.771 863.549 684.42 864.042C682.158 863.109 678.955 863.497 676.513 863.477L659.497 863.338C659.269 861.897 658.247 860.251 657.608 858.915L631.638 818.576L624.864 808.089C623.56 806.021 622.427 803.767 620.82 801.918Z"/>
	<path fill="#F6312A" d="M620.82 801.918L616.108 793.25L616.75 792.497L620.924 792.499L662.948 857.867C667.037 858.54 672.076 858.05 676.269 858.045C678.157 858.042 680.207 858.334 681.942 857.5C683.073 859.131 684.093 860.713 684.961 862.5C684.823 863.081 684.771 863.549 684.42 864.042C682.158 863.109 678.955 863.497 676.513 863.477L659.497 863.338C659.269 861.897 658.247 860.251 657.608 858.915L631.638 818.576L624.864 808.089C623.56 806.021 622.427 803.767 620.82 801.918Z"/>
	<path fill="#098694" d="M788.148 840.461L808.696 840.37C814.698 840.33 823.084 838.946 828.455 842.167C830.201 845.01 833.318 846.19 836.5 846.928C839.457 847.613 842.521 847.514 845.038 849.467C847.428 850.167 849.838 849.92 852.227 850.473C856.892 851.553 861.112 853.577 865.887 854.408L878.46 862.953C876.111 863.71 872.751 863.303 870.25 863.312L851.497 863.36L779.973 863.523L766.12 840.501L788.148 840.461Z"/>
	<path fill="#14CAC1" d="M788.148 840.461L808.696 840.37C814.698 840.33 823.084 838.946 828.455 842.167C830.201 845.01 833.318 846.19 836.5 846.928C839.457 847.613 842.521 847.514 845.038 849.467L795.336 850.303C792.495 848.41 789.981 843.336 788.148 840.461Z"/>
	<path fill="#F33956" d="M623.423 858.602C624.717 860.262 625.996 862.298 627.805 863.409L628.906 863.492L629.001 863.802L657.877 863.54L659.497 863.338L676.513 863.477C678.955 863.497 682.158 863.109 684.42 864.042L670.362 881.999C667.406 885.777 664.472 889.969 660.991 893.284C656.34 893.316 651.163 893.805 646.607 892.899L656.053 879.821L586.675 879.944L586.038 879.096C582.458 875.272 579.881 870.776 576.193 867.041C575.45 866.614 574.176 864.634 573.582 863.899C580.648 862.564 589.764 863.3 596.969 863.745L600.663 863.44L599.541 860.895C602.385 860.503 605.372 860.072 608.25 860.115C613.16 860.187 619.258 861.571 623.423 858.602Z"/>
	<path fill="#AF0001" d="M623.423 858.602C624.717 860.262 625.996 862.298 627.805 863.409L628.906 863.492L629.001 863.802C620.091 864.599 609.534 864.494 600.663 863.44L599.541 860.895C602.385 860.503 605.372 860.072 608.25 860.115C613.16 860.187 619.258 861.571 623.423 858.602Z"/>
	<path fill="#14CAC1" d="M690.031 625.012L834.415 625.037L829.059 634.662C828.294 636.036 827.021 637.739 826.945 639.338L698.613 638.892L690.031 625.012Z"/>
	<path fill="#F9C028" d="M590.568 792.497L612.612 792.489C614.696 796.233 616.651 800.244 619.16 803.717L653.392 857.905L657.877 863.54L629.001 863.802L628.906 863.492C628.386 860.767 626.108 857.754 624.646 855.421L614.359 839.105L585.905 794.199L585.342 793L585.75 792.505L590.568 792.497Z"/>
	<path fill="#F6312A" d="M585.905 794.199L585.342 793L585.75 792.505L590.568 792.497C595.058 798.567 599.502 804.676 603.412 811.142L623.881 845.605C626.043 849.297 628.115 855.106 631.151 857.999L653.392 857.905L657.877 863.54L629.001 863.802L628.906 863.492C628.386 860.767 626.108 857.754 624.646 855.421L614.359 839.105L585.905 794.199Z"/>
	<path fill="#FEFDFE" d="M818.566 650.246L829.112 650.014L786.006 716.454L851.517 818.358L870.622 848.14C873.547 852.71 877.323 857.48 879.497 862.435L878.46 862.953L865.887 854.408L844.473 822.081L815.862 778.072L791.882 741.015C786.74 733.027 781.303 725.173 776.973 716.706L818.566 650.246Z"/>
	<path fill="#AF0536" d="M599.785 896.864C601.848 894.759 621.609 895.077 625.44 894.893L639.855 893.97L617.843 921.516L528.8 921.147C530.766 918.771 533.407 914.593 535.923 912.984L568.057 912.962C576.65 912.949 585.093 913.113 593.64 912.093L538.337 909.943L551.569 895.894C552.357 896.846 552.831 897.034 554.012 897.362C560.413 898.105 567.763 897.355 574.252 897.321C582.548 897.277 591.677 898.404 599.785 896.864Z"/>
	<path fill="#000012" d="M599.785 896.864C599.269 897.814 599.525 897.778 598.375 898.134C595.336 899.074 591.905 899.224 588.75 899.571C580.794 900.446 572.967 900.845 564.965 900.973C561.79 901.023 556.961 901.676 554.158 900.25C553.68 899.222 553.871 898.456 554.012 897.362C560.413 898.105 567.763 897.355 574.252 897.321C582.548 897.277 591.677 898.404 599.785 896.864Z"/>
	<path fill="#F6312A" d="M737.414 752.097L750.138 752.006L763.944 771.56L795.292 812.75L803.204 824.094C803.726 824.818 804.951 826.928 805.634 827.371C805.885 827.534 806.211 827.524 806.5 827.6C807.544 826.957 808.595 826.342 809.549 825.567L814.994 833.503L785.604 833.578L779.552 833.954C778.547 831.607 776.423 828.298 776.522 825.748L778.501 825.416L778.374 824.916L778.227 824.273C776.725 824.307 775.399 823.903 773.952 823.549L745.306 783.325L744.99 783.001L745.294 782.326L746.652 781.886C747.375 780.157 746.062 780.041 745.671 778.5C745.513 777.877 745.723 776.641 745.743 775.958C739.78 768.267 734.933 760.796 730.705 752.049L737.414 752.097Z"/>
	<path fill="#C80F3A" d="M745.743 775.958L758.497 792C758.314 792.933 757.966 793.706 757.577 794.57C753.885 790.977 750.45 784.704 745.306 783.325L744.99 783.001L745.294 782.326L746.652 781.886C747.375 780.157 746.062 780.041 745.671 778.5C745.513 777.877 745.723 776.641 745.743 775.958Z"/>
	<path fill="#AF0536" d="M760.433 785.091L770.617 798.25L770.082 798.458L768.5 796.994L767.645 797.25C770.264 801.919 774.094 806.488 777.277 810.83C778.401 812.365 780.022 814.024 780.745 815.75L780.118 815.881C776.763 812.268 774.285 808.357 771.407 804.401L759.617 788.664L760.433 785.091Z"/>
	<path fill="#8F093F" d="M759.617 788.664L745.342 769.149C741.667 764.053 738.075 759.321 736.134 753.25L736.75 752.492C738.53 753.578 740.194 757.933 741.561 759.868L760.433 785.091L759.617 788.664Z"/>
	<path fill="#AF0536" d="M745.306 783.325C750.45 784.704 753.885 790.977 757.577 794.57C759.691 796.467 761.184 799.695 762.817 802.056L773.67 816.337C775.034 818.214 777.125 822.484 778.935 823.674C779.735 824.199 781.311 824.316 782.257 824.487C781.091 824.85 779.717 825.486 778.501 825.416L778.374 824.916L778.227 824.273C776.725 824.307 775.399 823.903 773.952 823.549L745.306 783.325Z"/>
	<path fill="#F33956" d="M283.073 141.988L338.471 142.05L339.187 142.728C341.022 141.925 344.661 141.703 346.571 142.375C346.892 142.488 347.3 142.763 347.569 142.926L347.75 143.589C345.15 143.967 342.236 143.801 339.604 143.695L351.44 157.376C354.325 160.923 356.976 164.886 360.322 168.012L302.942 167.998L273.695 168.011C271.03 164.312 267.916 160.575 266.812 156.067C266.421 154.809 265.639 153.769 265.104 152.557L263.75 152.107C262.224 150.286 261.21 148.703 260.32 146.498C259.565 144.817 258.915 143.673 257.623 142.35L283.073 141.988Z"/>
	<path fill="#000012" d="M265.104 152.557L306 152.967L324.961 153.033C328.433 153.054 333.126 152.711 336.344 154.024L295.323 155.436L266.812 156.067C266.421 154.809 265.639 153.769 265.104 152.557Z"/>
	<defs>
		<linearGradient id="gradient_1" gradientUnits="userSpaceOnUse" x1="288.95883" y1="137.58536" x2="290.95227" y2="148.43098">
			<stop offset="0" stop-color="#01001D"/>
			<stop offset="1" stop-color="#000004"/>
		</linearGradient>
	</defs>
	<path fill="url(#gradient_1)" d="M283.073 141.988L338.471 142.05L339.187 142.728C336.919 144.025 268.852 146.399 260.32 146.498C259.565 144.817 258.915 143.673 257.623 142.35L283.073 141.988Z"/>
	<path fill="#C80F3A" d="M266.812 156.067L295.323 155.436C296.811 160.378 301.086 163.401 302.942 167.998L273.695 168.011C271.03 164.312 267.916 160.575 266.812 156.067Z"/>
	<path fill="#14CAC1" d="M441.902 188.512L408.777 140.04L428 140.15C431.527 140.173 435.435 139.842 438.909 140.44L506.349 231.302L488.585 231.335L459.437 189.014C453.662 188.255 447.719 188.512 441.902 188.512Z"/>
	<path fill="#14CAC1" d="M320.062 292.823L335.4 280.704C342.709 282.352 349.273 281.516 356.655 281.506L381.25 281.724L461.205 281.554L548.937 281.18C545.016 285.227 540.654 290.619 535.66 293.31C526.324 292.637 516.598 293.129 507.216 293.118L449.18 293.453L357.845 293.472C351.899 293.477 324.098 294.564 320.062 292.823Z"/>
	<path fill="#F6312A" d="M650.069 793.026L716.305 793.419L721.91 793.517L747.995 834.575L738.571 834.89L673.898 834.804C672.324 834.432 668.855 828.042 667.801 826.379C663.792 820.063 659.175 813.695 655.74 807.07L655.008 806.157C653.302 803.946 647.619 795.67 647.942 793.25L650.069 793.026Z"/>
	<path fill="#F1D4A4" d="M716.305 793.419L721.91 793.517L747.995 834.575L738.571 834.89C736.931 831.042 734.372 827.403 732.014 823.964L700.25 823.274L700.25 822.755L701.25 823.078C703.971 822.207 707.899 822.684 710.765 822.658L730.748 822.508C727.036 815.652 722.466 807.55 717.359 801.645L716.305 793.419Z"/>
	<path fill="#F9C028" d="M650.069 793.026L716.305 793.419L717.359 801.645C710.332 802.454 702.836 801.995 695.749 802.008L655.918 802.162C653.437 800.218 651.301 795.941 650.069 793.026Z"/>
	<path fill="#4D4E87" d="M462.655 334.25L462.922 335.016C461.084 338.591 458.349 341.771 456.017 345.045L443.02 363.417L396.015 432.155L221.332 698.729L188.743 750.387C184.262 757.567 180.127 765.346 175.256 772.25C174.09 773.903 173.039 774.808 171.25 775.726C170.891 775.278 170.606 774.739 170.303 774.25C170.358 771.962 170.462 769.94 171.182 767.734L171.432 767C173.718 760.19 179.505 753.016 183.366 746.893L216.614 695.226L328.64 521.609L406.001 401.723L427.968 367.831C430.807 363.416 433.336 358.27 436.517 354.146C438.97 350.966 442.789 349.047 445.979 346.7L462.655 334.25Z"/>
	<path fill="#F6312A" d="M504.884 207.378L773.479 208.038L768.396 216.102L763.982 223.044L515.965 222.985L510.991 216.314L504.884 207.378Z"/>
	<path fill="#FB8937" d="M510.991 216.314L768.396 216.102L763.982 223.044L515.965 222.985L510.991 216.314Z"/>
	<path fill="#F9C028" d="M495.573 194.077C496.316 193.666 496.863 193.483 497.718 193.463L549.766 193.409L652.9 193.262L737.313 193.053L783.303 193.17L773.479 208.038L504.884 207.378L495.573 194.077Z"/>
	<path fill="#14CAC1" d="M336.353 744.859L312.304 783.76L253.954 784.01L304.091 708.987L357.273 708.468L344.25 729.048C341.61 733.179 336.211 739.935 336.353 744.859Z"/>
	<path fill="#C80F3A" d="M574.583 269.081L414.785 268.833L430.348 246.633L426.232 240.507L601.531 240.627L574.583 269.081Z"/>
	<path fill="#C80F3A" d="M508.151 797.396L508.409 797.453L523.813 816.551C526.755 820.203 529.824 824.95 533.332 828.005L530.097 829.241C526.071 828.257 519.966 829.016 515.683 829.013L478.827 828.969L362.313 827.958L343.295 797.552L508.151 797.396Z"/>
	<path fill="#4D4E87" d="M355.446 702.556C350.422 703.694 344.073 703.001 338.897 703.004L307.093 702.985L349.661 639.242L352.479 641.434C356.255 644.22 360.635 645.189 365.249 644.284C369.223 643.504 372.816 640.68 375.021 637.362C377.437 633.727 378.493 629.296 377.505 625C376.098 618.885 371.315 615.568 366.329 612.41C367.188 611.411 371.178 606.439 372.173 606.205C372.394 606.153 376.948 608.252 377.63 608.457C379.883 609.133 381.698 609.299 384.024 608.917C388.399 608.197 392.624 605.746 395.17 602.064C398.215 597.663 398.081 593.398 397.089 588.334L396.972 587.757C398.371 585.116 400.811 582.695 402.751 580.414C403.749 580.177 404.004 580.414 404.933 580.729C418.83 585.429 429.076 583.165 441.844 576.868C437.425 586.507 430.805 594.89 425.011 603.729C421.931 608.426 419.113 613.842 415.503 618.124L359.96 704.935C358.494 703.526 357.414 703.033 355.446 702.556Z"/>
	<path fill="#242260" d="M355.446 702.556L390.446 650L407.286 625.433C408.995 623.02 411.793 618.036 414.5 617.096L415.503 618.124L359.96 704.935C358.494 703.526 357.414 703.033 355.446 702.556Z"/>
	<path fill="#1D6384" d="M326.569 276.033C325.296 278.195 320.93 280.744 318.888 282.339L299.417 297.727L203.727 154.84C205.543 152.385 209.521 150.002 211.986 148.06L231.024 133.073C231.049 134.883 231.578 135.997 232.547 137.518L252.384 166.588L300.128 236.621L317.547 262C320.577 266.586 323.111 271.775 326.569 276.033Z"/>
	<path fill="#FEFDFE" d="M457.806 139.484L452.692 132.499L865.849 132.504C860.344 142.579 853.68 151.572 847.56 161.226L807.706 224.214L686.045 416.833L642.659 484.925L631.105 502.991C628.595 506.89 625.813 510.759 623.996 515.038L615.118 514.712C617.508 509.067 621.22 504.209 624.523 499.087L637.556 478.494L688.12 398.554L852.108 139.517L457.806 139.484Z"/>
	<path fill="#1D6384" d="M307.751 842.502L549.374 843.006L566.509 866.767L540.004 867.007L282.781 868.513L307.751 842.502Z"/>
	<path fill="#F9C028" d="M489.363 184.474L478.572 169.229L798.21 169.19L788.699 184.801L783.303 193.17L737.313 193.053L652.9 193.262L549.766 193.409L497.718 193.463C496.863 193.483 496.316 193.666 495.573 194.077C493.14 191.217 491.21 187.734 489.363 184.474Z"/>
	<path fill="#F6312A" d="M489.363 184.474L788.699 184.801L783.303 193.17L737.313 193.053L652.9 193.262L549.766 193.409L497.718 193.463C496.863 193.483 496.316 193.666 495.573 194.077C493.14 191.217 491.21 187.734 489.363 184.474Z"/>
	<path fill="#BBA1AC" d="M364.399 765.542C366.931 762.835 369.023 759.438 371.191 756.419L432.418 756.415L696.616 756.534C699.858 761.309 703.825 766.399 706.428 771.521L706.01 782.85L704.022 782.395L352.152 782.676C353.766 779.15 356.043 776.138 358.284 772.992C359.778 770.134 361.825 767.503 364.399 765.542Z"/>
	<defs>
		<linearGradient id="gradient_2" gradientUnits="userSpaceOnUse" x1="525.28833" y1="749.24286" x2="529.72803" y2="790.73688">
			<stop offset="0" stop-color="#77407E"/>
			<stop offset="1" stop-color="#855A8D"/>
		</linearGradient>
	</defs>
	<path fill="url(#gradient_2)" d="M364.399 765.542L692.569 765.014L697.38 773.422C693.886 775.701 595.739 774.211 583.229 774.14L358.284 772.992C359.778 770.134 361.825 767.503 364.399 765.542Z"/>
	<path fill="#FEFDFE" d="M364.399 765.542C366.931 762.835 369.023 759.438 371.191 756.419L432.418 756.415L696.616 756.534C699.858 761.309 703.825 766.399 706.428 771.521L706.01 782.85L704.022 782.395C702.237 779.262 699.54 776.341 697.38 773.422L692.569 765.014L364.399 765.542Z"/>
	<defs>
		<linearGradient id="gradient_3" gradientUnits="userSpaceOnUse" x1="722.46375" y1="790.11163" x2="853.00867" y2="723.14862">
			<stop offset="0" stop-color="#07C3B9"/>
			<stop offset="1" stop-color="#14E0E0"/>
		</linearGradient>
	</defs>
	<path fill="url(#gradient_3)" d="M828.455 842.167C829.296 842.066 829.666 841.841 830.396 841.439C830.598 839.899 830.434 839.265 829.642 837.915C827.8 834.778 825.484 831.797 823.482 828.748L805.567 802.275L759.831 734.483L695.572 734.518L685.091 719.672L731.103 650.369C733.632 649.904 736.704 650.213 739.299 650.215L756.328 650.226L818.566 650.246L776.973 716.706C781.303 725.173 786.74 733.027 791.882 741.015L815.862 778.072L844.473 822.081L865.887 854.408C861.112 853.577 856.892 851.553 852.227 850.473C849.838 849.92 847.428 850.167 845.038 849.467C842.521 847.514 839.457 847.613 836.5 846.928C833.318 846.19 830.201 845.01 828.455 842.167Z"/>
	<path fill="#030639" d="M739.504 667.48L786.083 667.359L756.75 712.106L755.125 712.312L710.224 712.285L739.504 667.48Z"/>
	<path fill="#F6312A" d="M755.663 675.773L770.282 675.482L758.004 694.796C756.288 697.284 754.346 700.627 751.966 702.467L750.5 703.401C747.218 702.775 743.778 703.185 740.454 703.26L725.735 703.51L737.243 684.969C739.121 681.866 740.551 678.531 742.878 675.722C747.079 676.157 751.441 675.85 755.663 675.773Z"/>
	<path fill="#14CAC1" d="M631.748 239.995L654.098 239.713L556.026 393.495L490.17 393.515L474.16 393.521C472.045 393.523 469.126 393.886 467.166 393.273L487.846 360.877C493.405 352.166 498.325 342.254 505.344 334.647C511.597 327.871 519.257 322.164 526.135 316.021C542.933 301.015 559.744 286.076 574.583 269.081L601.531 240.627C604.447 239.691 607.774 239.992 610.815 239.982L626.481 239.984L631.748 239.995Z"/>
	<path fill="#FEFDFE" d="M628.153 258.25L629.25 258.525C629.898 261.465 628.25 265.986 627.307 268.825C626.483 271.301 625.72 273.998 623.25 275.245L621.762 274.767C621.588 274.11 621.533 274.025 621.508 273.25C621.364 268.885 624.807 261.093 628.153 258.25Z"/>
	<path fill="#FEFDFE" d="M626.481 239.984L631.748 239.995L623.306 252.294C622.046 253.781 621.522 254.836 619.5 255.016L618.595 254.25C619.198 249.43 623.804 244.006 626.481 239.984Z"/>
	<path fill="#FEFDFE" d="M615.371 262.75L615.93 262.712C616.994 262.854 617.537 263.704 618.097 264.5C617.083 268.344 614.71 272.089 612.719 275.51L603.915 290.498L590.63 312.799C587.823 317.373 585.053 322.163 581.57 326.25C580.779 326.359 580.254 326.238 579.476 326.092L579.016 325.25C580.62 319.474 584.577 314.243 587.688 309.176L600.574 287.903C605.544 279.505 609.606 270.654 615.371 262.75Z"/>
	<path fill="#F6312A" d="M600.149 392.988L576.503 392.974L675.089 239.968L752.953 240.499L739.918 261.058L731.457 274.522L724.399 285.529L716.232 298.266L708.851 309.691L701.047 322.226C699.105 325.599 696.861 330.606 694.033 333.195L685.495 346.533L678.474 357.833L669.842 371.038L662.397 382.531L655.601 393.04L600.149 392.988Z"/>
	<path fill="#FB8937" d="M600.149 392.988L608.002 381.999L643.667 381.988C649.429 381.993 656.84 381.118 662.397 382.531L655.601 393.04L600.149 392.988Z"/>
	<path fill="#F9C028" d="M716.232 298.266L659.848 297.994L667.445 285.49L704.344 285.159C710.558 285.084 718.468 284.001 724.399 285.529L716.232 298.266Z"/>
	<path fill="#F9C028" d="M669.842 371.038L614.01 370.98L622.682 357.827C628.541 357.152 635.066 357.704 640.988 357.71L678.474 357.833L669.842 371.038Z"/>
	<path fill="#F9C028" d="M701.047 322.226L644.579 321.983L652.97 308.987L686.941 309.015C693.883 309.007 702.178 307.803 708.851 309.691L701.047 322.226Z"/>
	<path fill="#F9C028" d="M731.457 274.522L675.19 274.483L682.341 261.331C687.625 260.438 694.217 261.138 699.628 261.116L739.918 261.058L731.457 274.522Z"/>
	<path fill="#F9C028" d="M685.495 346.533L628.757 346.996L638.093 332.986L694.033 333.195L685.495 346.533Z"/>
	<defs>
		<linearGradient id="gradient_4" gradientUnits="userSpaceOnUse" x1="212.30272" y1="402.60172" x2="394.77017" y2="578.8009">
			<stop offset="0" stop-color="#055D76"/>
			<stop offset="1" stop-color="#514787"/>
		</linearGradient>
	</defs>
	<path fill="url(#gradient_4)" d="M535.66 293.31L514.364 312.562C507.929 318.155 500.734 323.433 495.363 330.114C490.016 336.764 486.173 344.29 481.776 351.564L463.333 381.345L412.051 460L335.319 575.326L200.176 782.482C193.541 783.359 186.784 782.817 180.132 782.628C176.979 782.539 173.291 782.841 170.25 782.041L170.081 780.75C172.369 779.513 176.302 779.858 178.892 779.833L196.684 779.725L297.683 623.766L365.015 520.915L431.694 421.693L448.956 395.709C456.146 385.007 463.326 374.457 468.083 362.402C465.829 364.814 463.99 368.093 462.061 370.794L445.387 395.231L401.918 459.729L362.553 518.031L263.992 667.949L219.517 736.084L194.6 773.833L178.656 774.507L214.477 717.072L271.321 628.508L320.902 552.879L358.596 494.762L391.481 446.715L448.556 363.428L465.434 338.513C467.979 334.693 470.13 330.309 473.037 326.771C476.339 322.753 481.169 319.892 485.34 316.833L504.086 303.038L305.652 304.525L320.062 292.823C324.098 294.564 351.899 293.477 357.845 293.472L449.18 293.453L507.216 293.118C516.598 293.129 526.324 292.637 535.66 293.31Z"/>
	<defs>
		<linearGradient id="gradient_5" gradientUnits="userSpaceOnUse" x1="263.2525" y1="700.92371" x2="529.63214" y2="392.17255">
			<stop offset="0" stop-color="#1E255E"/>
			<stop offset="1" stop-color="#645C95"/>
		</linearGradient>
	</defs>
	<path fill="url(#gradient_5)" d="M456.102 544.902C455.151 539.048 453.688 533.341 450.822 528.099C445.394 518.169 437.282 512.442 426.527 509.342C422.692 508.237 417.721 508.022 413.75 508.508C404.3 509.665 395.54 515.211 389.75 522.635C383.352 530.838 381.242 540.996 382.64 551.221C384.152 562.278 390.431 570.925 399.022 577.632L394.577 584.356L391.61 581.938C388.758 579.692 384.884 578.347 381.25 578.852C376.83 579.466 372.75 581.276 370.125 585.009C366.331 590.408 366.949 594.976 368.055 601.098C365.324 604.311 363.386 607.686 361.439 611.4L359.42 611.902C354.031 613.28 349.419 615.412 346.613 620.496C344.636 624.081 344.496 628.214 345.694 632.066L345.888 632.652C340.106 639.307 335.553 646.355 330.656 653.655L310.562 683.5C306.216 690.006 302.103 696.856 297.275 703.002L263.253 703.044L461.986 404.003L547.014 403.984L456.102 544.902Z"/>
	<path fill="#030639" d="M447.12 481.105C450.758 480.943 453.507 481.208 456.786 483.041C460.621 485.184 464.242 489.487 465.207 493.835C466.159 498.125 465.382 503.256 462.937 506.918C460.04 511.256 455.513 512.911 450.619 513.942C447.429 514.001 444.358 513.502 441.5 512.008C437.758 510.053 433.864 506.199 432.75 502.018C431.497 497.313 432.496 492.503 435.072 488.426C437.929 483.905 442.092 482.181 447.12 481.105Z"/>
	<path fill="#F6312A" d="M459.031 502.238C457.159 504.948 454.613 507.807 451.199 508.443C448.028 509.034 444.706 507.912 442.312 505.869C440.011 503.904 438.578 500.765 438.457 497.75C438.322 494.392 438.797 491.894 441.255 489.396C444.431 486.168 447.636 486.273 451.83 486.312C455.601 488.241 458.565 490.177 460.097 494.391C461.06 497.038 460.39 499.537 459.183 501.977L459.031 502.238Z"/>
	<path fill="#F9C028" d="M451.83 486.312C455.601 488.241 458.565 490.177 460.097 494.391C461.06 497.038 460.39 499.537 459.183 501.977L459.031 502.238L455.535 502.884C453.114 503.278 450.565 503.497 448.5 501.904C447.268 500.954 446.542 499.806 446.368 498.25C445.813 493.277 448.907 489.889 451.83 486.312Z"/>
	<path fill="#14CAC1" d="M680.459 746.5L448.571 746.001L587.463 522.972L608.954 522.985L618.687 523.02L520.608 678.993L513.319 688.609L526.477 688.483L535.368 689.026L641.623 688.084C649.23 696.964 655.176 707.28 661.461 717.106C664.466 721.805 667.807 726.15 670.506 731.055L677.205 741.257C678.271 742.861 679.815 744.711 680.459 746.5Z"/>
	<path fill="#93FEF9" d="M482.582 730.442L484.75 730.426C486.78 729.021 487.036 727.054 488.582 725.338L488.958 724.976L490.275 726.25L490.201 726.742C490 728.221 489.949 728.943 490.689 730.315L495.854 730.788L495.182 731.484C491.979 731.525 485.315 732.177 482.582 730.442Z"/>
	<path fill="#50FDF0" d="M488.958 724.976C505.055 726.148 521.493 725.07 537.636 724.962C542.584 724.929 548.566 724.221 553.415 724.906L559.802 725.25L559.933 730.5L559.25 731.194C557.503 731.178 555.64 731.03 553.934 731.419L552 731.56C546.303 732.118 540.614 731.706 534.899 731.62C521.723 731.421 508.334 730.804 495.182 731.484L495.854 730.788L490.689 730.315C489.949 728.943 490 728.221 490.201 726.742L490.275 726.25L488.958 724.976Z"/>
	<path fill="#FEFDFE" d="M608.954 522.985L618.687 523.02L520.608 678.993L513.319 688.609L512.896 689.142L499.127 709.569C495.766 714.569 491.796 719.682 488.958 724.976L488.582 725.338C487.036 727.054 486.78 729.021 484.75 730.426L482.582 730.442C482.449 725.133 524.518 659.185 529.93 650.419L608.954 522.985Z"/>
	<defs>
		<linearGradient id="gradient_6" gradientUnits="userSpaceOnUse" x1="598.59583" y1="688.8606" x2="598.45685" y2="731.12317">
			<stop offset="0" stop-color="#00B8B6"/>
			<stop offset="1" stop-color="#1FE9DD"/>
		</linearGradient>
	</defs>
	<path fill="url(#gradient_6)" d="M535.368 689.026L641.623 688.084C649.23 696.964 655.176 707.28 661.461 717.106C664.466 721.805 667.807 726.15 670.506 731.055C665.062 732.865 657.345 731.93 651.586 731.952L620.307 732.064C600.65 732.126 580.343 733.204 560.75 731.901L560 731.424L553.934 731.419C555.64 731.03 557.503 731.178 559.25 731.194L559.933 730.5L559.802 725.25L553.415 724.906C548.566 724.221 542.584 724.929 537.636 724.962C521.493 725.07 505.055 726.148 488.958 724.976C491.796 719.682 495.766 714.569 499.127 709.569L512.896 689.142L513.319 688.609L526.477 688.483L535.368 689.026Z"/>
	<path fill="#030639" d="M637.151 702.75C638.126 702.413 638.974 702.28 640 702.415C641.979 702.675 643.384 703.821 644.551 705.377C645.589 706.76 646.731 708.758 646.475 710.486L644.344 711.425C641.291 711.643 638.011 712.27 635.432 710.25C634.551 708.834 634.137 707.445 634.468 705.75C634.788 704.115 635.902 703.606 637.151 702.75Z"/>
	<path fill="#030639" d="M620.243 702.25C621.067 702.302 621.958 702.349 622.75 702.594C624.11 703.016 625.642 704.086 626.25 705.382C626.906 706.779 627.037 708.185 626.56 709.629C625.909 711.599 623.998 712.592 622.25 713.431C621.334 713.495 620.382 713.601 619.472 713.415C617.963 713.106 616.331 711.962 615.609 710.591C614.942 709.325 614.803 707.591 615.448 706.294C616.436 704.31 618.244 703.043 620.243 702.25Z"/>
	<path fill="#030639" d="M526.477 688.483L535.368 689.026C534.303 692.285 533.146 695.315 531.56 698.37C530.296 700.806 528.095 704.082 527.54 706.746C530.153 709.379 534.108 712.571 535.494 716.012L616.522 716.029L639.667 715.997C643.376 715.947 647.252 715.423 650.94 715.755C652.714 715.915 654.627 716.172 655.886 717.549C656.698 718.438 657.115 719.631 657.06 720.846C656.999 722.192 656.629 722.941 655.75 723.974C652.584 725.296 648.639 724.983 645.268 724.962L627.516 724.767L577.665 724.719C569.927 724.724 561.05 723.887 553.415 724.906C548.566 724.221 542.584 724.929 537.636 724.962C521.493 725.07 505.055 726.148 488.958 724.976C491.796 719.682 495.766 714.569 499.127 709.569L512.896 689.142L513.319 688.609L526.477 688.483Z"/>
	<path fill="#098694" d="M526.477 688.483L535.368 689.026C534.303 692.285 533.146 695.315 531.56 698.37C530.296 700.806 528.095 704.082 527.54 706.746C530.153 709.379 534.108 712.571 535.494 716.012L508.633 716.005L523.298 688.823L512.896 689.142L513.319 688.609L526.477 688.483Z"/>
	<path fill="#14CAC1" d="M457.806 139.484L852.108 139.517L688.12 398.554L637.556 478.494L624.523 499.087C621.22 504.209 617.508 509.067 615.118 514.712L591.298 515.004C593.71 509.845 597.18 505.027 600.249 500.233L613.11 479.77L660.519 404.685L814.439 162.127C810.256 160.685 803.782 161.997 799.304 162.01L760.75 161.95L472.616 161.582C470.971 159.622 469.693 157.406 468.348 155.236L457.806 139.484Z"/>
	<path fill="#1D6384" d="M468.348 155.236L742.35 155.069L798.618 155.034L812.619 155.027C814.571 155.027 817.093 154.728 818.934 155.268L814.439 162.127C810.256 160.685 803.782 161.997 799.304 162.01L760.75 161.95L472.616 161.582C470.971 159.622 469.693 157.406 468.348 155.236Z"/>
	<path fill="#F33956" d="M551.659 525.14L576.122 524.6L566.88 539.039L560.386 549.445L552.497 562.048L545.911 572.128L538.528 584.497L532.359 594.554L524.69 606.779L517.851 617.55L510.441 629.502L503.425 640.612L495.963 652.793C493.96 656.322 491.992 659.946 489.485 663.15L481.384 676.03L474.896 686.569L467.558 698.8L460.869 709.353C458.462 713.555 456.118 718.262 453.085 722.027L446.423 733.134L439.281 745.022L434.743 752.359C433.871 753.661 432.707 754.863 432.418 756.415L371.191 756.419C369.023 759.438 366.931 762.835 364.399 765.542C361.825 767.503 359.778 770.134 358.284 772.992C356.043 776.138 353.766 779.15 352.152 782.676C348.429 783.264 344.448 782.982 340.682 782.984L322.022 782.973L374.792 701.749L444.723 594.027L476.456 545.142L484.705 532.425C486.371 529.857 487.945 526.947 490.005 524.68L551.659 525.14Z"/>
	<path fill="#F1D4A4" d="M510.441 629.502L449.451 629.51L456.85 617.492L517.851 617.55L510.441 629.502Z"/>
	<path fill="#F1D4A4" d="M495.963 652.793L434.737 652.501L442.028 640.809C447.618 639.79 454.826 640.616 460.568 640.596L503.425 640.612L495.963 652.793Z"/>
	<path fill="#F1D4A4" d="M439.281 745.022L376.834 744.988L384.02 732.995L446.423 733.134L439.281 745.022Z"/>
	<path fill="#F1D4A4" d="M524.69 606.779L463.636 606.678C463.553 604.758 469.637 596.684 471.064 594.495L532.359 594.554L524.69 606.779Z"/>
	<path fill="#F1D4A4" d="M538.528 584.497L477.025 583.988L484.991 571.996L545.911 572.128L538.528 584.497Z"/>
	<path fill="#F1D4A4" d="M467.558 698.8L406.109 698.753C407.501 694.718 411.056 690.029 413.486 686.5L474.896 686.569L467.558 698.8Z"/>
	<path fill="#F1D4A4" d="M552.497 562.048L491.248 561.508L499.512 548.987L560.386 549.445L552.497 562.048Z"/>
	<path fill="#F1D4A4" d="M481.384 676.03L420.095 675.995L427.439 663.492L489.485 663.15L481.384 676.03Z"/>
	<path fill="#F1D4A4" d="M453.085 722.027L390.675 722.007L398.217 709.492L460.869 709.353C458.462 713.555 456.118 718.262 453.085 722.027Z"/>
	<path fill="#F1D4A4" d="M551.659 525.14L576.122 524.6L566.88 539.039L504.608 538.996L512.39 525.606C516.582 525.108 521.1 525.431 525.328 525.418L551.659 525.14Z"/>
</svg>
