<?xml version="1.0" encoding="utf-8" ?>
<svg xmlns="http://www.w3.org/2000/svg" xmlns:xlink="http://www.w3.org/1999/xlink" width="1024" height="1024">
	<path fill="#178988" d="M800.986 546.988C803.893 547.652 805.651 550.77 807.383 553.098L818.54 567.522L850.126 567.114L913.932 641.304L832.306 913.043L684.763 912.425L385.875 912.706C376.374 912.718 286.043 913.679 283.408 912.66C281.149 911.785 263.941 894.104 260.663 891.013L215.521 849.212C206.443 840.627 147.117 785.36 146.086 781.928L146.5 781.018C151.636 779.819 156.74 776.096 161.27 773.437C170.651 767.929 179.877 762.489 188.756 756.183C194.119 754.519 198.51 751.467 203.136 748.398C207.642 746.491 211.46 743.969 215.471 741.19C218.083 739.38 220.421 737.374 223.5 736.421L224.154 736.207C227.809 735.093 232.271 735.03 236.087 734.889L219.99 756.989L524.713 757.432L615.314 757.459L641.921 757.467C645.375 757.47 649.374 757.962 652.75 757.576C653.332 757.509 653.964 757.322 654.471 757.014L659.062 752.843L666.036 735.526L677.299 704.749L680.701 695.484L694.178 657.981L757.755 658.083L761.122 649.076L776.546 609.994C777.158 608.628 776.984 605.838 777.1 604.274L779.75 603.824L782.579 595.488C783.352 594.06 783.901 592.592 784.468 591.073C785.108 590.339 785.577 588.35 785.921 587.396L789.027 578.75C792.879 568.665 798.122 558.908 800.472 548.311L800.692 547.865L800.986 546.988Z"/>
	<path fill="#5C122E" d="M800.986 546.988C803.893 547.652 805.651 550.77 807.383 553.098L818.54 567.522L852.177 610.653L829.843 648.203L784.468 591.073C785.108 590.339 785.577 588.35 785.921 587.396L789.027 578.75C792.879 568.665 798.122 558.908 800.472 548.311L800.692 547.865L800.986 546.988Z"/>
	<path fill="#5C122E" d="M784.468 591.073L829.843 648.203L823.013 669.04L795.615 745.912L747.699 683.705L757.755 658.083L761.122 649.076L776.546 609.994C777.158 608.628 776.984 605.838 777.1 604.274L779.75 603.824L782.579 595.488C783.352 594.06 783.901 592.592 784.468 591.073Z"/>
	<path fill="#FE9F2B" d="M784.468 591.073L829.843 648.203L823.013 669.04L776.546 609.994C777.158 608.628 776.984 605.838 777.1 604.274L779.75 603.824L782.579 595.488C783.352 594.06 783.901 592.592 784.468 591.073Z"/>
	<path fill="#FC6461" d="M694.178 657.981L757.755 658.083L747.699 683.705L795.615 745.912L770.585 817.943L764.423 835.623C763.147 839.215 761.504 843.004 760.69 846.722L710.924 781.989L709.223 781.663C707.992 780.589 706.961 780.154 705.5 779.481L664.644 760.906C661.227 759.243 658.209 757.858 654.471 757.014L659.062 752.843L666.036 735.526L677.299 704.749L680.701 695.484L694.178 657.981Z"/>
	<path fill="#FFBF59" d="M680.701 695.484L744.342 695.255L740.457 703.954C737.82 703.936 735.793 704.659 733.363 705.542C730.641 704.459 727.72 704.659 724.845 704.65L712.475 704.789C700.89 704.986 688.836 705.685 677.299 704.749L680.701 695.484Z"/>
	<path fill="#FEE4A7" d="M733.363 705.542C735.793 704.659 737.82 703.936 740.457 703.954L730.936 727.899L717.738 764.302C715.667 769.917 713.935 776.92 710.924 781.989L709.223 781.663C707.992 780.589 706.961 780.154 705.5 779.481L664.644 760.906C661.227 759.243 658.209 757.858 654.471 757.014L659.062 752.843L666.036 735.526L677.299 704.749C688.836 705.685 700.89 704.986 712.475 704.789L724.845 704.65C727.72 704.659 730.641 704.459 733.363 705.542Z"/>
	<path fill="#5C122E" d="M666.036 735.526C669.114 734.347 672.24 733.477 675.267 732.129L726 708.465C727.475 707.811 730.203 705.952 731.68 705.75C732.113 705.691 732.55 705.834 732.985 705.877C726.016 709.096 719.879 713.597 713.508 717.833L682.98 738.109C675.25 743.248 667.469 748.877 659.062 752.843L666.036 735.526Z"/>
	<path fill="#FC6461" d="M677.299 704.749C688.836 705.685 700.89 704.986 712.475 704.789L724.845 704.65C727.72 704.659 730.641 704.459 733.363 705.542L732.985 705.877C732.55 705.834 732.113 705.691 731.68 705.75C730.203 705.952 727.475 707.811 726 708.465L675.267 732.129C672.24 733.477 669.114 734.347 666.036 735.526L677.299 704.749Z"/>
	<path fill="#FFBF59" d="M664.644 760.906L730.936 727.899L717.738 764.302C715.667 769.917 713.935 776.92 710.924 781.989L709.223 781.663C707.992 780.589 706.961 780.154 705.5 779.481L664.644 760.906Z"/>
	<path fill="#5C122E" d="M203.136 748.398C207.642 746.491 211.46 743.969 215.471 741.19C218.083 739.38 220.421 737.374 223.5 736.421L224.154 736.207C227.809 735.093 232.271 735.03 236.087 734.889L219.99 756.989L524.713 757.432L615.314 757.459L641.921 757.467C645.375 757.47 649.374 757.962 652.75 757.576C653.332 757.509 653.964 757.322 654.471 757.014C658.209 757.858 661.227 759.243 664.644 760.906L705.5 779.481C706.961 780.154 707.992 780.589 709.223 781.663L710.924 781.989L760.69 846.722C760.441 847.375 760.417 848.075 759.729 848.367C757.017 849.515 752.81 848.995 749.86 848.997L730.992 849.007L668.854 849.018L366.653 848.993L268.633 848.993L215.521 849.212C206.443 840.627 147.117 785.36 146.086 781.928L146.5 781.018C151.636 779.819 156.74 776.096 161.27 773.437C170.651 767.929 179.877 762.489 188.756 756.183C194.119 754.519 198.51 751.467 203.136 748.398Z"/>
	<path fill="#FE9F2B" d="M203.136 748.398C207.642 746.491 211.46 743.969 215.471 741.19C218.083 739.38 220.421 737.374 223.5 736.421L224.154 736.207C227.809 735.093 232.271 735.03 236.087 734.889L219.99 756.989L524.713 757.432L615.314 757.459L641.921 757.467C645.375 757.47 649.374 757.962 652.75 757.576C653.332 757.509 653.964 757.322 654.471 757.014C658.209 757.858 661.227 759.243 664.644 760.906L705.5 779.481C706.961 780.154 707.992 780.589 709.223 781.663L146.086 781.928L146.5 781.018C151.636 779.819 156.74 776.096 161.27 773.437C170.651 767.929 179.877 762.489 188.756 756.183C194.119 754.519 198.51 751.467 203.136 748.398Z"/>
	<path fill="#096E6E" d="M120.642 372.538C119.829 371.261 119.034 370.373 119.565 368.75C120.369 366.291 122.112 363.659 123.323 361.346C129.939 348.71 139.543 338.821 150.23 329.55C153.777 326.473 159.71 322.941 161.71 318.743C164.088 313.751 165.629 307.858 167.641 302.664L185.726 254.918L237.144 119.071L833.058 118.447C844.712 135.228 857.714 149.885 870.869 165.43L914.955 217.67L930.79 236.243C932.096 237.785 934.93 240.409 935.633 242.2C935.899 242.876 935.632 244.758 935.632 245.604L935.629 257.104L935.678 295.401C935.707 301.941 936.289 309.011 935.526 315.494L767.029 546.959L800.986 546.988L800.692 547.865L800.472 548.311C798.122 558.908 792.879 568.665 789.027 578.75L785.921 587.396C785.577 588.35 785.108 590.339 784.468 591.073C783.901 592.592 783.352 594.06 782.579 595.488L779.75 603.824L777.1 604.274C776.984 605.838 777.158 608.628 776.546 609.994L761.122 649.076L757.755 658.083L694.178 657.981L680.701 695.484L677.299 704.749L666.036 735.526L659.062 752.843L654.471 757.014C653.964 757.322 653.332 757.509 652.75 757.576C649.374 757.962 645.375 757.47 641.921 757.467L615.314 757.459L524.713 757.432L219.99 756.989L236.087 734.889C232.271 735.03 227.809 735.093 224.154 736.207L223.5 736.421C220.421 737.374 218.083 739.38 215.471 741.19C211.46 743.969 207.642 746.491 203.136 748.398C198.51 751.467 194.119 754.519 188.756 756.183C179.877 762.489 170.651 767.929 161.27 773.437C156.74 776.096 151.636 779.819 146.5 781.018C147.993 778.143 150.525 775.466 152.496 772.886L165.634 755.744L215.549 689.587L319.919 550.519L366.884 487.547C353.435 489.045 339.103 487.688 325.546 487.678L232.559 487.925C230.536 486.47 228.79 484.144 227.09 482.308L218.2 472.83L176.824 428.863L120.642 372.538Z"/>
	<path fill="#8ADBB7" d="M343.952 697.33L453.452 697.558C453.499 698.648 453.532 699.693 453.761 700.762L453.926 701.5L453.594 701.749C451.808 702.709 367.919 701.793 359.468 701.778L347.395 701.878C345.344 701.924 342.777 702.274 340.786 701.828L343.952 697.33Z"/>
	<path fill="#FC6461" d="M320.77 230.056L326.321 215.492C337.737 215.58 349.041 215.334 360.25 212.946C366.447 211.626 373.158 207.987 379.433 207.948C378.781 212.721 375.987 218.593 373.745 222.874C356.259 226.226 338.736 230.522 320.77 230.056Z"/>
	<path fill="#178988" d="M588.759 615.575C589.501 618.012 588.286 620.382 587.4 622.71L582.032 635.969L563.852 680.764C561.119 687.498 557.624 694.542 555.595 701.477L540.854 701.75C537.454 701.82 533.937 702.228 530.626 701.351L530.116 700.5L531.561 697.556C534.277 694.755 536.379 691.162 538.583 687.95L549.301 672.489L588.759 615.575Z"/>
	<path fill="#F93F4E" d="M320.77 230.056C338.736 230.522 356.259 226.226 373.745 222.874L352.632 276.015C347.933 274.177 340.517 275.307 335.445 275.328L304.063 275.388L320.77 230.056Z"/>
	<path fill="#8ADBB7" d="M575.773 714.502C579.819 700.769 585.651 687.144 590.562 673.674L620.315 592.36L629.005 568.54C629.714 566.644 630.672 562.602 632.008 561.217L644.359 581.301L586.05 744.601C585.801 745.327 585.657 745.604 585.066 746.073C583.789 743.533 583.287 740.176 582.446 737.432C580.134 729.89 577.388 722.222 575.773 714.502Z"/>
	<path fill="#F93F4E" d="M372.538 659.391L481.059 659.79L464.692 681.748C461.045 686.6 456.459 691.671 453.893 697.176L453.452 697.558L343.952 697.33L372.538 659.391Z"/>
	<path fill="#FEE4A7" d="M304.063 275.388L335.445 275.328C340.517 275.307 347.933 274.177 352.632 276.015L353.53 276.674C353.736 278.313 354.892 279.333 355.9 280.549C358.039 283.129 361.76 286.738 362.514 290.016C361.189 294.826 358.599 299.494 356.66 304.095L349.182 324.412L342.005 350.258L338.548 364.315C337.994 366.536 337.625 369.427 336.449 371.365L335.885 371.42L299.651 346.335L290.122 339.855C287.816 338.325 285.328 337.005 283.405 334.991L283.432 334.592C283.113 330.045 286.606 323.509 288.204 319.176L298.803 289.982L304.063 275.388Z"/>
	<path fill="#F93F4E" d="M304.063 275.388L335.445 275.328C340.517 275.307 347.933 274.177 352.632 276.015L353.53 276.674C353.736 278.313 354.892 279.333 355.9 280.549C358.039 283.129 361.76 286.738 362.514 290.016C361.101 290.024 359.449 289.869 358.102 290.26C335.098 308.085 310.601 323.942 283.432 334.592C283.113 330.045 286.606 323.509 288.204 319.176L298.803 289.982L304.063 275.388Z"/>
	<path fill="#FFBF59" d="M304.063 275.388L335.445 275.328C340.517 275.307 347.933 274.177 352.632 276.015L353.53 276.674C353.736 278.313 354.892 279.333 355.9 280.549C358.039 283.129 361.76 286.738 362.514 290.016C361.101 290.024 359.449 289.869 358.102 290.26C353.014 289.188 345.922 290.014 340.636 290.012L298.803 289.982L304.063 275.388Z"/>
	<path fill="#5C122E" d="M388.966 256.545L540.99 256.027L504.702 304.033L427.486 304.089C425.694 302.583 424.292 300.338 422.839 298.49L414.937 288.579L388.966 256.545Z"/>
	<path fill="#FE9F2B" d="M658.31 133.41L823.175 132.944C819.088 136.111 814.601 138.363 810.083 140.841L792.5 150.511L754.5 171.028C750.674 172.878 744.802 176.3 740.556 175.97L749.195 164.298C750.696 162.306 752.582 160.22 753.732 158.025C746.747 158.761 739.66 158.518 732.641 158.526L700.712 158.538L597.966 158.43L512.47 158.267L487.746 158.291C482.013 158.3 476.224 158.535 470.523 157.841C472.369 156.688 475.021 156.704 477.138 156.538L488.5 155.498L546.25 148.098L623.555 138.673L643.977 136.013C648.825 135.395 653.639 134.919 658.31 133.41Z"/>
	<path fill="#F93F4E" d="M416.176 601.959L524.109 602.261L487.048 651.702L481.059 659.79L372.538 659.391L378.359 651.715L416.176 601.959Z"/>
	<path fill="#FFBF59" d="M372.538 659.391L378.359 651.715L487.048 651.702L481.059 659.79L372.538 659.391Z"/>
	<path fill="#FE9F2B" d="M651.933 586.617L709.983 587.012L664.039 715.307L655.108 740.35C654.575 741.853 653.718 745.812 652.848 746.75C652.569 747.051 652.116 747.123 651.75 747.31L593.967 747.503L651.933 586.617Z"/>
	<path fill="#FC6461" d="M378.35 243.445L388.966 256.545L414.937 288.579L422.839 298.49C424.292 300.338 425.694 302.583 427.486 304.089L434.653 313.298C431.534 318.891 427.429 323.386 424.803 329.342L414.727 353.214L398.639 391.642C395.806 398.426 386.57 424.476 382.645 427.475C377.324 419.605 370.289 412.238 364.278 404.836L346.009 382.43C343.063 378.822 340.083 374.254 336.449 371.365C337.625 369.427 337.994 366.536 338.548 364.315L342.005 350.258L349.182 324.412L356.66 304.095C358.599 299.494 361.189 294.826 362.514 290.016C361.76 286.738 358.039 283.129 355.9 280.549C354.892 279.333 353.736 278.313 353.53 276.674C358.562 271.32 362.891 264.422 367.364 258.526C370.27 253.428 374.325 247.699 378.35 243.445Z"/>
	<path fill="#5C122E" d="M378.35 243.445L388.966 256.545L414.937 288.579L422.839 298.49C424.292 300.338 425.694 302.583 427.486 304.089L434.653 313.298C431.534 318.891 427.429 323.386 424.803 329.342L414.727 353.214L380.25 311.132C374.736 304.315 369.373 295.463 362.514 290.016C361.76 286.738 358.039 283.129 355.9 280.549C354.892 279.333 353.736 278.313 353.53 276.674C358.562 271.32 362.891 264.422 367.364 258.526C370.27 253.428 374.325 247.699 378.35 243.445Z"/>
	<path fill="#FE9F2B" d="M378.35 243.445L388.966 256.545L414.937 288.579L422.839 298.49C424.292 300.338 425.694 302.583 427.486 304.089L434.653 313.298C431.534 318.891 427.429 323.386 424.803 329.342L367.364 258.526C370.27 253.428 374.325 247.699 378.35 243.445Z"/>
	<path fill="#FEE4A7" d="M630.97 547.205L643.446 547.446L757.848 547.485L788.554 547.444C791.621 547.439 797.966 546.635 800.692 547.865L800.472 548.311C798.122 558.908 792.879 568.665 789.027 578.75L785.921 587.396C785.577 588.35 785.108 590.339 784.468 591.073C783.901 592.592 783.352 594.06 782.579 595.488L779.75 603.824L777.1 604.274C776.984 605.838 777.158 608.628 776.546 609.994L761.122 649.076L757.755 658.083L694.178 657.981L697.492 648.997L713.104 604.659L715.998 595.486L719.521 585.907L722.589 577.539L652.855 577.832L630.97 547.205Z"/>
	<path fill="#FC6461" d="M719.521 585.907L743.478 574.777L779.573 557.882L792.108 551.99C794.852 550.684 797.524 549.1 800.472 548.311C798.122 558.908 792.879 568.665 789.027 578.75L785.921 587.396C785.577 588.35 785.108 590.339 784.468 591.073C783.901 592.592 783.352 594.06 782.579 595.488L779.75 603.824L777.1 604.274L713.104 604.659L715.998 595.486L719.521 585.907Z"/>
	<path fill="#FFBF59" d="M715.998 595.486L782.579 595.488L779.75 603.824L777.1 604.274L713.104 604.659L715.998 595.486Z"/>
	<path fill="#F93F4E" d="M777.1 604.274C776.984 605.838 777.158 608.628 776.546 609.994L761.122 649.076L757.755 658.083L694.178 657.981L697.492 648.997L713.104 604.659L777.1 604.274Z"/>
	<path fill="#FFBF59" d="M697.492 648.997L761.122 649.076L757.755 658.083L694.178 657.981L697.492 648.997Z"/>
	<path fill="#FE9F2B" d="M272.779 167.487L334.469 167.492L293.332 279.526L279.912 316.177L277.014 323.866C276.766 324.477 276.402 325.834 276.013 326.25C275.679 326.609 275.171 326.754 274.75 327.005L213.357 326.998L272.779 167.487Z"/>
	<path fill="#8ADBB7" d="M188.756 756.183C191.263 752.394 194.992 749.493 198.024 746.126L217.637 722.624L240.747 691.663L294.721 620.231L451.74 410.248L582.23 236.218L392.264 235.985L400.951 215.482L623.014 215.483L243.935 718.774L241.75 719.653C236.897 721.612 232.852 724.966 228.604 727.961C220.278 733.829 210.344 740.431 203.492 747.996L203.136 748.398C198.51 751.467 194.119 754.519 188.756 756.183Z"/>
	<path fill="#178988" d="M427.486 304.089L504.702 304.033C501.036 310.804 495.46 316.899 490.772 323.017L463.384 358.948L403.498 439L366.884 487.547C353.435 489.045 339.103 487.688 325.546 487.678L232.559 487.925C230.536 486.47 228.79 484.144 227.09 482.308L218.2 472.83L176.824 428.863C180.566 428.347 184.464 428.567 188.241 428.555L207.296 428.448L345.062 428.499L370.035 428.578C372.969 428.615 378.662 429.384 381.25 428.435C381.78 428.241 382.18 427.795 382.645 427.475C386.57 424.476 395.806 398.426 398.639 391.642L414.727 353.214L424.803 329.342C427.429 323.386 431.534 318.891 434.653 313.298L427.486 304.089Z"/>
	<path fill="#5C122E" d="M182.69 328.996L202.868 329.055L200.892 336.173C209.47 335.283 217.916 335.585 226.516 335.618L261.772 335.671L275.406 335.681C277.972 335.674 281.046 336.056 283.405 334.991C285.328 337.005 287.816 338.325 290.122 339.855L299.651 346.335L335.885 371.42L336.449 371.365C340.083 374.254 343.063 378.822 346.009 382.43L364.278 404.836C370.289 412.238 377.324 419.605 382.645 427.475C382.18 427.795 381.78 428.241 381.25 428.435C378.662 429.384 372.969 428.615 370.035 428.578L345.062 428.499L207.296 428.448L188.241 428.555C184.464 428.567 180.566 428.347 176.824 428.863L120.642 372.538L122.849 371.423L125.028 370.105L156.727 348.754C165.738 342.755 175.2 336.894 182.69 328.996Z"/>
	<path fill="#FE9F2B" d="M182.69 328.996L202.868 329.055L200.892 336.173C209.47 335.283 217.916 335.585 226.516 335.618L261.772 335.671L275.406 335.681C277.972 335.674 281.046 336.056 283.405 334.991C285.328 337.005 287.816 338.325 290.122 339.855L299.651 346.335L335.885 371.42C322.83 372.26 309.218 371.496 296.088 371.495L214.868 371.499L158.069 371.681C146.411 371.771 134.457 372.57 122.849 371.423L125.028 370.105L156.727 348.754C165.738 342.755 175.2 336.894 182.69 328.996Z"/>
	<path fill="#FEE4A7" d="M182.69 328.996L202.868 329.055L200.892 336.173C187.172 343.675 172.785 349.641 158.646 356.28C149.472 360.587 139.836 366.221 130.244 369.334C128.45 369.916 126.911 370.153 125.028 370.105L156.727 348.754C165.738 342.755 175.2 336.894 182.69 328.996Z"/>
	<path fill="#F93F4E" d="M549.102 426.923L654.488 427.232L616.516 477.729L610.077 486.239L573.399 535.526L567.862 543.264L530.255 593.942L524.109 602.261L416.176 601.959L422.274 593.764L460.578 542.974L466.827 534.981L504.445 485.88L510.333 477.983L549.102 426.923Z"/>
	<path fill="#FE9F2B" d="M466.827 534.981C477.984 534.981 571.162 534.167 573.399 535.526L567.862 543.264L460.578 542.974L466.827 534.981Z"/>
	<path fill="#FE9F2B" d="M422.274 593.764L530.255 593.942L524.109 602.261L416.176 601.959L422.274 593.764Z"/>
	<path fill="#F93F4E" d="M466.827 534.981L504.445 485.88L610.077 486.239L573.399 535.526C571.162 534.167 477.984 534.981 466.827 534.981Z"/>
	<path fill="#F93F4E" d="M549.102 426.923L654.488 427.232L616.516 477.729L610.077 486.239L504.445 485.88L510.333 477.983L549.102 426.923Z"/>
	<path fill="#FFBF59" d="M510.333 477.983L585.868 477.795L605.578 477.653C609.145 477.595 613 477.196 616.516 477.729L610.077 486.239L504.445 485.88L510.333 477.983Z"/>
	<path fill="#FEE4A7" d="M379.433 207.948L379.5 206.994L329.372 206.754L339.61 179.104C341.057 175.155 342.102 170.969 343.997 167.21L734.694 167.487L319.036 714.217L575.773 714.502C577.388 722.222 580.134 729.89 582.446 737.432C583.287 740.176 583.789 743.533 585.066 746.073L584.652 746.894C582.398 747.885 577.633 747.296 575.041 747.298L549.692 747.293L439.344 747.102L234.321 747.257L640.721 206.815L394.346 206.49C392.859 211.76 390.215 217.131 388.058 222.181C385.001 229.336 382.138 236.644 378.35 243.445C374.325 247.699 370.27 253.428 367.364 258.526C362.891 264.422 358.562 271.32 353.53 276.674L352.632 276.015L373.745 222.874C375.987 218.593 378.781 212.721 379.433 207.948Z"/>
	<path fill="#5C122E" d="M823.175 132.944L826.041 132.267L826.232 132.855C830.069 145.475 824.136 159.974 820.183 171.867C819.906 172.701 818.713 175.276 818.804 175.907C819.045 177.587 823.109 182.039 824.298 183.561L850.561 215.589L856.727 222.824C857.702 223.961 858.948 224.914 859.265 226.384C858.958 234.899 858.493 243.356 856.899 251.75C855.778 257.654 853.885 263.431 852.109 269.164C851.66 271.636 850.706 273.627 849.262 275.67L813.102 323.174L743.669 414.882L676.824 503.331L643.446 547.446L630.97 547.205C630.48 547.315 629.949 547.311 629.5 547.536C626.777 548.897 614.378 569.462 611.868 573.441L588.759 615.575L549.301 672.489L538.583 687.95C536.379 691.162 534.277 694.755 531.561 697.556L453.893 697.176C456.459 691.671 461.045 686.6 464.692 681.748L481.059 659.79L487.048 651.702L524.109 602.261L530.255 593.942L567.862 543.264L573.399 535.526L610.077 486.239L616.516 477.729L654.488 427.232L549.102 426.923L554.739 419.247L591.642 371.166L596.952 363.863L634.574 313.884L640.504 306.015L678.161 255.833L684.573 247.935L723.995 196.888L729.713 189.522L740.556 175.97C744.802 176.3 750.674 172.878 754.5 171.028L792.5 150.511L810.083 140.841C814.601 138.363 819.088 136.111 823.175 132.944Z"/>
	<path fill="#F93F4E" d="M640.504 306.015L713.249 306.001L734.478 305.983C738.485 305.975 743.648 305.301 747.401 306.717C745.594 309.141 743.798 311.968 741.639 314.062C730.985 326.309 721.576 340.152 711.829 353.158L705.6 361.435C705.056 362.154 704.214 363.631 703.481 364.126L697.428 372.052L669.438 408.409L662.885 416.803C662.315 417.507 661.26 419.204 660.493 419.622C658.616 422.09 656.733 425.128 654.488 427.232L549.102 426.923L554.739 419.247L591.642 371.166L596.952 363.863L634.574 313.884L640.504 306.015Z"/>
	<path fill="#FFBF59" d="M596.952 363.863L667.412 363.994L690.89 363.971C695.076 363.944 699.331 363.48 703.481 364.126L697.428 372.052L629.46 372.019L605.75 371.558C600.962 371.483 596.441 371.681 591.642 371.166L596.952 363.863Z"/>
	<path fill="#FE9F2B" d="M640.504 306.015L713.249 306.001L734.478 305.983C738.485 305.975 743.648 305.301 747.401 306.717C745.594 309.141 743.798 311.968 741.639 314.062L634.574 313.884L640.504 306.015Z"/>
	<path fill="#F93F4E" d="M591.642 371.166C596.441 371.681 600.962 371.483 605.75 371.558L629.46 372.019L697.428 372.052L669.438 408.409L662.885 416.803C662.315 417.507 661.26 419.204 660.493 419.622C658.616 422.09 656.733 425.128 654.488 427.232L549.102 426.923L554.739 419.247L591.642 371.166Z"/>
	<path fill="#FFBF59" d="M554.739 419.247L660.493 419.622C658.616 422.09 656.733 425.128 654.488 427.232L549.102 426.923L554.739 419.247Z"/>
	<path fill="#F93F4E" d="M823.175 132.944L826.041 132.267L826.232 132.855C830.069 145.475 824.136 159.974 820.183 171.867C819.906 172.701 818.713 175.276 818.804 175.907C819.045 177.587 823.109 182.039 824.298 183.561L850.561 215.589L856.727 222.824C857.702 223.961 858.948 224.914 859.265 226.384C858.958 234.899 858.493 243.356 856.899 251.75C855.778 257.654 853.885 263.431 852.109 269.164L812.09 221.262L791.936 248.152L785.578 256.502L758.075 292.71L751.115 301.883C749.989 303.371 748.757 305.473 747.401 306.717C743.648 305.301 738.485 305.975 734.478 305.983L713.249 306.001L640.504 306.015L678.161 255.833L684.573 247.935L723.995 196.888L729.713 189.522L740.556 175.97C744.802 176.3 750.674 172.878 754.5 171.028L792.5 150.511L810.083 140.841C814.601 138.363 819.088 136.111 823.175 132.944Z"/>
	<path fill="#FFBF59" d="M729.713 189.522L817.964 189.306L816.853 197.505L751.908 197.033L733.34 197.043C730.367 197.051 726.874 197.485 723.995 196.888L729.713 189.522Z"/>
	<path fill="#F93F4E" d="M684.573 247.935L752.961 247.926L778.544 247.991C782.932 248.006 787.595 247.683 791.936 248.152L785.578 256.502L758.075 292.71L751.115 301.883C749.989 303.371 748.757 305.473 747.401 306.717C743.648 305.301 738.485 305.975 734.478 305.983L713.249 306.001L640.504 306.015L678.161 255.833L684.573 247.935Z"/>
	<path fill="#FE9F2B" d="M684.573 247.935L752.961 247.926L778.544 247.991C782.932 248.006 787.595 247.683 791.936 248.152L785.578 256.502L718.25 256.502C705.052 256.555 691.236 257.731 678.161 255.833L684.573 247.935Z"/>
	<defs>
		<linearGradient id="gradient_0" gradientUnits="userSpaceOnUse" x1="302.57034" y1="59.119022" x2="761.7901" y2="549.93884">
			<stop offset="0" stop-color="#087275"/>
			<stop offset="1" stop-color="#198E8A"/>
		</linearGradient>
	</defs>
	<path fill="url(#gradient_0)" d="M120.642 372.538C119.829 371.261 119.034 370.373 119.565 368.75C120.369 366.291 122.112 363.659 123.323 361.346C129.939 348.71 139.543 338.821 150.23 329.55C153.777 326.473 159.71 322.941 161.71 318.743C164.088 313.751 165.629 307.858 167.641 302.664L185.726 254.918L237.144 119.071L833.058 118.447C844.712 135.228 857.714 149.885 870.869 165.43L914.955 217.67L930.79 236.243C932.096 237.785 934.93 240.409 935.633 242.2C935.899 242.876 935.632 244.758 935.632 245.604L935.629 257.104L935.678 295.401C935.707 301.941 936.289 309.011 935.526 315.494L767.029 546.959L800.986 546.988L800.692 547.865C797.966 546.635 791.621 547.439 788.554 547.444L757.848 547.485L643.446 547.446L676.824 503.331L743.669 414.882L813.102 323.174L849.262 275.67C850.706 273.627 851.66 271.636 852.109 269.164C853.885 263.431 855.778 257.654 856.899 251.75C858.493 243.356 858.958 234.899 859.265 226.384C858.948 224.914 857.702 223.961 856.727 222.824L850.561 215.589L824.298 183.561C823.109 182.039 819.045 177.587 818.804 175.907C818.713 175.276 819.906 172.701 820.183 171.867C824.136 159.974 830.069 145.475 826.232 132.855L826.041 132.267L823.175 132.944L658.31 133.41C653.639 134.919 648.825 135.395 643.977 136.013L623.555 138.673L546.25 148.098L488.5 155.498L477.138 156.538C475.021 156.704 472.369 156.688 470.523 157.841L266.012 158.087L244.744 215.299L218.75 285.524L207.125 316.993C205.803 320.592 203.336 325.285 202.868 329.055L182.69 328.996C175.2 336.894 165.738 342.755 156.727 348.754L125.028 370.105L122.849 371.423L120.642 372.538Z"/>
	<path fill="#5C122E" d="M826.041 132.267C829.729 132.588 830.768 133.917 833.035 136.629L881.825 195.651L866.094 216.257C864.265 218.639 859.619 223.571 859.265 226.384C858.948 224.914 857.702 223.961 856.727 222.824L850.561 215.589L824.298 183.561C823.109 182.039 819.045 177.587 818.804 175.907C818.713 175.276 819.906 172.701 820.183 171.867C824.136 159.974 830.069 145.475 826.232 132.855L826.041 132.267Z"/>
	<path fill="#8ADBB7" d="M253.123 141.092C255.744 144.494 263.11 156.747 266.012 158.087L244.744 215.299L218.75 285.524L207.125 316.993C205.803 320.592 203.336 325.285 202.868 329.055L182.69 328.996C185.387 323.57 187.181 317.227 189.317 311.52L203.673 273.114L253.123 141.092Z"/>
	<path fill="#FEE4A7" d="M253.123 141.092L247.497 132.668C255.795 131.973 264.655 132.517 273.022 132.512L322.599 132.5L481.98 132.496L605.441 132.722L639.157 132.893C645.4 132.93 652.166 132.449 658.31 133.41C653.639 134.919 648.825 135.395 643.977 136.013L623.555 138.673L546.25 148.098L488.5 155.498L477.138 156.538C475.021 156.704 472.369 156.688 470.523 157.841L266.012 158.087C263.11 156.747 255.744 144.494 253.123 141.092Z"/>
</svg>
