<?xml version="1.0" encoding="utf-8" ?>
<svg xmlns="http://www.w3.org/2000/svg" xmlns:xlink="http://www.w3.org/1999/xlink" width="1024" height="1024">
	<path fill="#9E2F80" d="M-0 -0L1024 0L1024 1024L-0 1024L0 -0Z"/>
	<path fill="#F9ED5F" d="M890.114 524.75C890.722 524.787 890.864 524.752 891.5 525.033C892.813 525.612 893.909 527.022 894.562 528.25C894.102 530.076 892.69 531.045 891.345 532.25L890.281 532.383C888.851 531.178 887.963 530.142 887.066 528.5C887.768 526.878 888.841 525.945 890.114 524.75Z"/>
	<path fill="#F9ED5F" d="M129.377 411.75L129.606 411.701C131.272 411.459 132.362 411.363 133.75 412.562C135.144 413.765 134.972 414.857 134.971 416.5C134.192 418.068 133.758 418.513 132.25 419.404C131.023 419.569 129.676 419.654 128.63 418.845C127.233 417.766 126.965 416.915 126.686 415.25C127.323 413.457 127.826 412.839 129.377 411.75Z"/>
	<path fill="#F8C626" d="M720.914 494.25L722.023 494.074C723.391 494.444 724.273 494.915 725.29 495.93C726.014 496.654 727.021 498.085 726.864 499.156C726.53 501.438 724.405 503.016 722.75 504.399L721.694 504.786L720.723 503.944C718.721 502.18 717.318 501.035 717.14 498.25C718.208 496.503 719.277 495.47 720.914 494.25Z"/>
	<path fill="#F8C626" d="M863.072 269.75C863.908 269.695 864.156 269.504 864.866 270.006C866.896 271.44 868.509 272.734 868.923 275.25C867.811 277.378 866.575 278.639 864.75 280.182L863.453 280.25C861.174 278.708 859.785 277.056 858.159 274.898C859.642 273.023 861.362 271.412 863.072 269.75Z"/>
	<path fill="#F8C626" d="M861.245 545.75C861.816 545.541 862.102 545.402 862.75 545.337C864.199 545.191 865.781 545.873 866.75 546.921C867.919 548.184 868.18 549.839 867.921 551.5C867.648 553.249 866.402 554.314 865.026 555.25C864.543 555.397 863.781 555.683 863.25 555.647C861.847 555.55 860.317 554.802 859.376 553.75C857.922 552.125 858.052 551.31 858.086 549.25C858.969 547.568 859.689 546.827 861.245 545.75Z"/>
	<path fill="#F8C626" d="M247.124 493.75C248.177 493.563 249.145 493.587 250.171 493.904C251.61 494.348 253.122 495.767 253.7 497.161C254.444 498.957 254.116 501.002 253.454 502.75C252.111 504.257 251.187 504.934 249.25 505.527C248.246 505.583 247.215 505.615 246.25 505.269C244.738 504.725 243.372 503.183 242.716 501.754C242.046 500.295 242.087 498.528 242.746 497.064C243.587 495.192 245.311 494.394 247.124 493.75Z"/>
	<path fill="#F8C626" d="M287.054 445.04C288.721 444.861 290.831 444.712 292.444 445.216C294.326 445.805 296.126 447.472 296.955 449.254C297.89 451.264 297.74 454.437 296.982 456.5C295.996 459.188 294 460.452 291.52 461.632C290.219 461.694 288.783 461.744 287.5 461.525C285.403 461.166 283.401 459.46 282.366 457.662C281.22 455.671 280.868 453.471 281.487 451.25C282.33 448.228 284.48 446.59 287.054 445.04Z"/>
	<path fill="#F9B426" d="M177.077 538.25L177.696 538.311C179.108 539.842 179.39 543.96 179.961 546.123C181.534 552.08 184.72 554.723 190.521 556.479C192.955 557.215 195.534 557.676 197.75 558.952L197.75 559.681C194.94 561.377 191.022 561.154 187.913 562.239C180.982 564.659 180.396 573.493 177.993 579.177L176.912 579.25C174.956 575.757 175.22 571.467 172.918 567.933C170.752 564.609 167.525 562.715 163.75 561.765C161.117 561.102 157.378 561.206 155.661 559C156.785 557.371 162.554 556.877 164.775 556.217C170.231 554.594 173.404 551.426 174.822 545.95C175.509 543.297 175.762 540.71 177.077 538.25Z"/>
	<path fill="#F9B426" d="M760.69 447.592C763.464 447.489 765.923 447.664 768.492 448.816C771.518 450.171 774.126 452.914 775.247 456.041C776.543 459.657 776.036 463.694 774.297 467.071C772.285 470.977 769.129 472.827 765.022 474.012C762.22 474.104 759.772 474.008 757.215 472.732C753.751 471.003 751.408 467.937 750.25 464.288C749.178 460.911 749.483 457.196 751.259 454.099C753.365 450.425 756.734 448.667 760.69 447.592Z"/>
	<path fill="#F9B426" d="M823.738 331.25C824.651 333.71 824.459 336.649 824.714 339.25C825.474 346.997 827.205 355.296 831.718 361.78C841.322 375.578 855.245 377.32 870.494 380.138C860.015 382.067 849.102 384.112 840.045 390.065C827.537 398.285 826.554 410.078 823.75 423.442C823.059 421.859 823.186 419.853 822.907 418.136C821.826 411.469 820.303 404.486 816.491 398.788C807.368 385.148 790.917 383.42 776.204 380.447C786.241 379.118 797.358 377.903 805.976 372.146C815.866 365.539 820.053 355.916 821.998 344.471C822.746 340.068 822.875 335.637 823.738 331.25Z"/>
	<path fill="#FDFCDB" d="M823.593 358.561C828.033 363.203 830.958 368.511 835.968 372.823C839.616 375.963 844.45 377.739 847.882 380.829C839.262 385.217 829.326 390.062 824.941 399.272L824.724 399.75L824.349 400.647C824.15 400.604 823.907 400.648 823.75 400.518C822.625 399.584 821.231 396.381 820.325 395.025C815.667 388.056 808.46 383.784 800.767 380.859C811.248 375.097 817.953 369.388 823.593 358.561Z"/>
	<path fill="#F98934" d="M688.339 592.496L689.311 591.528C693.238 588.039 697.685 584.972 701.86 581.778L723.792 564.782L825.156 486.988L843.988 472.408C845.576 471.152 848.907 467.675 850.62 467.023C851.124 466.831 852.816 467.044 853.398 467.051L863.597 467.403L870.952 467.412L884.698 467.562L892.515 467.495C896.787 467.496 902.484 466.781 906.569 467.786L910.06 467.78L917.239 467.444L757.587 592.615L688.339 592.496Z"/>
	<path fill="#FDFCDB" d="M910.06 467.78C910.443 468.312 910.345 468.001 910.264 468.736L807.75 545.73L807.427 545.25L845.407 515.967L885.79 484.052C892.321 478.792 900.258 474.104 906.136 468.232L906.569 467.786L910.06 467.78Z"/>
	<path fill="#FDFCDB" d="M884.698 467.562L892.515 467.495L802.5 535.48L802.143 535.25L884.698 467.562Z"/>
	<path fill="#FDFCDB" d="M863.597 467.403L870.952 467.412L763.5 546.439L762.978 546.25L863.219 467.715L863.597 467.403Z"/>
	<path fill="#F7733E" d="M249.527 362.717L261.563 362.715C264.629 363.066 267.671 362.66 270.736 362.845L282.089 362.826L314.537 362.738C317.569 361.913 322.98 362.683 326.269 362.69L336.608 362.694L361.521 362.898L270.081 433.947L189.865 495.392L181.039 502.122C179.85 503.031 178.222 504.584 176.799 505.002C175.54 505.373 172.665 505.008 171.249 505.009L154.302 505.028L63.8908 505.037L122.209 461.931L148.577 441.938C150.963 440.168 154.553 436.78 157.203 435.796L249.527 362.717Z"/>
	<path fill="#F9ED5F" d="M172.027 463.75C174.138 463.523 174.122 463.618 175.79 464.711C176.559 466.188 177.109 466.791 176.659 468.557C176.327 469.859 175.277 470.462 174.25 471.16C172.822 471.513 172.642 471.333 171.25 470.784C169.933 469.13 169.69 468.829 169.448 466.75C170.189 465.017 170.558 464.826 172.027 463.75Z"/>
	<path fill="#F9ED5F" d="M336.658 363.057L349.362 362.92L250.25 442.634L250.25 442.099L318.501 378.775L327.289 371.382C328.281 370.578 329.96 369.559 330.614 368.501C332.752 366.779 334.834 365.125 336.658 363.057Z"/>
	<path fill="#F9ED5F" d="M270.736 362.845L282.089 362.826L282.761 363.2C282.496 363.646 282.414 363.824 282.02 364.25C279.632 366.837 276.427 369.042 273.664 371.245L258.001 383.627C247.769 391.649 165.884 455.75 161.39 455.75L270.736 362.845Z"/>
	<path fill="#F9ED5F" d="M314.537 362.738C317.569 361.913 322.98 362.683 326.269 362.69C325.773 364.66 322.088 367.415 320.527 368.868C319.144 369.17 315.969 372.312 314.748 373.299L294.174 389.925L273.255 406.25L216.5 450.435L215.792 450.25L314.537 362.738Z"/>
	<path fill="#F9ED5F" d="M249.527 362.717L261.563 362.715C258.751 366.848 253.842 369.983 249.882 372.986L231.978 386.421L177.01 426.94C171.524 430.865 166.193 435.812 160.25 438.982C159.888 438.46 159.996 438.77 160.028 438.023C159.244 437.085 159.113 436.781 158.03 436.29L157.203 435.796L249.527 362.717Z"/>
	<path fill="#F9ED5F" d="M293.278 363.05L305.634 363.029L187.953 454.955L180.072 460.029C181.496 457.67 185.093 455.597 187.25 453.858L200.989 442.322L249.136 400.514L293.278 363.05Z"/>
	<path fill="#050738" d="M249.527 362.717C247.291 362.664 232.681 362.76 232.304 362.082L118.854 190.301L195.656 130.164L216.862 113.354C218.86 111.775 222.498 108.093 224.882 107.361C226.582 106.84 230.552 107.335 232.445 107.329L258.289 107.314L373.666 107.56L723.36 107.888L840.953 107.777L909.351 107.886L909.743 108.117L560.069 658.793L574.227 658.637C575.827 658.615 578.248 658.887 579.76 658.493C581.33 658.084 583.661 655.877 585.004 654.904L598.276 645.293L656.743 604.157L668.592 595.738C669.793 594.885 671.734 593.101 673.047 592.608C673.847 592.308 676.292 592.628 677.229 592.633C680.926 592.652 684.651 592.783 688.339 592.496L757.587 592.615C763.404 593.194 769.475 592.935 775.32 592.928L803.293 592.878L894.379 592.602L814.106 717.384L921.38 886.127C913.029 886.38 864.225 885.226 860.662 887.104L792.862 923.364L783.147 928.557C781.914 929.258 780.06 930.725 778.762 931.131C777.501 931.525 774.512 931.121 773.115 931.118L755.36 931.099L657.944 931.003L222.026 931.01L128.561 790.098C130.196 784.925 134.229 779.829 137.221 775.274L151.443 753.698L187.832 697.677L321.495 492L405.867 363.032L361.521 362.898L336.608 362.694L326.269 362.69C322.98 362.683 317.569 361.913 314.537 362.738L282.089 362.826L270.736 362.845C267.671 362.66 264.629 363.066 261.563 362.715L249.527 362.717Z"/>
	<path fill="#D2E6EB" d="M706.875 772.365L713.871 783.013L705.83 782.8L706.875 772.365Z"/>
	<path fill="#EE242F" d="M293.482 189.75L293.881 189.658C295.55 189.484 297.085 189.207 298.404 190.25L298.331 206.928L293.19 198.699C292.089 196.808 292.911 191.85 293.482 189.75Z"/>
	<path fill="#D8FCFC" d="M359.186 706.067L360.722 707.471L335.785 746.04C335.484 742.337 339.085 736.989 340.99 733.806L357.114 708.623L359.186 706.067Z"/>
	<path fill="#F98934" d="M367.085 190.25C368.183 189.756 369.069 189.863 370.25 189.868C371.456 191.592 370.881 196.028 370.886 198.225C370.903 205.977 371.196 213.837 370.75 221.576C369.709 222.078 368.639 221.926 367.5 221.927C366.18 220.439 367.014 194.418 367.085 190.25Z"/>
	<path fill="#F98934" d="M356.759 190.25C358.206 190.011 359.296 189.811 360.75 190.206C361.501 194.002 360.961 198.757 360.96 202.648L360.94 214.633C360.931 216.971 361.179 219.488 360.527 221.75C358.997 221.823 357.691 222.299 356.514 221.25L356.759 190.25Z"/>
	<path fill="#F98934" d="M346.553 190.25C347.784 189.864 348.972 190 350.25 190.027L350.707 190.75L350.781 211.501C350.787 214.682 351.294 218.697 350.386 221.75C348.885 221.793 347.481 222.156 346.199 221.33L346.553 190.25Z"/>
	<path fill="#EE242F" d="M304.206 189.75L304.506 189.707C306.011 189.609 307.571 189.249 308.75 190.215L308.913 222.553C307.602 220.121 304.534 216.688 303.735 214.215C303.422 213.246 303.857 210.335 303.861 209.15C303.878 202.893 303.279 195.905 304.206 189.75Z"/>
	<path fill="#F53327" d="M576.155 867.067C580.247 870.812 582.31 876.564 586.687 880.006L564.725 880.553L576.155 867.067Z"/>
	<path fill="#F98934" d="M335.872 190.25C337.051 189.925 338.281 190.01 339.5 189.993L340.122 190.75L340.162 211.297C340.163 214.67 340.577 218.55 339.75 221.827C338.151 221.858 336.947 222.223 335.641 221.25L335.872 190.25Z"/>
	<path fill="#D8FCFC" d="M747.053 844.019L753.883 843.894L768.737 868.25C767.576 869.059 766.286 868.869 764.893 868.956L747.053 844.019Z"/>
	<path fill="#F53327" d="M315.074 190.06C316.474 189.864 317.535 189.69 318.925 190.111L319.197 190.653C319.63 192.117 319.318 194.607 319.337 196.211L319.338 213.397C319.333 215.579 319.783 218.933 319.317 221C319.237 221.356 318.939 221.625 318.75 221.938L315.25 221.973L314.557 221.25L314.586 199.11C314.594 196.456 314.062 192.515 315.074 190.06Z"/>
	<path fill="#F7733E" d="M315.074 190.06C316.474 189.864 317.535 189.69 318.925 190.111C318.971 192.561 319.291 195.287 318.631 197.66C317.296 197.902 316.528 197.675 315.25 197.329C314.753 194.964 315.003 192.464 315.074 190.06Z"/>
	<path fill="#F53327" d="M325.239 192.865C325.198 191.689 325.105 190.984 325.75 189.967L329.232 189.931L329.835 190.918L329.903 210.364C329.914 214.06 330.234 218.027 329.707 221.685C328.343 222.241 326.941 221.989 325.509 221.883C324.499 220.177 325.015 216.225 325.029 214.155L325.239 192.865Z"/>
	<path fill="#F7733E" d="M325.239 192.865C325.198 191.689 325.105 190.984 325.75 189.967L329.232 189.931L329.835 190.918C329.583 192.896 329.908 197.275 328.5 198.453L326.25 198.458C325.128 197.195 325.372 194.572 325.239 192.865Z"/>
	<path fill="#8E083E" d="M779.619 833.678L761.965 833.897L756.224 825.589L778.177 825.567L776.277 826.25C777.165 828.839 778.552 831.166 779.619 833.678Z"/>
	<path fill="#F7733E" d="M286.051 797.919L282.912 793.164L319.232 793.402L321.524 798.041L290.829 798.029L286.051 797.919Z"/>
	<path fill="#AE0536" d="M331.427 255.64C332.643 255.724 333.368 255.808 334.458 256.344C339.062 258.608 344.758 257.867 349.624 259.315L350.191 259.476C354.4 260.734 358.209 264.99 360.618 268.515L341.572 268.58C337.845 264.605 334.132 260.394 331.427 255.64Z"/>
	<path fill="#F9ED5F" d="M509.109 791.635L510.877 791.75C518.873 801.532 525.935 812.309 533.288 822.59C535.502 825.687 539.663 829.984 540.855 833.418L538.5 833.031L533.246 828.105L532.649 827.708L508.067 797.42C508.513 795.476 508.925 793.628 509.109 791.635Z"/>
	<path fill="#EE242F" d="M709.407 752.582L703.082 743.974L724.774 744.002L734.389 744.03L736.86 752.074L730.839 752.493L730.658 752.389L709.407 752.582Z"/>
	<path fill="#F98934" d="M724.774 744.002L734.389 744.03L736.86 752.074L730.839 752.493L730.658 752.389L724.774 744.002Z"/>
	<path fill="#AE0536" d="M257.34 142.371C255.196 141.387 251.442 133.782 250.167 131.589L281.196 131.919L274.696 132.241L283.156 142.036L257.34 142.371Z"/>
	<path fill="#FCFBFB" d="M319.232 793.402L325.71 793.497L351.867 833.994L345.178 834.031C343.962 831.391 342.388 829.014 340.813 826.581L321.524 798.041L319.232 793.402Z"/>
	<path fill="#EE242F" d="M390.603 598.93C388.76 601.189 386.716 602.822 383.799 603.338C381.259 603.787 378.714 602.837 376.704 601.295C374.918 599.925 373.509 597.538 373.198 595.316C372.847 592.818 373.423 589.773 374.984 587.75C376.745 585.468 379.325 583.857 382.25 583.646C385.293 583.428 387.529 585.144 389.666 587.046C391.403 589.816 392.682 592.509 391.794 595.858L390.672 598.644L390.603 598.93Z"/>
	<path fill="#F9B426" d="M389.666 587.046C391.403 589.816 392.682 592.509 391.794 595.858L390.672 598.644L390.603 598.93C387.811 598.881 383.701 599.231 381.381 597.442C380.239 596.561 379.457 595.378 379.385 593.9C379.294 592.029 379.954 590.593 381.217 589.243C383.122 587.207 387.079 587.266 389.666 587.046Z"/>
	<path fill="#0A8693" d="M422.372 516.682C431.772 519.037 438.755 522.477 444 531C446.39 534.884 448.412 539.863 448.549 544.477L448.353 548.97C446.663 549.813 441.518 548.679 439.359 548.478C439.892 543.97 439.173 540.569 437.076 536.5C433.997 530.526 427.844 526.804 421.657 524.787C421.633 522.671 420.984 518.108 422.372 516.682Z"/>
	<path fill="#F53327" d="M584.963 792.391L590.513 792.449C594.394 797.539 598.074 802.654 601.439 808.109L625.515 848.439C627.14 851.154 629.254 856.574 631.459 858.401L627.406 859.835L584.963 792.391Z"/>
	<path fill="#F53327" d="M615.811 792.501L620.98 792.614C621.992 795.318 624.121 797.651 625.756 800.029L633.238 811.631C643.225 827.29 652.436 843.409 663.239 858.543C662.277 858.7 661.437 858.83 660.469 858.863C659.596 858.893 658.94 859.305 658.175 859.682L622.411 804.337C620.502 800.268 617.635 796.656 615.811 792.501Z"/>
	<path fill="#620C46" d="M675.592 639.25L676.326 639.268C677.176 640.105 677.613 640.612 677.991 641.75C677.264 644.265 675.01 646.849 673.478 648.958L656.243 670.884L652.344 666.673C650.082 664.392 646.623 661.66 645.013 658.95L675.592 639.25Z"/>
	<path fill="#EE242F" d="M370.966 634.314C369.887 635.626 368.434 637.143 366.983 638.019C364.583 639.469 361.398 639.634 358.782 638.755C356.121 637.86 353.966 635.763 352.734 633.267C351.296 630.356 351.034 626.63 352.27 623.599C353.362 620.92 355.586 618.766 358.312 617.774C361.547 616.597 365.098 617.554 368.066 618.948C370.586 621.06 372.458 622.839 372.889 626.25C373.257 629.157 372.531 631.868 370.966 634.314Z"/>
	<path fill="#F9B426" d="M368.066 618.948C370.586 621.06 372.458 622.839 372.889 626.25C373.257 629.157 372.531 631.868 370.966 634.314C368.521 634.288 364.822 634.364 362.664 633.163C361.046 632.262 359.203 630.542 358.776 628.679C358.375 626.928 359.153 625.088 360.064 623.625C361.931 620.626 364.817 619.767 368.066 618.948Z"/>
	<path fill="#8E083E" d="M646.136 893.606L660.828 893.433L638.82 921.589L625.768 921.81L646.136 893.606Z"/>
	<path fill="#F23956" d="M286.051 797.919L290.829 798.029L310.502 826.998L329.724 826.975C333.391 826.965 337.186 827.191 340.813 826.581C342.388 829.014 343.962 831.391 345.178 834.031L310.545 833.965L286.051 797.919Z"/>
	<path fill="#07708A" d="M749.589 899.75L788.881 899.853C787.351 900.967 783.982 903.84 782.283 904.17C781.2 904.38 778.925 903.86 777.75 903.784L767.641 903.476L713.493 903.173C707.662 903.261 673.263 904.304 671.274 903C671.706 902.027 672.071 901.003 672.852 900.252C673.314 899.807 739.997 899.774 749.589 899.75Z"/>
	<path fill="#07708A" d="M771.27 912.25L771.874 912.574L771.518 913.25C771.086 913.814 767.734 916.277 767.089 916.452C765.564 916.868 762.41 916.458 760.731 916.46L743.354 916.481L659.96 916.531C660.889 915.085 662.423 913.76 663.607 912.497L771.27 912.25Z"/>
	<path fill="#C80F3A" d="M362.278 184.876L284.157 185.209L277.092 172.623C280.198 171.98 284.205 172.437 287.448 172.432L311.14 172.402C312.288 176.582 314.545 180.197 315.894 184.313L346.455 184.386C351.35 184.404 357.566 183.729 362.278 184.876Z"/>
	<path fill="#4D4E86" d="M665.911 625.75L667.204 625.586L672.608 633.382L639.989 656.558C638.983 657.421 631.654 656.986 629.875 657.006C628.848 657.013 624.8 657.353 624.227 656.809L665.911 625.75Z"/>
	<path fill="#FCFBFB" d="M230.487 133.527L231.5 132.689C233.542 133.931 235.485 137.45 236.892 139.459L259.16 172.735L296.713 227.405L316.968 256.964L324.331 267.936C325.623 269.932 327.211 272.01 327.992 274.25L326.356 276.506C315.081 257.44 301.591 239.238 288.946 221.036L244.452 155.238L235.177 141.597C233.585 139.257 230.956 136.321 230.487 133.527Z"/>
	<path fill="#AE0536" d="M356.602 240.999L321.901 240.765L312.978 227.669L376.582 227.532L376 227.803C374.118 228.609 370.068 228.121 367.953 228.126L346.709 228.158L356.602 240.999Z"/>
	<path fill="#0A8693" d="M263.69 890.25C267.104 889.25 272.83 890.026 276.441 890.04L309.766 890.135L456.556 890.302L504.782 890.291L519.495 890.257C521.43 890.255 523.935 889.895 525.652 890.75L524.933 891.75L523.25 891.961L262 892.406L261.849 891.964L263.69 890.25Z"/>
	<path fill="#AE0536" d="M410.168 250.35L327.521 250.162L323.518 244.345L412.072 244.54L410.078 245.257C410.051 247.791 409.955 248.592 411.147 250.782L410.168 250.35Z"/>
	<path fill="#F23956" d="M410.168 250.35C407.039 249.462 402.868 249.941 399.561 249.927L378.592 249.755C378.827 249.109 379.021 248.613 378.98 247.912L378.75 245.4C381.946 244.567 386.198 245.073 389.513 245.067C396.322 245.056 403.289 244.751 410.078 245.257C410.051 247.791 409.955 248.592 411.147 250.782L410.168 250.35Z"/>
	<path fill="#F98934" d="M330.746 132.017L346.774 132.041C350.714 136.663 353.878 141.915 357.279 146.936C361.929 153.799 366.827 160.687 370.899 167.908L359.954 167.88C357.677 166.481 355.172 162.247 353.365 160.045L339.676 143.934C341.481 143.95 346.916 144.483 348.115 143.5L347.791 143.164C345.721 141.508 341.791 142.022 339.283 142.063L338.325 142.178L330.746 132.017Z"/>
	<path fill="#F23956" d="M281.196 131.919L330.746 132.017L338.325 142.178L283.156 142.036L274.696 132.241L281.196 131.919Z"/>
	<path fill="#07708A" d="M684.919 886.013L812.759 886.083L806.778 889.501C805.722 890.081 804.964 890.441 803.75 890.535C799.884 890.836 795.783 890.544 791.892 890.54L768.702 890.524L682.233 890.821L684.919 886.013Z"/>
	<path fill="#F53327" d="M573.516 863.64L522.032 791.99L532.45 792.18C532.839 795.128 535.832 798.594 537.49 801.04L544.892 812.34L575.71 858.134L587.787 858.14C589.651 858.133 591.702 858.43 593.404 857.58C594.721 859.562 596.032 861.451 596.962 863.654C589.49 862.471 581.076 863.307 573.516 863.64Z"/>
	<path fill="#0A8693" d="M271.612 880.75L272.341 880.484C275.698 879.765 280.365 880.37 283.881 880.381L312.68 880.483L426.654 880.831C438.818 880.883 532.101 880.264 534.333 881.597C533.817 882.907 533.454 882.77 532.25 883.389L349.94 883.103L290.919 883.457L276.36 883.579C274.237 883.6 271.566 883.989 269.609 883.25L271.612 880.75Z"/>
	<path fill="#F23956" d="M311.14 172.402L346.643 172.321C351.631 172.309 357.487 171.663 362.361 172.394C366.018 176.266 369.884 181.449 374.048 184.645L362.278 184.876C357.566 183.729 351.35 184.404 346.455 184.386L315.894 184.313C314.545 180.197 312.288 176.582 311.14 172.402Z"/>
	<path fill="#D2E6EB" d="M258.131 794.604L274.071 794.59L301.716 836.107L291.632 846.16C288.494 840.393 284.442 834.997 280.75 829.575L266.061 807.476C263.495 803.6 259.632 798.915 258.131 794.604Z"/>
	<path fill="#F8C626" d="M734.389 744.03L754.518 743.929C759.203 750.283 763.03 757.244 767.594 763.695L788.404 793.455C791.338 797.758 794.966 802.261 797.288 806.888L809.709 825.755C808.338 826.804 807.499 827.855 805.75 827.954L793.668 810.696C793.164 810.377 792.214 808.7 791.823 808.152L785.864 799.886L762.898 770.478C758.457 764.397 754.539 757.938 749.869 752.027L737.343 752.425L736.981 752.308L736.86 752.074L734.389 744.03Z"/>
	<path fill="#F98934" d="M362.361 172.394L374.455 172.471L423.429 247.39L408.388 268.686L402.47 268.56C405.524 264.353 410.447 258.97 412.039 254.074C412.626 252.981 412.502 252.919 412.448 251.75L411.147 250.782C409.955 248.592 410.051 247.791 410.078 245.257L412.072 244.54C412.494 243.818 412.271 243.148 412.228 242.329C408.524 234.764 403.068 227.718 398.35 220.755L383.029 196.823C381.011 193.562 377.917 189.703 376.787 186.093C375.819 184.929 375.547 185.003 374.048 184.645C369.884 181.449 366.018 176.266 362.361 172.394Z"/>
	<path fill="#FCFBFB" d="M335.433 280.643C336.36 279.958 337.851 278.532 338.865 278.105C340.27 277.515 345.937 278.114 347.739 278.116L384.024 278.143L552.795 278.015L548.597 281.558L402.956 281.971L357.192 281.856C351.076 281.8 344.034 282.316 338 281.451C337.078 281.318 336.271 281.032 335.433 280.643Z"/>
	<path fill="#EE242F" d="M331.427 255.64L330.5 254.5C332.473 253.293 345.913 254.058 348.992 254.062L412.039 254.074C410.447 258.97 405.524 264.353 402.47 268.56L360.618 268.515C358.209 264.99 354.4 260.734 350.191 259.476L349.624 259.315C344.758 257.867 339.062 258.608 334.458 256.344C333.368 255.808 332.643 255.724 331.427 255.64Z"/>
	<path fill="#07708A" d="M269.304 338.079L421.686 337.963L414.75 342.93C414.148 343.322 413.681 343.536 412.951 343.56L360.303 343.568L262.869 343.899L269.304 338.079Z"/>
	<path fill="#C80F3A" d="M290.829 798.029L321.524 798.041L340.813 826.581C337.186 827.191 333.391 826.965 329.724 826.975L310.502 826.998L290.829 798.029Z"/>
	<path fill="#07708A" d="M255.544 899.127L518.112 898.925L515.03 901.75C514.755 901.964 514.541 902.301 514.205 902.391C513.006 902.714 510.8 902.487 509.521 902.507L498.531 902.521L454.012 902.5L252.454 902.607L255.544 899.127Z"/>
	<path fill="#53D6DA" d="M291.632 846.16L281.944 856.215L242.208 794.589L258.131 794.604C259.632 798.915 263.495 803.6 266.061 807.476L280.75 829.575C284.442 834.997 288.494 840.393 291.632 846.16Z"/>
	<path fill="#FCFBFB" d="M552.927 403.874C554.249 403.751 555.142 403.58 556.431 404.005C555.997 406.246 553.812 408.726 552.552 410.647L543.535 424.501L506.013 482.823L481.418 520.953L455.77 559.543L435.147 592.116L411.204 628.807L377.925 680.45L367.827 696.426C365.565 700.101 363.414 704.113 360.722 707.471L359.186 706.067L360.087 704.33L414.949 618.596C415.997 617.908 417.013 615.732 417.709 614.654L425.373 602.727C430.75 594.303 437.726 585.75 441.914 576.673C447.273 570.063 453.531 562.717 456.384 554.604L552.927 403.874Z"/>
	<path fill="#07708A" d="M219.636 795.044L233.508 795.037L276.032 861.685L271.924 865.443L268.168 869.65L219.636 795.044Z"/>
	<path fill="#07708A" d="M200.932 795.07L212.148 795.053L245.849 847.858C251.441 856.472 256.742 866.152 263.208 874.087L263.636 874.606L259.896 878.428L256.629 882.198L200.932 795.07Z"/>
	<path fill="#07708A" d="M259.575 708.819L293.732 708.93L274.591 738.276L267.665 749.741L250.503 722.737L259.575 708.819Z"/>
	<defs>
		<linearGradient id="gradient_0" gradientUnits="userSpaceOnUse" x1="402.78821" y1="830.18451" x2="440.96338" y2="757.89221">
			<stop offset="0" stop-color="#FFAF73"/>
			<stop offset="1" stop-color="#FFD195"/>
		</linearGradient>
	</defs>
	<path fill="url(#gradient_0)" d="M338.533 797.549C337.244 796.104 336.308 794.234 335.315 792.574L509.109 791.635C508.925 793.628 508.513 795.476 508.067 797.42L412.655 797.597L338.533 797.549Z"/>
	<path fill="#235C7F" d="M189.929 165.25L190.965 165.07C192.532 165.974 193.673 168.29 194.698 169.805L202.916 182.283L235.426 231.67L267.146 279.365L286.51 308.576L283.25 311.111L282.306 311.216L187.127 167.296L189.929 165.25Z"/>
	<path fill="#07708A" d="M289.815 320.209L439.604 320.05C437.433 322.274 434.765 326.059 431.75 326.534L282.858 326.908L289.815 320.209Z"/>
	<path fill="#235C7F" d="M152.728 193.384C157.028 198.044 160.709 204.377 164.194 209.693L185.55 242.9L216.601 290.816L247.978 339.435L244.161 343.24L148.557 196.248L152.728 193.384Z"/>
	<path fill="#235C7F" d="M448.549 544.477C448.793 545.636 449.025 547.069 448.923 548.25C448.242 556.11 442.732 564.426 436.681 569.288C430.357 574.368 422.378 575.591 414.514 574.652C407.304 573.792 401.507 570.067 397.132 564.391C391.657 557.289 389.403 548.622 390.73 539.766C391.721 533.152 395.479 526.679 400.893 522.75C406.532 518.658 415.321 515.568 422.372 516.682C420.984 518.108 421.633 522.671 421.657 524.787C414.032 525.227 408.073 527.381 402.946 533.299C400.004 536.695 398.257 542.069 398.59 546.559C399.086 553.252 401.893 558.467 407.071 562.667C411.091 565.927 416.368 567.389 421.492 566.849C427.258 566.24 432.181 563.119 435.588 558.5C437.638 555.72 438.799 551.844 439.359 548.478C441.518 548.679 446.663 549.813 448.353 548.97L448.549 544.477Z"/>
	<path fill="#25215E" d="M547.051 403.95L552.927 403.874L456.384 554.604C455.804 551.467 456.066 548.127 456.117 544.94C468.167 530.32 476.344 513.143 486.075 497L530.118 429.5C535.773 421.103 540.922 411.947 547.051 403.95Z"/>
	<path fill="#07708A" d="M245.344 910.79L507.784 911.389L504.179 914.999L241.226 914.727L245.344 910.79Z"/>
	<path fill="#235C7F" d="M177.881 173.75L179.292 173.697L274.002 317.861C273.419 319.155 271.344 320.511 270.25 321.456L269.448 321.611L174.052 176.139L177.881 173.75Z"/>
	<path fill="#235C7F" d="M165.69 183.25L166.706 183.152L261.255 328.809C259.804 329.947 258.559 331.416 257.288 332.75C254.99 331.596 242.237 310.312 239.84 306.653L185.754 223.788L161.518 186.7L165.69 183.25Z"/>
	<path fill="#4D4E86" d="M642.922 405.175C644.419 405.126 646.01 404.89 647.41 405.506C647.324 408.947 585.971 502.741 578.25 514.826L575.125 514.972L570 514.895L569.529 514.25L630.141 418.665C633.269 413.822 636.928 406.457 642.922 405.175Z"/>
	<path fill="#07708A" d="M181.649 795.074L192.487 795.057L252.274 887.385L248.54 891.191L245.763 894.432L181.649 795.074Z"/>
	<defs>
		<linearGradient id="gradient_1" gradientUnits="userSpaceOnUse" x1="576.67395" y1="916.44464" x2="621.41711" y2="864.63403">
			<stop offset="0" stop-color="#DD0132"/>
			<stop offset="1" stop-color="#FF1C4B"/>
		</linearGradient>
	</defs>
	<path fill="url(#gradient_1)" d="M551.003 896.391L560.082 886.135C560.422 885.805 561.573 884.597 561.976 884.505C563.618 884.129 566.39 884.504 568.129 884.503L584.354 884.475L647.526 884.038L639.526 894.571L614.779 895.4C609.153 895.666 602.057 895.718 596.703 897.39C593.166 897.892 588.983 897.482 585.384 897.495L559.09 897.56C556.002 897.052 553.997 897.954 551.003 896.391Z"/>
	<path fill="#07708A" d="M162.451 795.112L173.005 795.115L241.082 899.699L237.511 903.305L234.5 906.867L162.451 795.112Z"/>
	<path fill="#F23956" d="M338.533 797.549L412.655 797.597L343.956 797.903C348.555 804.347 352.399 811.382 356.486 818.162C358.497 821.499 360.36 825.026 362.924 827.977L531.947 828.478L532.649 827.708L533.246 828.105L538.5 833.031L540.855 833.418C537.827 834.906 530.607 833.947 527.068 833.928L361.814 833.997L338.533 797.549Z"/>
	<path fill="#F98934" d="M533.246 828.105L538.5 833.031L540.855 833.418C537.827 834.906 530.607 833.947 527.068 833.928C525.055 833.708 522.632 833.716 520.75 833L529.5 833C530.487 831.945 530.195 830.902 530.25 829.5L522.201 829.307C524.987 829.242 531.394 829.885 533.246 828.105Z"/>
	<path fill="#07708A" d="M141.696 794.522L152.497 794.508L230.001 912.133L226.938 915.352L224.236 918.795L141.696 794.522Z"/>
	<path fill="#F53327" d="M376.787 186.093C377.917 189.703 381.011 193.562 383.029 196.823L398.35 220.755C403.068 227.718 408.524 234.764 412.228 242.329C407.412 240.317 398.559 241.291 393.167 241.245L356.602 240.999L346.709 228.158L367.953 228.126C370.068 228.121 374.118 228.609 376 227.803L376.582 227.532C377.574 224.804 376.808 219.339 376.773 216.35C376.653 206.357 376.063 196.054 376.787 186.093Z"/>
	<path fill="#F8C626" d="M532.45 792.18L551.934 792.328L593.404 857.58C591.702 858.43 589.651 858.133 587.787 858.14L575.71 858.134L544.892 812.34L537.49 801.04C535.832 798.594 532.839 795.128 532.45 792.18Z"/>
	<path fill="#050738" d="M421.657 524.787C427.844 526.804 433.997 530.526 437.076 536.5C439.173 540.569 439.892 543.97 439.359 548.478C438.799 551.844 437.638 555.72 435.588 558.5C432.181 563.119 427.258 566.24 421.492 566.849C416.368 567.389 411.091 565.927 407.071 562.667C401.893 558.467 399.086 553.252 398.59 546.559C398.257 542.069 400.004 536.695 402.946 533.299C408.073 527.381 414.032 525.227 421.657 524.787Z"/>
	<path fill="#53D6DA" d="M416.071 532.133C418.881 531.876 421.616 532.094 424.183 533.328C427.797 535.065 430.573 538.455 431.911 542.185C433.104 545.509 432.891 549.054 431.359 552.236C429.325 556.463 426.341 558.16 422.152 559.738C419.592 560.03 417.274 560.013 414.828 559.092C410.789 557.57 407.883 554.102 406.3 550.162C404.963 546.836 405.347 543.239 406.817 540.031C408.709 535.902 411.943 533.643 416.071 532.133Z"/>
	<path fill="#0A8693" d="M689.507 650.045L717.621 650.064C717.22 651.491 715.843 652.979 714.999 654.204L709.746 662.069L685.408 699.25L679.156 709.251L665.519 687.233L689.507 650.045Z"/>
	<path fill="#F8C626" d="M620.98 792.614L642.101 792.727L682.425 858.301C676.268 858.348 669.308 857.751 663.239 858.543C652.436 843.409 643.225 827.29 633.238 811.631L625.756 800.029C624.121 797.651 621.992 795.318 620.98 792.614Z"/>
	<path fill="#F8C626" d="M590.513 792.449L612.587 792.454C615.179 796.811 617.884 802.864 621.219 806.53C623.236 810.946 626.298 815.088 628.781 819.274L653.393 857.94C646.427 859.33 638.576 858.025 631.459 858.401C629.254 856.574 627.14 851.154 625.515 848.439L601.439 808.109C598.074 802.654 594.394 797.539 590.513 792.449Z"/>
	<path fill="#FCFBFB" d="M442.24 188.619L431.154 188.707L392.958 132.252L440.713 132.489L508.632 230.75C507.479 231.295 507.203 231.116 505.975 231.002L439.33 140.948C438.716 140.279 437.107 140.566 436.218 140.56L409.116 140.373L442.24 188.619Z"/>
	<path fill="#FCFBFB" d="M653.812 239.865L663.287 239.891L563.958 393.827L555.774 393.478L653.812 239.865Z"/>
	<path fill="#25215E" d="M245.662 729.75C247.712 730.842 250.067 735.466 251.452 737.5L263.68 754.776L243.607 784.452L228.857 784.479L210.619 784.637L245.662 729.75Z"/>
	<path fill="#FCFBFB" d="M690.034 624.979L684.678 616.506L850.904 616.886L835.8 639.661L826.731 639.335C826.886 637.863 827.857 636.496 828.549 635.212L834.174 625.02L690.034 624.979Z"/>
	<path fill="#235C7F" d="M764.893 868.956L695.929 869.534L700.026 864.508L686.668 844.145L747.053 844.019L764.893 868.956Z"/>
	<path fill="#620C46" d="M730.658 752.389L730.839 752.493C733.793 760.744 740.486 769.129 745.76 776.159C747.787 778.862 750.277 781.534 751.869 784.504C754.178 786.011 756.675 790.078 758.61 792.25L757.247 793.375C757.965 794.473 758.556 795.292 758.911 796.575C764.528 806.081 772.658 813.979 778.233 823.363C778.588 823.96 778.99 824.201 779.558 824.571L774.459 824.015L755.675 824.696L728.869 783.237C722.408 773.399 714.672 763.649 709.527 753.039L709.407 752.582L730.658 752.389Z"/>
	<path fill="#AE0536" d="M744.792 782.925C750.135 783.882 754.968 792.847 758.911 796.575C764.528 806.081 772.658 813.979 778.233 823.363C778.588 823.96 778.99 824.201 779.558 824.571L774.459 824.015L744.792 782.925Z"/>
	<path fill="#AE0536" d="M730.658 752.389L730.839 752.493C733.793 760.744 740.486 769.129 745.76 776.159C747.787 778.862 750.277 781.534 751.869 784.504C754.178 786.011 756.675 790.078 758.61 792.25L757.247 793.375C757.965 794.473 758.556 795.292 758.911 796.575C754.968 792.847 750.135 783.882 744.792 782.925L743.659 781.195C742.865 780.598 741.995 779.021 741.391 778.175L736.43 771.157C731.676 764.888 726.948 758.707 721.45 753.067L709.527 753.039L709.407 752.582L730.658 752.389Z"/>
	<path fill="#C80F3A" d="M743.659 781.195C744.343 781.498 744.896 781.716 745.631 781.863C747.489 782.234 748.856 784.064 750.125 785.375L750.375 784.625C748.985 783.18 747.398 781.78 746.496 779.974C746.09 779.163 745.56 778.753 745.125 777.875L744.625 777.003C747.256 777.911 748.807 782.908 751.869 784.504C754.178 786.011 756.675 790.078 758.61 792.25L757.247 793.375C757.965 794.473 758.556 795.292 758.911 796.575C754.968 792.847 750.135 783.882 744.792 782.925L743.659 781.195Z"/>
	<path fill="#53D6DA" d="M364.184 140.723L371.983 140.542C378.816 148.142 384.142 156.685 390.095 164.951C400.375 179.225 411.442 193.292 419.541 209.007L449.297 209.003L468.048 231.25L424.748 231.283L364.184 140.723Z"/>
	<path fill="#FCFBFB" d="M364.184 140.723L358.116 131.905C365.646 131.844 374.038 131.006 381.467 131.874L426.603 198.024L454.823 198.007C457.332 201.822 475.902 229.51 475.752 231.184L468.048 231.25L449.297 209.003L419.541 209.007C411.442 193.292 400.375 179.225 390.095 164.951C384.142 156.685 378.816 148.142 371.983 140.542L364.184 140.723Z"/>
	<path fill="#FCFBFB" d="M520.103 679.568C522.347 680.537 525.353 680.123 527.797 680.118L544.5 680.075L601.817 680.142C611.867 680.123 622.254 679.54 632.27 680.131L646.747 680.156C654.77 690.615 661.434 702.235 668.647 713.269L681.705 733.474C684.409 737.685 687.474 741.966 689.526 746.536L680.49 746.611L669.694 730.232C668.415 726.696 664.709 722.603 662.644 719.386C655.896 708.877 649.791 698.179 641.837 688.483L534.855 688.909L523.668 688.87L523.255 688.892C520.006 688.464 516.298 688.896 513 688.98L520.103 679.568Z"/>
	<path fill="#53D6DA" d="M520.103 679.568C522.347 680.537 525.353 680.123 527.797 680.118L544.5 680.075L601.817 680.142C611.867 680.123 622.254 679.54 632.27 680.131C628.681 680.776 624.905 680.533 621.263 680.545L604.009 680.577L540.407 680.494L531.594 680.511C530.981 680.513 529.325 680.323 528.89 680.524C528.285 680.801 526.89 683.068 526.405 683.772C525.303 685.373 524.101 686.951 523.668 688.87L523.255 688.892C520.006 688.464 516.298 688.896 513 688.98L520.103 679.568Z"/>
	<path fill="#F8C626" d="M555.367 792.084L561.133 792.325L575.738 792.332C577.972 792.332 580.691 792.635 582.876 792.296L622.985 858.314L623.584 859.049C621.258 860.532 618.817 860.345 616.172 860.376C611.158 860.434 604.283 859.625 599.518 860.826C596.619 857.37 594.394 853.207 592.027 849.367L579.962 829.857L555.367 792.084Z"/>
	<path fill="#F53327" d="M555.367 792.084L561.133 792.325L602.536 858.222C609.184 858.358 616.387 858.974 622.985 858.314L623.584 859.049C621.258 860.532 618.817 860.345 616.172 860.376C611.158 860.434 604.283 859.625 599.518 860.826C596.619 857.37 594.394 853.207 592.027 849.367L579.962 829.857L555.367 792.084Z"/>
	<path fill="#EE242F" d="M515.958 223.008L763.959 222.898L758.975 230.085L520.472 230.488L515.958 223.008Z"/>
	<path fill="#0A8693" d="M788.184 840.459L811.463 840.378C816.612 840.369 824.342 839.603 828.911 842.412C829.382 843.565 829.858 843.891 830.75 844.745C831.832 844.748 832.419 844.494 833.284 845.185C834.284 845.984 835.446 847.092 836.827 846.974L838.375 846.625L843.524 848.281L846.01 849.057L846 849.255C842.372 849.687 837.995 848.288 834.746 850.079C840.224 850.368 846.304 849.601 851.664 850.482C856.608 851.295 860.774 854.502 865.937 854.755L879.077 863.359L779.975 863.488L765.993 840.483L788.184 840.459Z"/>
	<path fill="#53D6DA" d="M788.184 840.459L811.463 840.378C816.612 840.369 824.342 839.603 828.911 842.412C829.382 843.565 829.858 843.891 830.75 844.745C831.832 844.748 832.419 844.494 833.284 845.185C834.284 845.984 835.446 847.092 836.827 846.974L838.375 846.625L843.524 848.281L846.01 849.057L846 849.255C842.372 849.687 837.995 848.288 834.746 850.079C831.986 850.51 828.569 850.153 825.734 850.15L805.759 850.129C802.891 850.124 797.816 850.787 795.183 850.075C793.803 849.702 789.383 842.128 788.184 840.459Z"/>
	<path fill="#F53327" d="M737.343 752.425L749.869 752.027C754.539 757.938 758.457 764.397 762.898 770.478L785.864 799.886L791.823 808.152C792.214 808.7 793.164 810.377 793.668 810.696L805.75 827.954C807.499 827.855 808.338 826.804 809.709 825.755L815.064 833.604L785.661 833.618L779.619 833.678C778.552 831.166 777.165 828.839 776.277 826.25L778.177 825.567C779.745 825.52 780.671 825.427 782.079 824.616L779.558 824.571C778.99 824.201 778.588 823.96 778.233 823.363C772.658 813.979 764.528 806.081 758.911 796.575C758.556 795.292 757.965 794.473 757.247 793.375L758.61 792.25C756.675 790.078 754.178 786.011 751.869 784.504C750.277 781.534 747.787 778.862 745.76 776.159C740.486 769.129 733.793 760.744 730.839 752.493L736.86 752.074L736.981 752.308L737.343 752.425Z"/>
	<path fill="#AE0536" d="M760.167 784.587L780.448 810.75L780.089 811.453C776.147 806.728 772.936 801.228 768.655 796.825C767.696 796.743 768.17 796.693 767.233 796.984L767.175 796.946L764.073 792.5C762.859 790.928 760.79 788.88 760.123 787C759.954 786.525 760.157 785.153 760.167 784.587Z"/>
	<path fill="#EE242F" d="M782.079 824.616C784.014 824.401 784.222 824.259 785.956 825.448L786.082 825.58L785.18 825.793C784.041 826.054 782.937 826.155 781.775 826.25C782.717 828.842 784.231 831.27 785.661 833.618L779.619 833.678C778.552 831.166 777.165 828.839 776.277 826.25L778.177 825.567C779.745 825.52 780.671 825.427 782.079 824.616Z"/>
	<path fill="#8E083E" d="M736.981 752.308L737.343 752.425C740.425 759.254 745.653 765.176 750.058 771.173C753.316 775.608 756.457 780.537 760.167 784.587C760.157 785.153 759.954 786.525 760.123 787C760.79 788.88 762.859 790.928 764.073 792.5L767.175 796.946L767.233 796.984C770.62 801.154 773.565 805.62 776.694 809.981C778.243 812.141 780.383 814.46 781.448 816.882C777.708 814.493 774.537 808.572 771.867 805L747.49 772.229C745.219 769.025 742.66 765.922 740.544 762.62C738.7 759.742 737.287 756.411 735.961 753.263L736.981 752.308Z"/>
	<path fill="#07C8C0" d="M690.034 624.979L834.174 625.02L828.549 635.212C827.857 636.496 826.886 637.863 826.731 639.335L698.729 639.121L690.034 624.979Z"/>
	<path fill="#AE0536" d="M596.703 897.39C602.057 895.718 609.153 895.666 614.779 895.4L639.526 894.571L617.831 921.53L528.756 921.187L535.574 913.115L569.26 913.011C577.068 912.925 585.074 913.134 592.835 912.25L592.5 911.679L538.287 909.897L548.17 899.235C548.754 898.62 550.312 896.637 551.003 896.391C553.997 897.954 556.002 897.052 559.09 897.56L585.384 897.495C588.983 897.482 593.166 897.892 596.703 897.39Z"/>
	<path fill="#02011F" d="M596.703 897.39C597.821 897.524 598.877 897.498 600 897.469L600.25 897.777L599.731 897.997C593.894 900.059 558.063 902.203 553.856 900.133L553.667 899.018L554.5 898.042L559.09 897.56L585.384 897.495C588.983 897.482 593.166 897.892 596.703 897.39Z"/>
	<path fill="#FCFBFB" d="M818.272 650.28L829.079 650.118L801.438 693.809C796.551 701.384 791.835 709.668 786.047 716.573L879.851 862.514C879.438 863.308 879.735 863.068 879.077 863.359L865.937 854.755C858.165 844.499 851.508 833.326 844.528 822.524L813.026 774.081L787.308 734.186C783.796 728.54 779.745 722.933 776.972 716.893C777.509 714.726 779.316 712.405 780.473 710.5L789.178 696.663L800.301 678.188L818.272 650.28Z"/>
	<path fill="#F23956" d="M653.393 857.94L657.711 863.592L659.978 863.329L658.175 859.682C658.94 859.305 659.596 858.893 660.469 858.863C661.437 858.83 662.277 858.7 663.239 858.543C669.308 857.751 676.268 858.348 682.425 858.301L684.931 862.749L684.475 864.005L669.772 882.661C666.93 886.198 664.107 890.298 660.828 893.433L646.136 893.606L656.202 879.634L586.687 880.006C582.31 876.564 580.247 870.812 576.155 867.067C575.171 866.229 574.294 864.704 573.516 863.64C581.076 863.307 589.49 862.471 596.962 863.654L601.096 863.529L599.518 860.826C604.283 859.625 611.158 860.434 616.172 860.376C618.817 860.345 621.258 860.532 623.584 859.049C625.044 861.052 625.933 863.11 628.314 863.937L629.167 863.868C629.379 862.794 627.968 860.857 627.406 859.835L631.459 858.401C638.576 858.025 646.427 859.33 653.393 857.94Z"/>
	<path fill="#AD0005" d="M623.584 859.049C625.044 861.052 625.933 863.11 628.314 863.937L610.904 863.941C607.73 863.918 604.176 864.219 601.096 863.529L599.518 860.826C604.283 859.625 611.158 860.434 616.172 860.376C618.817 860.345 621.258 860.532 623.584 859.049Z"/>
	<path fill="#EE242F" d="M682.425 858.301L684.931 862.749L684.475 864.005C682.69 863.102 679.579 863.508 677.538 863.501L659.978 863.329L658.175 859.682C658.94 859.305 659.596 858.893 660.469 858.863C661.437 858.83 662.277 858.7 663.239 858.543C669.308 857.751 676.268 858.348 682.425 858.301Z"/>
	<path fill="#EE242F" d="M653.393 857.94L657.711 863.592L629.167 863.868C629.379 862.794 627.968 860.857 627.406 859.835L631.459 858.401C638.576 858.025 646.427 859.33 653.393 857.94Z"/>
	<path fill="#F23956" d="M283.156 142.036L338.325 142.178L339.283 142.063C341.791 142.022 345.721 141.508 347.791 143.164L348.115 143.5C346.916 144.483 341.481 143.95 339.676 143.934L353.365 160.045C355.172 162.247 357.677 166.481 359.954 167.88C353.922 168.507 347.411 168.031 341.333 168.035L302.876 168.055L274.02 168.124C271.697 164.691 268.063 160.427 266.935 156.471C266.119 155.189 264.975 154.131 264.638 152.62L263.748 152.163C262.822 150.796 260.293 147.979 260.558 146.457C260.314 146.292 259.924 146.052 259.752 145.816C258.923 144.676 258.316 143.514 257.34 142.371L283.156 142.036Z"/>
	<path fill="#02011F" d="M264.638 152.62L314.153 152.964C321.978 153.098 330.262 152.524 337.991 153.792C333.48 154.515 329.017 154.507 324.476 154.741L295.405 155.526L266.935 156.471C266.119 155.189 264.975 154.131 264.638 152.62Z"/>
	<path fill="#02011F" d="M283.156 142.036L338.325 142.178L339.283 142.063L339.157 143.25L260.558 146.457C260.314 146.292 259.924 146.052 259.752 145.816C258.923 144.676 258.316 143.514 257.34 142.371L283.156 142.036Z"/>
	<path fill="#C80F3A" d="M266.935 156.471L295.405 155.526C296.013 160.039 301.438 163.727 302.876 168.055L274.02 168.124C271.697 164.691 268.063 160.427 266.935 156.471Z"/>
	<path fill="#07C8C0" d="M442.24 188.619L409.116 140.373L436.218 140.56C437.107 140.566 438.716 140.279 439.33 140.948L505.975 231.002C504.236 231.512 502.173 231.281 500.348 231.293L488.555 231.359L459.462 189.021C454.484 187.908 447.449 188.672 442.24 188.619Z"/>
	<path fill="#07C8C0" d="M319.11 293.412L335.433 280.643C336.271 281.032 337.078 281.318 338 281.451C344.034 282.316 351.076 281.8 357.192 281.856L402.956 281.971L548.597 281.558C544.692 285.244 540.013 290.926 535.547 293.623C516.613 293.418 321.264 294.334 319.11 293.412Z"/>
	<defs>
		<linearGradient id="gradient_2" gradientUnits="userSpaceOnUse" x1="692.91699" y1="834.36963" x2="692.57483" y2="792.63043">
			<stop offset="0" stop-color="#FE4722"/>
			<stop offset="1" stop-color="#F81C35"/>
		</linearGradient>
	</defs>
	<path fill="url(#gradient_2)" d="M657.767 810.461C654.974 806.588 652.573 802.269 650.062 798.2C649.099 796.64 647.648 794.979 647.595 793.153L649.826 792.999L687.788 793.164L719.221 793.41L721.75 793.403C726.233 798.909 729.814 805.547 733.607 811.56L747.943 834.573L738.558 834.637L673.141 834.704L657.767 810.461Z"/>
	<path fill="#F0D6A6" d="M719.221 793.41L721.75 793.403C726.233 798.909 729.814 805.547 733.607 811.56L747.943 834.573L738.558 834.637C736.929 830.928 734.271 827.306 732.117 823.877L699.25 823.255L699.122 822.75L730.785 822.559C730.837 821.422 719.563 804.501 717.979 801.966C716.977 801.191 715.979 801.244 714.766 801.161L714.195 801.125L716.75 801C716.761 798.821 716.279 796.47 716.137 794.251C714.727 794.281 713.715 794.236 712.336 793.849L719.221 793.41Z"/>
	<path fill="#F8C626" d="M649.826 792.999L687.788 793.164L719.221 793.41L712.336 793.849C713.715 794.236 714.727 794.281 716.137 794.251C716.279 796.47 716.761 798.821 716.75 801L714.195 801.125L714.766 801.161C715.979 801.244 716.977 801.191 717.979 801.966L688.516 801.906L655.766 802.182C653.402 799.815 651.58 795.895 649.826 792.999Z"/>
	<path fill="#4D4E86" d="M463.071 333.75L463.337 333.959C463.245 334.418 463.249 334.513 463.018 335C461.795 337.582 459.332 340.341 457.669 342.711L442.946 363.481L398.259 428.769L275.691 614.961L213.506 710.773L184.592 757.027C181.179 762.44 178.063 768.304 174.425 773.529C173.508 774.847 172.201 775.361 170.75 775.922C169.675 774.359 170.463 771 170.76 769.079C171.396 764.975 174.197 761.356 176.367 757.901L187.083 740.886L292.589 577.566L396.78 416.052L426.413 370.179L433.171 359.654C434.44 357.596 435.584 355.201 437.071 353.31C438.94 350.932 443.115 348.715 445.599 346.892L463.071 333.75Z"/>
	<path fill="#F53327" d="M504.887 207.6L773.519 207.976C771.856 210.655 770.284 213.617 768.354 216.098L763.959 222.898L515.958 223.008L511.002 216.175L504.887 207.6Z"/>
	<path fill="#F98934" d="M511.002 216.175L768.354 216.098L763.959 222.898L515.958 223.008L511.002 216.175Z"/>
	<path fill="#F8C626" d="M495.008 193.211L783.308 193.035L773.519 207.976L504.887 207.6L495.008 193.211Z"/>
	<path fill="#07C8C0" d="M335.785 746.04C333.742 750.324 330.828 754.361 328.296 758.376L312.264 783.677L253.972 783.917L304.117 708.919L357.114 708.623L340.99 733.806C339.085 736.989 335.484 742.337 335.785 746.04Z"/>
	<path fill="#C80F3A" d="M574.743 268.887L414.819 268.682C420.674 262.096 425.772 253.957 430.426 246.463C428.745 244.674 427.618 242.715 426.405 240.606L557.512 240.043L586.644 240.342C591.396 240.378 596.801 239.714 601.448 240.633L574.743 268.887Z"/>
	<path fill="#C80F3A" d="M412.655 797.597L508.067 797.42L532.649 827.708L531.947 828.478L362.924 827.977C360.36 825.026 358.497 821.499 356.486 818.162C352.399 811.382 348.555 804.347 343.956 797.903L412.655 797.597Z"/>
	<path fill="#4D4E86" d="M355.863 701.905C355.492 702.217 355.195 702.65 354.75 702.841C353.323 703.452 347.551 702.869 345.649 702.876L307.233 702.97L349.688 639.178L353.544 642.259C356.961 644.434 361.315 645.094 365.266 644.215C369.545 643.263 372.829 640.922 375.188 637.214C377.526 633.536 378.639 628.98 377.513 624.703C375.902 618.591 371.468 615.393 366.239 612.507L372.11 606.096C376.21 608.646 380.305 609.865 385.146 608.864C389.497 607.964 393.481 605.161 395.732 601.338C398.363 596.869 398.281 592.818 396.923 587.948L396.763 587.391L402.87 580.323C404.172 580.155 405.902 581.122 407.175 581.555C413.818 583.817 422.895 584.222 429.626 582.111C433.818 580.796 437.979 578.629 441.914 576.673C437.726 585.75 430.75 594.303 425.373 602.727L417.709 614.654C417.013 615.732 415.997 617.908 414.949 618.596L360.087 704.33C358.712 703.143 357.582 702.495 355.863 701.905Z"/>
	<path fill="#25215E" d="M355.863 701.905C359.601 695.049 364.873 688.422 369.2 681.87L398.149 638.528L408.818 623.256C410.824 620.53 412.841 617.339 415.755 615.5C415.545 616.15 415.354 616.562 414.954 617.132L414.577 617.639L414.949 618.596L360.087 704.33C358.712 703.143 357.582 702.495 355.863 701.905Z"/>
	<path fill="#235C7F" d="M230.487 133.527C230.956 136.321 233.585 139.257 235.177 141.597L244.452 155.238L288.946 221.036C301.591 239.238 315.081 257.44 326.356 276.506L299.423 297.654L203.537 154.653L230.487 133.527Z"/>
	<path fill="#235C7F" d="M307.753 842.497L549.343 842.996L566.556 866.65L541.241 866.987L282.692 868.503L307.753 842.497Z"/>
	<path fill="#FCFBFB" d="M457.958 139.862L452.665 132.482L865.934 132.477C860.598 142.81 853.048 152.58 846.754 162.415L807.669 224.152L710.592 378.456L676.022 432.5L639.455 489.905L629.313 505.784C627.497 508.704 625.333 511.849 623.999 515.015L615.035 514.858C616.203 510.188 620.846 504.518 623.442 500.392L642.75 470.003L714.696 356.323L797.648 224.555L851.693 139.682L457.958 139.862Z"/>
	<path fill="#F9B426" d="M489.388 184.443L481.917 174.064C480.926 172.633 479.281 170.82 478.824 169.154L798.304 169.363L788.685 184.783L783.308 193.035L495.008 193.211L489.388 184.443Z"/>
	<path fill="#F53327" d="M489.388 184.443L788.685 184.783L783.308 193.035L495.008 193.211L489.388 184.443Z"/>
	<path fill="#BBA0AB" d="M364.478 765.38L371.187 756.235L406.084 756.039C414.483 756.03 423.459 755.434 431.783 756.526L696.532 756.617L706.875 772.365L705.83 782.8L704.05 782.135L664.746 781.928L351.969 782.644L352.171 782.156C353.478 778.861 356.116 775.775 358.186 772.896C359.591 770.84 362.274 766.317 364.478 765.38Z"/>
	<defs>
		<linearGradient id="gradient_3" gradientUnits="userSpaceOnUse" x1="526.85193" y1="756.55798" x2="528.37341" y2="782.71967">
			<stop offset="0" stop-color="#713F7E"/>
			<stop offset="1" stop-color="#87598C"/>
		</linearGradient>
	</defs>
	<path fill="url(#gradient_3)" d="M364.478 765.38L692.508 765.088L697.837 774.099L665.728 774.49C664.121 774.068 661.825 774.375 660.15 774.379L647.75 774.387L592.978 774.221L358.186 772.896C359.591 770.84 362.274 766.317 364.478 765.38Z"/>
	<path fill="#FCFBFB" d="M364.478 765.38L371.187 756.235L406.084 756.039C414.483 756.03 423.459 755.434 431.783 756.526L696.532 756.617L706.875 772.365L705.83 782.8L704.05 782.135L697.837 774.099L692.508 765.088L364.478 765.38Z"/>
	<defs>
		<linearGradient id="gradient_4" gradientUnits="userSpaceOnUse" x1="721.44366" y1="789.97858" x2="852.67609" y2="724.44794">
			<stop offset="0" stop-color="#08C2B9"/>
			<stop offset="1" stop-color="#16DFE1"/>
		</linearGradient>
	</defs>
	<path fill="url(#gradient_4)" d="M828.911 842.412C830.021 842.048 830.127 841.905 830.882 841C830.607 838.771 829.062 836.976 827.83 835.158L820.814 824.771L782.924 769.029L759.8 734.482L695.566 734.51L685.088 719.79L731.195 650.372L818.272 650.28L800.301 678.188L789.178 696.663L780.473 710.5C779.316 712.405 777.509 714.726 776.972 716.893C779.745 722.933 783.796 728.54 787.308 734.186L813.026 774.081L844.528 822.524C851.508 833.326 858.165 844.499 865.937 854.755C860.774 854.502 856.608 851.295 851.664 850.482C846.304 849.601 840.224 850.368 834.746 850.079C837.995 848.288 842.372 849.687 846 849.255L846.01 849.057L843.524 848.281L838.375 846.625L836.827 846.974C835.446 847.092 834.284 845.984 833.284 845.185C832.419 844.494 831.832 844.748 830.75 844.745C829.858 843.891 829.382 843.565 828.911 842.412Z"/>
	<path fill="#050738" d="M764.745 667.25L786.227 667.17L756.808 712.301L732.844 712.234L710.169 712.327L739.457 667.426L764.745 667.25Z"/>
	<path fill="#F53327" d="M755.293 675.781L770.301 675.451C768.02 679.443 754.062 702.271 751.218 703.138L749.825 703.471C750.473 701.82 751.167 700.392 750.741 698.606L749.324 691.477C748.585 688.722 748.734 687.439 749.957 684.845C750.535 684.143 750.987 683.549 751.397 682.73L751.755 682C752.231 681.214 752.589 680.211 753.098 679.533C753.945 678.402 754.54 677.002 755.293 675.781Z"/>
	<path fill="#EE242F" d="M749.825 703.471C747.739 702.662 744.582 703.2 742.332 703.25L725.745 703.545L738.497 683.102C739.755 681.003 740.984 677.746 742.749 676.091C743.416 675.465 745.046 675.853 745.947 675.903L755.293 675.781C754.54 677.002 753.945 678.402 753.098 679.533C752.589 680.211 752.231 681.214 751.755 682L751.397 682.73C750.987 683.549 750.535 684.143 749.957 684.845C748.734 687.439 748.585 688.722 749.324 691.477L750.741 698.606C751.167 700.392 750.473 701.82 749.825 703.471Z"/>
	<path fill="#07C8C0" d="M631.745 239.967L653.812 239.865L555.774 393.478L467.065 393.543C468.926 389.967 471.463 386.508 473.607 383.075L490.016 357.575C494.472 350.684 498.565 342.315 503.874 336.152C509.156 330.021 516.544 324.645 522.554 319.165C540.31 302.973 559.025 287.113 574.743 268.887L601.448 240.633C603.525 239.567 606.716 240.006 609.039 240L626.482 240.013L631.745 239.967Z"/>
	<path fill="#FCFBFB" d="M627.743 258.25C628.298 258.131 628.773 258.147 629.337 258.154C629.528 258.995 629.562 259.631 629.375 260.479C628.536 264.271 626.915 273.217 623.75 275.314C623.021 275.291 622.452 275.139 621.75 274.957C621.595 274.5 621.487 274.288 621.51 273.75C621.716 268.931 624.515 261.742 627.743 258.25Z"/>
	<path fill="#FCFBFB" d="M626.482 240.013L631.745 239.967C628.636 245.282 625.169 250.491 621.044 255.071C619.747 255.282 619.739 255.121 618.604 254.414C618.249 251.032 624.68 243.22 626.482 240.013Z"/>
	<path fill="#FCFBFB" d="M615.702 262.25C617.067 262.812 617.466 263.36 618.321 264.5C616.36 269.771 612.856 275.075 610.111 280.002L594.459 306.5C590.425 313.118 586.482 319.99 581.75 326.137C580.68 326.588 580.477 326.415 579.369 326.25L578.881 325.25C580.17 320.36 584.295 314.985 586.94 310.581L602.348 284.887C606.719 277.501 610.516 269.032 615.702 262.25Z"/>
	<path fill="#F53327" d="M600.012 393.069L576.499 393.083L675.084 240.091L752.998 240.481L744.538 253.462L743.351 254.902L739.893 260.948L731.358 274.597L724.388 285.517L716.19 298.335C713.938 302.066 711.696 306.182 708.905 309.531L700.939 322.144C699.069 325.242 696.563 330.865 693.938 333.106L685.41 346.593L678.404 357.646L669.794 371.009L662.366 382.478L655.515 393.087L600.012 393.069Z"/>
	<path fill="#FDFCDB" d="M743.351 254.902C736.124 254.96 696.557 256.031 693.445 254.25L694.25 253.504L744.538 253.462L743.351 254.902Z"/>
	<path fill="#F98934" d="M600.012 393.069L607.843 382.008L645.297 381.977L655.552 381.988C657.822 381.992 660.196 381.746 662.366 382.478L655.515 393.087L600.012 393.069Z"/>
	<path fill="#F9B426" d="M716.19 298.335C710.369 297.495 703.695 298.079 697.785 298.076L659.926 298.073C662.027 293.635 664.609 289.546 667.388 285.506L703.645 285.258L716.552 285.114C719.148 285.091 721.869 284.834 724.388 285.517L716.19 298.335Z"/>
	<path fill="#F8C626" d="M700.939 322.144L644.567 322.083L652.931 309.021L691.505 309.037C696.467 309.037 704.308 308.056 708.905 309.531L700.939 322.144Z"/>
	<path fill="#F9B426" d="M669.794 371.009L614.003 370.983L622.739 357.821L678.404 357.646L669.794 371.009Z"/>
	<path fill="#F8C626" d="M731.358 274.597L675.117 274.567L682.328 261.143L739.893 260.948L731.358 274.597Z"/>
	<path fill="#F9B426" d="M685.41 346.593L628.799 346.881L638.083 332.986L693.938 333.106L685.41 346.593Z"/>
	<defs>
		<linearGradient id="gradient_5" gradientUnits="userSpaceOnUse" x1="211.78815" y1="403.36685" x2="394.35281" y2="579.2832">
			<stop offset="0" stop-color="#065C74"/>
			<stop offset="1" stop-color="#504685"/>
		</linearGradient>
	</defs>
	<path fill="url(#gradient_5)" d="M535.547 293.623L513.334 313.494C507.32 318.739 500.217 323.978 495.159 330.158C489.534 337.03 485.157 346.133 480.477 353.736L455.574 393.635L412.373 459.593L336.644 573.249L282.234 656.468L200.169 782.547C198.272 783.281 172.863 782.853 170.058 782.25L169.976 780.5C171.738 779.096 192.686 779.86 196.616 779.856L247.513 700.12L301.658 617.643L360.25 528.115L424.709 432.241L447.966 397.355C455.287 386.273 463.401 375.009 468.193 362.575C466.543 363.936 465.272 366.154 464.04 367.904L457.316 377.538L410.495 446.896L361.25 520.006L345.393 544.497L264.271 667.569L217.604 739.003C210.044 750.592 203.028 763.102 194.491 773.964L178.546 774.502L202.497 736L248.197 663.759L319.037 555.738L359.074 494.024L451.744 358.83L467.29 335.658C469.711 331.981 472.659 325.823 476.28 323.409L503.999 302.905L305.636 304.39L319.11 293.412C321.264 294.334 516.613 293.418 535.547 293.623Z"/>
	<defs>
		<linearGradient id="gradient_6" gradientUnits="userSpaceOnUse" x1="264.77356" y1="703.57745" x2="529.80951" y2="390.30255">
			<stop offset="0" stop-color="#1D245C"/>
			<stop offset="1" stop-color="#655B95"/>
		</linearGradient>
	</defs>
	<path fill="url(#gradient_6)" d="M339.709 587.625C340.424 585.512 342.576 582.978 343.807 581.051L356.087 562.474L396.468 502.593L434.966 445.137L461.948 404.045L547.051 403.95C540.922 411.947 535.773 421.103 530.118 429.5L486.075 497C476.344 513.143 468.167 530.32 456.117 544.94C454.995 534.182 449.82 523.319 441.318 516.425C433.794 510.324 423.245 507.283 413.688 508.457C403.713 509.682 395.207 515.384 389.25 523.274C385.326 528.471 383.126 534.288 382.438 540.75C381.284 551.597 384.47 562.015 391.25 570.579C393.515 573.44 396.231 575.533 399.054 577.8C397.681 580.083 396.307 582.196 394.629 584.273C390.699 580.775 387.272 578.46 381.75 578.69C377.717 578.858 373.788 580.764 371.081 583.75C368.427 586.678 366.705 591.185 367.018 595.169L367.75 599.069L368.092 600.878L364.897 605.047L361.364 611.394L356.212 612.765C351.933 614.117 348.168 617.105 346.168 621.15C344.641 624.24 344.433 628.813 345.67 632.048L345.955 632.75C339.935 638.535 335.467 646.719 330.784 653.605L297.445 702.928L273.68 703.056C270.487 703.072 266.288 703.614 263.274 702.896C272.532 690.251 280.557 676.406 289.028 663.203L326.856 606.636L334.695 594.784C336.226 592.388 337.631 589.583 339.709 587.625Z"/>
	<path fill="#050738" d="M447.141 481.105C450.612 480.877 454.223 481.378 457.273 483.149C460.992 485.309 464.108 489.403 465.129 493.575C466.11 497.58 465.71 502.493 463.564 506.031C460.587 510.938 456.22 512.82 450.863 513.971C447.743 514.038 444.178 513.474 441.414 511.975C437.348 509.769 433.617 505.848 432.533 501.25C431.463 496.717 432.442 492.238 435.07 488.428C438.132 483.989 441.968 482.119 447.141 481.105Z"/>
	<path fill="#EE242F" d="M459.011 502.268C458.37 503.306 457.608 504.356 456.75 505.225C454.658 507.346 452.004 508.618 449.02 508.605C446.289 508.592 443.412 507.273 441.578 505.25C438.981 502.386 437.995 498.889 438.436 495.091C438.757 492.329 440.608 489.716 442.75 488.051C445.482 485.927 448.683 486.054 451.912 486.548C455.208 487.995 458.029 489.782 459.52 493.25C460.949 496.572 460.784 498.536 459.256 501.801L459.011 502.268Z"/>
	<path fill="#F8C626" d="M459.011 502.268L453.25 503.189C451.285 503.284 449.324 503.111 447.89 501.608C446.865 500.535 446.342 499.351 446.304 497.864C446.179 492.926 448.681 489.954 451.912 486.548C455.208 487.995 458.029 489.782 459.52 493.25C460.949 496.572 460.784 498.536 459.256 501.801L459.011 502.268Z"/>
	<path fill="#07C8C0" d="M457.958 139.862L851.693 139.682L797.648 224.555L714.696 356.323L642.75 470.003L623.442 500.392C620.846 504.518 616.203 510.188 615.035 514.858L591.486 514.91C592.181 512.591 593.921 510.274 595.204 508.201L603.729 494.711L636.86 441.929L782.356 212.866L814.889 161.599C811.842 161.148 808.47 161.46 805.381 161.46L787.223 161.384L715.463 161.17L472.635 161.149L468.416 155.21L457.958 139.862Z"/>
	<path fill="#235C7F" d="M468.416 155.21L818.834 155.119C818.321 157.008 816.217 160.122 814.889 161.599C811.842 161.148 808.47 161.46 805.381 161.46L787.223 161.384L715.463 161.17L472.635 161.149L468.416 155.21Z"/>
	<path fill="#07C8C0" d="M680.49 746.611L448.547 746.046L587.433 522.959L608.952 523.02L618.589 523.057L520.103 679.568L513 688.98C516.298 688.896 520.006 688.464 523.255 688.892L523.668 688.87L534.855 688.909L641.837 688.483C649.791 698.179 655.896 708.877 662.644 719.386C664.709 722.603 668.415 726.696 669.694 730.232L680.49 746.611Z"/>
	<path fill="#FCFBFB" d="M608.952 523.02L618.589 523.057L520.103 679.568L513 688.98L488.599 725.558L485.957 730.75C484.519 730.832 483.319 731.099 481.995 730.457C487.318 718.966 494.985 708.069 501.225 697.003L582.296 565.387L608.952 523.02Z"/>
	<defs>
		<linearGradient id="gradient_7" gradientUnits="userSpaceOnUse" x1="598.44232" y1="689.22046" x2="598.16626" y2="731.24744">
			<stop offset="0" stop-color="#00B7B7"/>
			<stop offset="1" stop-color="#22E8DD"/>
		</linearGradient>
	</defs>
	<path fill="url(#gradient_7)" d="M534.855 688.909L641.837 688.483C649.791 698.179 655.896 708.877 662.644 719.386C664.709 722.603 668.415 726.696 669.694 730.232L669.265 731.043L668.967 731.774L590.878 732.342L565.536 732.288C560.998 732.253 556.243 732.485 551.744 731.966L492.464 731.409L482.013 731.356L481.995 730.457C483.319 731.099 484.519 730.832 485.957 730.75L488.599 725.558L513 688.98C516.298 688.896 520.006 688.464 523.255 688.892L523.668 688.87L534.855 688.909Z"/>
	<path fill="#050738" d="M638.239 702.25C639.332 702.053 640.715 702.26 641.715 702.75C644.285 704.01 645.652 706.856 646.617 709.366C646.971 710.286 646.942 709.809 646.463 710.866L643.649 711.396C641.766 711.471 638.623 711.967 636.888 711.338C635.92 710.988 635.233 710.076 634.802 709.174C634.2 707.915 634.091 706.114 634.75 704.852C635.581 703.26 636.625 702.845 638.239 702.25Z"/>
	<path fill="#050738" d="M618.786 702.75C619.978 702.355 620.718 702.294 621.982 702.42C623.579 702.578 624.779 703.276 625.762 704.57C626.617 705.693 627.234 707.64 626.844 709.045C626.233 711.254 624.797 712.137 622.918 713.25C621.919 713.525 621.174 713.638 620.142 713.583C618.05 713.474 616.873 712.228 615.553 710.75C615.195 709.601 614.899 708.562 615.154 707.354C615.619 705.145 617.011 703.98 618.786 702.75Z"/>
	<path fill="#050738" d="M513 688.98C516.298 688.896 520.006 688.464 523.255 688.892L523.668 688.87L534.855 688.909L534.745 689.447C533.484 695.379 529.397 701.143 527.02 706.768C530.183 709.676 532.962 712.359 535.394 715.917L616.563 715.95L640.61 715.929C644.655 715.915 649.003 715.582 653.008 715.941C654.096 716.039 655.069 716.435 655.816 717.25C656.918 718.453 657.341 719.87 657.108 721.5C656.885 723.058 656.127 723.681 655 724.612C651.905 725.243 648.387 724.917 645.219 724.91L627.859 724.858L560.588 724.814L560.583 726.374L559.672 726.818L559.961 727.457C560.355 728.466 560.11 728.502 560.096 729.468L560.25 731.255C559.601 731.337 559.09 731.373 558.438 731.309C557.114 731.179 555.964 731.535 554.607 731.355C553.407 731.195 552.842 731.517 551.744 731.966L492.464 731.409L482.013 731.356L481.995 730.457C483.319 731.099 484.519 730.832 485.957 730.75L488.599 725.558L513 688.98Z"/>
	<path fill="#0A8693" d="M523.255 688.892L523.668 688.87L534.855 688.909L534.745 689.447C533.484 695.379 529.397 701.143 527.02 706.768C530.183 709.676 532.962 712.359 535.394 715.917L508.605 715.99L523.255 688.892Z"/>
	<path fill="#53FDEF" d="M498.27 725.525C499.67 725.211 501.753 725.436 503.236 725.415L513.469 725.276L560.588 724.814L560.583 726.374L559.672 726.818L559.961 727.457C560.355 728.466 560.11 728.502 560.096 729.468L560.25 731.255C559.601 731.337 559.09 731.373 558.438 731.309C557.114 731.179 555.964 731.535 554.607 731.355C553.407 731.195 552.842 731.517 551.744 731.966L492.464 731.409L482.013 731.356L481.995 730.457C483.319 731.099 484.519 730.832 485.957 730.75L488.599 725.558L498.27 725.525Z"/>
	<path fill="#92FFF8" d="M488.599 725.558L498.27 725.525C496.667 725.914 492.057 726.056 490.842 726.73C490.351 727.001 490.125 727.592 489.767 728.023L490.75 730.5C492.719 730.5 498.557 729.909 499.987 730.805L492.464 731.409L482.013 731.356L481.995 730.457C483.319 731.099 484.519 730.832 485.957 730.75L488.599 725.558Z"/>
	<path fill="#F23956" d="M351.969 782.644C348.468 783.357 344.467 783.002 340.896 783.024L322.057 783.122L489.736 524.789L554.252 525.172L575.953 524.871L566.853 538.878L562.332 546.162C561.828 546.973 561.136 548.523 560.451 549.142L552.518 561.968C550.423 565.201 548.4 569.118 545.869 571.984L538.454 584.435L532.356 594.461L524.662 606.837L517.853 617.407L510.333 629.473L505.27 637.523C504.783 638.306 504.043 640.003 503.396 640.508L495.897 652.648C494.019 655.684 491.827 660.658 489.413 663.107L481.338 676.076C479.323 679.393 477.368 683.58 474.876 686.501L467.534 698.837L460.835 709.193C458.347 713.284 455.94 718.276 453.048 722.024C450.963 725.596 448.99 729.885 446.403 733.079L439.184 745.087C436.874 748.89 434.694 753.164 431.783 756.526C423.459 755.434 414.483 756.03 406.084 756.039L371.187 756.235L364.478 765.38C362.274 766.317 359.591 770.84 358.186 772.896C356.116 775.775 353.478 778.861 352.171 782.156L351.969 782.644Z"/>
	<path fill="#F0D6A6" d="M495.897 652.648L434.72 652.599L442.086 640.717L503.396 640.508L495.897 652.648Z"/>
	<path fill="#F0D6A6" d="M510.333 629.473L449.681 629.579L449.561 629.248L456.824 617.502L517.853 617.407L510.333 629.473Z"/>
	<path fill="#F0D6A6" d="M467.534 698.837L405.772 698.837L413.02 686.888C414.869 686.417 417.09 686.649 419.01 686.643L430.299 686.61L474.876 686.501L467.534 698.837Z"/>
	<path fill="#F0D6A6" d="M439.184 745.087L377.183 745.051C376.925 743.701 382.943 734.838 384.054 732.991L446.403 733.079L439.184 745.087Z"/>
	<path fill="#F0D6A6" d="M538.454 584.435L477.058 584.099L484.956 571.998L545.869 571.984L538.454 584.435Z"/>
	<path fill="#F0D6A6" d="M524.662 606.837L463.422 606.84C463.607 605.598 464.722 604.36 465.428 603.298L471.066 594.419L532.356 594.461L524.662 606.837Z"/>
	<path fill="#F0D6A6" d="M552.518 561.968L491.265 561.597L499.459 548.999L560.451 549.142L552.518 561.968Z"/>
	<path fill="#F0D6A6" d="M481.338 676.076L420.128 676.015L427.482 663.467L489.413 663.107L481.338 676.076Z"/>
	<path fill="#F0D6A6" d="M453.048 722.024L390.708 722.007L398.221 709.459L460.835 709.193C458.347 713.284 455.94 718.276 453.048 722.024Z"/>
	<path fill="#F0D6A6" d="M554.252 525.172L575.953 524.871L566.853 538.878L504.568 538.956L512.432 525.449L554.252 525.172Z"/>
</svg>
