<?xml version="1.0" encoding="utf-8" ?>
<svg xmlns="http://www.w3.org/2000/svg" xmlns:xlink="http://www.w3.org/1999/xlink" width="1024" height="1024">
	<path fill="#FBD757" d="M207.916 414.25C208.828 414.103 209.833 413.999 210.75 414.142C212.851 414.47 214.842 415.819 215.904 417.663C216.652 418.962 216.729 420.954 216.306 422.371C215.521 424.997 213.322 426.449 211.058 427.693C209.681 427.889 208.313 427.959 207.006 427.373C205.383 426.646 203.966 424.808 203.324 423.19C202.66 421.518 202.588 419.3 203.369 417.648C204.238 415.807 206.078 414.848 207.916 414.25Z"/>
	<path fill="#FBD757" d="M265.688 464.75C266.887 464.531 267.764 464.425 268.976 464.785C270.951 465.371 272.521 466.343 273.458 468.25C274.514 470.399 274.581 472.169 273.687 474.366C272.787 476.579 271.062 477.878 268.916 478.75C267.48 479.065 266.386 479.035 265 478.562C262.679 477.77 261.203 476.158 260.249 473.921C259.546 472.273 259.754 470.17 260.564 468.592C261.651 466.476 263.56 465.536 265.688 464.75Z"/>
	<path fill="#FBD757" d="M203.518 120.75C204.762 120.487 205.965 120.257 207.238 120.459C209.533 120.823 211.276 122.395 212.536 124.267C213.518 125.726 214.167 127.656 213.746 129.415C213.088 132.164 211.236 133.501 209 134.984L208.313 135.121C207.116 135.374 206.081 135.631 204.855 135.359C202.885 134.922 201.136 133.641 200.157 131.867C199.033 129.829 198.687 127.417 199.344 125.181C200.013 122.908 201.521 121.819 203.518 120.75Z"/>
	<path fill="#EEE186" d="M849.927 475.047C852.18 474.908 854.473 475.083 856.587 475.941C860.148 477.386 862.374 480.059 863.698 483.61C864.856 486.716 864.753 489.669 863.279 492.641C861.16 496.911 857.411 498.67 853.157 500.149C850.839 500.332 849.138 500.133 846.992 499.142C843.602 497.577 841.164 495.098 839.977 491.521C838.883 488.221 838.871 484.705 840.517 481.578C842.556 477.706 845.904 476.145 849.927 475.047Z"/>
	<path fill="#FCFDFD" d="M173.379 159.216L179.718 183.501L204.848 189.432L180.348 196.397L174.25 221.497C173.823 222.658 174.201 222.273 173.25 222.77C171.8 219.144 171.034 215.021 170.056 211.241L166.177 195.956L144.137 190.614L165.649 183.218C169.215 175.725 170.683 167.065 173.379 159.216Z"/>
	<path fill="#FCFDFD" d="M818.836 544.367L826.211 565.551L848.656 573.499L826.823 581.005C823.106 587.213 821.171 595.62 818.501 602.448L813.512 587.5C813.011 585.948 812.437 582.639 811.443 581.409C810.639 580.414 807.793 579.419 806.534 578.898C800.742 576.504 794.625 574.219 788.572 572.594C790.195 571.603 792.957 571.144 794.815 570.587C800.06 569.017 805.389 567.563 810.514 565.633C814.433 559.239 816.478 551.461 818.836 544.367Z"/>
	<path fill="#F6B459" d="M154.674 456.661C156.953 456.509 159.29 456.744 161.547 457.092C169.847 458.374 177.046 462.371 181.987 469.25C186.79 475.936 189.14 484.857 187.705 493.011L187.567 493.75C186.762 498.394 184.96 502.534 182.156 506.323C176.758 513.617 168.666 517.96 159.775 519.26C151.416 519.063 144.225 517.674 137.359 512.634C130.312 507.461 126.879 499.117 125.682 490.71C124.544 482.719 127.128 474.507 132.041 468.212C137.714 460.945 145.786 457.788 154.674 456.661Z"/>
	<defs>
		<linearGradient id="gradient_0" gradientUnits="userSpaceOnUse" x1="666.60834" y1="235.88187" x2="535.80963" y2="-27.200033">
			<stop offset="0" stop-color="#FB6974"/>
			<stop offset="1" stop-color="#F4B2A6"/>
		</linearGradient>
	</defs>
	<path fill="url(#gradient_0)" d="M284.859 121.82L285.037 96.0954L938.082 97.1334C935.974 98.4332 930.768 97.8171 928.188 97.807L930.113 98.3955L930.726 99.7489C929.712 101.46 929.49 102.135 927.42 102.68C926.627 102.889 926.066 102.851 925.266 102.767L924.5 103.188C923.313 103.705 922.078 103.631 920.875 103.857L920 104.192C918.806 104.633 917.393 104.751 916.265 105.265C914.279 106.169 914.11 108.062 911.693 108.354C910.579 109.65 910.684 109.728 909.006 109.918L909.1 110.69C909.227 111.705 909.388 111.656 908.821 112.589L905.46 116.862C901.35 118.405 895.69 117.824 891.319 117.775C888.572 119.731 885.832 120.213 883 121.868L881.765 121.767C880.62 123.257 879.684 123.518 878 124.192L877.315 124.475C876.519 124.791 875.877 124.901 875.047 125.047C874.377 125.164 874.071 125.418 873.48 125.695L872.583 126.068L871.968 126.69L871.105 127.024L870.494 127.688L869.327 128.289C867.725 129.129 867.031 129.733 865.827 130.997C865.056 131.805 863.506 132.466 862.48 132.829L862.58 133.429C862.689 134.151 862.746 134.745 862.569 135.463C863.665 135.882 863.972 136.035 865.173 135.887L867.245 136.75C866.436 137.197 866.004 137.183 865.1 137.12C860.114 136.767 855.157 136.954 850.163 136.985C848.113 136.997 845.49 136.602 843.817 137.924C839.031 138.567 833.315 138.004 828.427 138.006L794.599 138.022L678.207 138.063L284.887 138.259L284.859 121.82Z"/>
	<path fill="#FCFDFD" d="M891.319 117.775L293.957 117.515L293.95 110.498L723.904 110.854L850.662 110.969L889.016 110.99C895.403 110.992 902.29 111.508 908.603 110.755L909.1 110.69C909.227 111.705 909.388 111.656 908.821 112.589L905.46 116.862C901.35 118.405 895.69 117.824 891.319 117.775Z"/>
	<path fill="#4B0B4B" d="M888.151 751.959L935.299 752.039L807.045 943.534L356.233 943.639L238.077 943.873L211.577 943.869C208.944 943.865 204.292 944.429 201.875 943.555C200.868 943.19 199.441 941.861 198.595 941.157L191.053 934.812L168.405 916.022C162.281 911.008 155.886 906.094 150.145 900.649C153.698 901.851 159.418 904.217 163.004 902.614L163.663 902.249C168.366 904.333 173.679 907.046 178.863 907.491C185.537 908.064 192.563 907.673 199.277 907.675L237.124 907.707L359.976 908.011L669.872 907.448L781.814 907.296L805.884 871.608C810.125 866.96 813.45 861.443 816.643 856.047L832.373 833.043C836.286 828.407 839.488 823.283 842.471 818.011L856.865 796.994C858.69 796.067 866.18 783.547 867.685 781.219L881.886 760.109L888.151 751.959Z"/>
	<path fill="#01063C" d="M938.082 97.1334L939.891 97.1464C939.897 99.5657 921.453 124.929 918.368 129.494L966.968 129.915L882.348 252.582L908.003 252.594C911.375 252.6 915.753 252.068 918.978 252.916C918.995 253.277 919.156 253.661 919.03 254C918.363 255.8 916.053 258.33 914.923 259.979L903.728 276.885L904.288 276.926L950.207 277.082L717.859 633.622L883.528 633.596L898.523 633.889L880.91 660.992L937.625 661.081L893.932 725.538L905.142 725.593L892.702 744.718L888.151 751.959L881.886 760.109L867.685 781.219C866.18 783.547 858.69 796.067 856.865 796.994L842.471 818.011C839.488 823.283 836.286 828.407 832.373 833.043L816.643 856.047C813.45 861.443 810.125 866.96 805.884 871.608L781.814 907.296L669.872 907.448L359.976 908.011L237.124 907.707L199.277 907.675C192.563 907.673 185.537 908.064 178.863 907.491C173.679 907.046 168.366 904.333 163.663 902.249L163.004 902.614C159.418 904.217 153.698 901.851 150.145 900.649C148.223 899.284 147.435 897.725 146.929 895.476C145.621 893.672 143.604 892.307 141.88 890.895L133.197 883.787L99.9288 856L82.1959 841.168C80.1957 839.41 77.404 837.458 75.9328 835.25L76.9563 834.013L211.348 638.372C218.88 625.65 228.034 613.517 236.248 601.199L295.648 513.129L323.65 471.549C327.195 466.323 330.851 459.453 335.165 454.946C337.834 449.315 342.413 443.811 345.906 438.603L370.371 402.019L312.282 401.799L300.085 401.777C298.513 401.762 296.079 402.052 294.63 401.711C291.903 401.069 288.026 397.572 285.5 395.971C277.024 390.597 268.197 385.61 260.102 379.662L152.941 312.652L272.815 138.596L284.592 138.459L284.859 121.82L284.887 138.259L678.207 138.063L794.599 138.022L828.427 138.006C833.315 138.004 839.031 138.567 843.817 137.924C845.49 136.602 848.113 136.997 850.163 136.985C855.157 136.954 860.114 136.767 865.1 137.12C866.004 137.183 866.436 137.197 867.245 136.75L865.173 135.887C863.972 136.035 863.665 135.882 862.569 135.463C862.746 134.745 862.689 134.151 862.58 133.429L862.48 132.829C863.506 132.466 865.056 131.805 865.827 130.997C867.031 129.733 867.725 129.129 869.327 128.289L870.494 127.688L871.105 127.024L871.968 126.69L872.583 126.068L873.48 125.695C874.071 125.418 874.377 125.164 875.047 125.047C875.877 124.901 876.519 124.791 877.315 124.475L878 124.192C879.684 123.518 880.62 123.257 881.765 121.767L883 121.868C885.832 120.213 888.572 119.731 891.319 117.775C895.69 117.824 901.35 118.405 905.46 116.862L908.821 112.589C909.388 111.656 909.227 111.705 909.1 110.69L909.006 109.918C910.684 109.728 910.579 109.65 911.693 108.354C914.11 108.062 914.279 106.169 916.265 105.265C917.393 104.751 918.806 104.633 920 104.192L920.875 103.857C922.078 103.631 923.313 103.705 924.5 103.188L925.266 102.767C926.066 102.851 926.627 102.889 927.42 102.68C929.49 102.135 929.712 101.46 930.726 99.7489L930.113 98.3955L928.188 97.807C930.768 97.8171 935.974 98.4332 938.082 97.1334Z"/>
	<path fill="#102F53" d="M542.272 247.256L554.324 247.323L550.704 252.795L548.75 254.802L542.272 247.256Z"/>
	<path fill="#EEE186" d="M609.149 834.562C607.464 834.549 604.849 834.885 603.328 834.254C606.674 828.69 610.075 822.639 614.145 817.578C614.019 819.796 613.867 822.25 614.266 824.433L609.149 834.562Z"/>
	<path fill="#EEE186" d="M692.504 699.465C693.013 703.289 676.535 727.831 673.189 732.215L672.916 732.558L672.121 733.214L661.131 751.415L660.25 752.085L659.75 751L659.255 751.5L659.426 752.047C659.97 754.127 658.279 756.48 657.179 758.204L649.333 768.876L647.28 767.205L669.088 733.914C677.128 722.764 683.697 709.972 692.504 699.465Z"/>
	<path fill="#102F53" d="M439.968 845.993L448.29 845.993C452.799 851.255 480.174 882.452 480.855 885.25C480.983 885.776 480.785 886.33 480.75 886.869L474.743 887.317C469.648 883.028 465.194 876.413 460.909 871.241L439.968 845.993Z"/>
	<path fill="#C20935" d="M442.476 507.456L467.429 467.052L470.715 473.778L472.492 475.587L473.5 475.583L474.285 474.5L473.246 471.747C475.693 470.879 478.436 471.098 481.008 471.071C479.566 471.843 478.69 472.506 477.621 473.75L477.499 475.561L476.378 476.253C470.958 478.743 468.05 482.14 464.283 486.64C462.544 488.718 460.684 490.833 459.572 493.329C457.821 497.261 456.794 501.808 454.508 505.452C455.63 506.029 456.66 506.412 457.858 506.782L462.291 506.093L465.403 506.17C464.604 507.004 463.883 507.771 462.949 508.463C461.599 508.43 460.315 508.406 458.988 508.134C455.015 507.318 450.367 508.124 446.449 508.936L446.226 507.98C445.118 507.957 444.174 507.966 443.099 507.664L442.476 507.456Z"/>
	<path fill="#E3193F" d="M473.246 471.747C475.693 470.879 478.436 471.098 481.008 471.071C479.566 471.843 478.69 472.506 477.621 473.75L477.499 475.561L476.378 476.253C470.958 478.743 468.05 482.14 464.283 486.64C462.544 488.718 460.684 490.833 459.572 493.329C457.821 497.261 456.794 501.808 454.508 505.452L452.774 505.301L452.491 504.5C458.039 494.084 460.218 480.909 470.715 473.778L472.492 475.587L473.5 475.583L474.285 474.5L473.246 471.747Z"/>
	<path fill="#51F4DD" d="M374.898 845.019L384.828 844.985L420.985 887.978L411.272 888.019L374.898 845.019Z"/>
	<path fill="#51F4DD" d="M565.966 845.016L575.447 844.982L610.984 888.239L600.269 888.287L565.966 845.016Z"/>
	<path fill="#51F4DD" d="M468.935 845.016L478.861 844.986L514.034 887.987L503.15 888.003L468.935 845.016Z"/>
	<path fill="#51F4DD" d="M274.685 845.252L284.248 845.29L320.64 887.997L309.15 888.014L274.685 845.252Z"/>
	<path fill="#51F4DD" d="M182.328 845.013L193.784 845.117L229.83 888.229L219.24 888.013L182.328 845.013Z"/>
	<path fill="#F39931" d="M270.166 225.221C269.608 229.266 266.679 232.571 264.25 235.736L264.75 236.542C265.935 236.574 267.213 236.743 268.297 236.18C269.197 235.713 270.214 233.581 270.804 232.731C272.737 229.953 274.756 226.752 277.424 224.648L277.791 224.37C274.314 231.154 269.105 237.637 264.738 243.897L236.329 284.954C231.6 291.762 225.856 298.751 221.925 306.029L218.5 305.861L217.959 305C219.944 298.823 224.631 293.059 228.241 287.698L242.848 265.943L270.166 225.221Z"/>
	<path fill="#102F53" d="M244.523 845.026L255.944 845.009L292.555 888.501L281.283 888.192L244.523 845.026Z"/>
	<path fill="#51F4DD" d="M417.265 304.991L408.096 305.026L386.173 272.851C382.393 267.34 378.232 262.021 374.818 256.275C373.619 254.258 372.053 252.038 371.484 249.75C371.73 249.175 371.991 248.43 372.393 247.93C373.691 246.312 375.057 246.561 376.927 246.464L417.265 304.991Z"/>
	<path fill="#51F4DD" d="M553.679 502.147L549.34 509.788L516.968 455.969L522.393 448.107C527.016 454.372 530.579 461.745 534.472 468.5L553.679 502.147Z"/>
	<path fill="#51F4DD" d="M331.572 308.634L366.749 360.312L361.579 367.967L326.514 315.964L331.572 308.634Z"/>
	<path fill="#0C747E" d="M469.434 304.999L460.286 305.029L419.071 247.023L428.812 247.222L469.434 304.999Z"/>
	<path fill="#F6B459" d="M649.333 768.876L657.179 758.204C658.279 756.48 659.97 754.127 659.426 752.047L659.255 751.5L659.75 751L660.25 752.085L661.131 751.415C662.901 751.985 663.785 751.75 665.535 751.199C659.91 759.393 653.278 767.187 648.044 775.592L628.604 809.633C623.717 817.776 617.679 825.9 613.874 834.597L609.149 834.562L614.266 824.433C613.867 822.25 614.019 819.796 614.145 817.578C614.96 815.084 617.553 812.074 619.047 809.818L632.43 789.845L647.28 767.205L649.333 768.876Z"/>
	<path fill="#FCFDFD" d="M632.43 789.845L647.28 767.205L649.333 768.876L634.324 792.158L632.43 789.845Z"/>
	<path fill="#F7F6D1" d="M614.145 817.578C614.96 815.084 617.553 812.074 619.047 809.818L632.43 789.845L634.324 792.158L621.731 812.805C619.293 816.689 617.07 820.801 614.266 824.433C613.867 822.25 614.019 819.796 614.145 817.578Z"/>
	<path fill="#102F53" d="M494.471 615.991L556.971 616.013L550.761 624.732L488.594 624.988L494.471 615.991Z"/>
	<path fill="#0D5268" d="M435.795 711.987L494.116 712.021C493.72 714.375 489.541 719.324 488.132 721.501L430.202 721.772C431.52 718.388 433.868 715.074 435.795 711.987Z"/>
	<path fill="#0C747E" d="M518.928 298.998L513.912 306.004L472.629 247.009L483.382 247.296L518.928 298.998Z"/>
	<path fill="#09CFC8" d="M784.931 642.982L866.408 643.013L861.788 650.355L780.558 650L784.931 642.982Z"/>
	<path fill="#A50438" d="M473.246 471.747L470.261 465.514L500.715 465.259C504.405 465.223 509.004 464.54 512.579 465.183L525.899 487.861L527.478 489.939L525.25 492.922L522.533 493.171C521.153 491.806 520.299 490.206 519.444 488.487C518.185 487.418 517.298 486.619 515.635 486.239C511.817 482.854 507.692 479.094 502.909 477.142C494.228 473.598 485.023 473.508 476.403 477.101L476.378 476.253L477.499 475.561L477.621 473.75C478.69 472.506 479.566 471.843 481.008 471.071C478.436 471.098 475.693 470.879 473.246 471.747Z"/>
	<path fill="#E3193F" d="M510.019 475.907C511.938 476.727 513.968 477.566 515.623 478.862C519.13 481.609 521.745 486.117 525.899 487.861L527.478 489.939L525.25 492.922L522.533 493.171C521.153 491.806 520.299 490.206 519.444 488.487C517.747 483.655 513.392 479.865 509.209 477.109L510.019 475.907Z"/>
	<path fill="#C31919" d="M481.008 471.071C491.03 468.434 501.035 471.405 510.019 475.907L509.209 477.109C513.392 479.865 517.747 483.655 519.444 488.487C518.185 487.418 517.298 486.619 515.635 486.239C511.817 482.854 507.692 479.094 502.909 477.142C494.228 473.598 485.023 473.508 476.403 477.101L476.378 476.253L477.499 475.561L477.621 473.75C478.69 472.506 479.566 471.843 481.008 471.071Z"/>
	<path fill="#F33D52" d="M481.008 471.071C491.03 468.434 501.035 471.405 510.019 475.907L509.209 477.109C503.664 474.201 497.094 471.306 490.68 472.175C486.27 472.772 481.853 474.536 477.499 475.561L477.621 473.75C478.69 472.506 479.566 471.843 481.008 471.071Z"/>
	<path fill="#102F53" d="M529.421 846.025L545.431 846.003C549.559 852.409 554.709 858.166 559.517 864.068L579.253 888.213L566.686 888.229C564.824 886.908 563.246 884.745 561.716 883.034L552.483 872.5L529.421 846.025Z"/>
	<path fill="#102F53" d="M337.192 846.042L352.352 846.013L388.407 888.973L374.128 889.011L337.192 846.042Z"/>
	<path fill="#0D5268" d="M548.531 530.989L611.434 531.014L604.703 541.288L542.549 540.988L548.531 530.989Z"/>
	<path fill="#0C747E" d="M340.095 295.85C345.274 301.509 349.223 308.429 353.511 314.762L375.541 347.045L369.576 355.473L333.978 305.028L340.095 295.85Z"/>
	<path fill="#0D5268" d="M609.193 845.225L621.307 845.296C625.509 850.162 654.594 885.059 654.822 887.834L653.125 888.208L641.274 888.253C637.154 883.337 608.067 848.447 607.599 845.617L609.193 845.225Z"/>
	<path fill="#102F53" d="M576.091 573.756L584.089 573.847C582.59 577.467 579.982 580.771 577.765 583.992L523.75 584.009L514.869 584.005C514.728 582.775 520.152 575.567 521.19 573.987L576.091 573.756Z"/>
	<path fill="#0D5268" d="M567.366 502.188L629.84 502.504C628.009 506.141 626.051 509.431 623.336 512.493L560.745 512.704L567.366 502.188Z"/>
	<path fill="#0D5268" d="M539.929 545.24L602.376 545.014L595.983 555.512L533.94 555.515C533.789 553.803 538.935 546.75 539.929 545.24Z"/>
	<path fill="#0D5268" d="M664.901 359.259L726.969 359.302L727.077 359.667L720.75 368.901L717.625 369.019L659 369.486C657.703 369.424 656.582 369.458 655.684 368.5L661.75 359.617L664.901 359.259Z"/>
	<path fill="#0D5268" d="M534.827 559.243L593.015 559.332L586.553 569.487L580.474 569.505L524.115 570C525.538 567.287 526.958 564.34 528.885 561.939C530.928 559.393 531.832 559.561 534.827 559.243Z"/>
	<path fill="#102F53" d="M512.195 587.982L575.331 588.034L567.941 598.225L505.67 598.513L512.195 587.982Z"/>
	<path fill="#102F53" d="M503.321 601.982L565.156 602.016C564.756 604.734 560.38 609.77 558.72 612.228L496.432 612.804L503.321 601.982Z"/>
	<path fill="#0D5268" d="M576.587 487.99L640.167 488.023L632.715 498.281L569.568 498.508L576.587 487.99Z"/>
	<path fill="#102F53" d="M414.786 846.015L430.822 846.009L464.165 886.876L463.75 887.74L449.501 887.827L414.786 846.015Z"/>
	<path fill="#0D5268" d="M221.915 845.028L236.793 845.006L273.575 887.982L257.65 888.009L221.915 845.028Z"/>
	<path fill="#0D5268" d="M558.146 516.491L620.893 516.508L614.013 526.993L551.016 527L558.146 516.491Z"/>
	<path fill="#A50438" d="M474.107 534.013C471.724 539.837 469.654 545.141 466.545 550.671L466.229 550.513C463.234 545.322 442.325 510.464 442.199 508.831C442.163 508.365 442.383 507.915 442.476 507.456L443.099 507.664C444.174 507.966 445.118 507.957 446.226 507.98L446.449 508.936C450.367 508.124 455.015 507.318 458.988 508.134C460.315 508.406 461.599 508.43 462.949 508.463L463.286 509.909C465.209 517.236 467.891 524.696 474.841 528.715C476.365 529.596 477.945 529.71 479.565 530.268C478.721 531.334 477.917 532.414 476.954 533.376L476.026 534.809L475.716 535.308L474.718 533.999L474.107 534.013Z"/>
	<path fill="#F39931" d="M446.449 508.936C450.367 508.124 455.015 507.318 458.988 508.134C460.315 508.406 461.599 508.43 462.949 508.463L463.286 509.909L460.5 510.098C459.738 511.492 460.289 513.015 460.75 514.517C462.074 518.827 465.114 523.532 468.384 526.617C469.472 527.644 474.498 530.98 474.906 532C475.076 532.425 474.833 533.564 474.718 533.999L474.107 534.013C470.529 531.239 467.46 527.826 464.848 524.147C461.88 519.966 459.916 515.365 458.429 510.474L447 509.871L446.449 508.936Z"/>
	<path fill="#960704" d="M474.718 533.999C474.833 533.564 475.076 532.425 474.906 532C474.498 530.98 469.472 527.644 468.384 526.617C465.114 523.532 462.074 518.827 460.75 514.517C460.289 513.015 459.738 511.492 460.5 510.098L463.286 509.909C465.209 517.236 467.891 524.696 474.841 528.715C476.365 529.596 477.945 529.71 479.565 530.268C478.721 531.334 477.917 532.414 476.954 533.376L476.026 534.809L475.716 535.308L474.718 533.999Z"/>
	<path fill="#0C747E" d="M759.463 682.984L839.011 683.043L833.111 690.75C832.737 690.999 832.414 691.348 831.99 691.498C831.189 691.781 828.979 691.498 828.072 691.498L816.272 691.498L754.152 691.497L759.463 682.984Z"/>
	<path fill="#0C747E" d="M484.365 845.013L499.826 845.026C504.513 849.383 508.292 854.968 512.345 859.94L535.086 887.997L519.556 888.028L484.365 845.013Z"/>
	<path fill="#0D5268" d="M671.961 344.49L737.602 344.861L730 354.985L664.568 354.993L671.961 344.49Z"/>
	<path fill="#0C747E" d="M390.263 845.192L406.745 845.496L441.467 887.511L425.367 887.748L390.263 845.192Z"/>
	<path fill="#0D5268" d="M585.931 473.485L649.981 473.512L642.483 484.003L578.885 484.498L585.931 473.485Z"/>
	<path fill="#0D5268" d="M652.557 373.505L718.15 373.505L711.323 384L645.049 383.988L652.557 373.505Z"/>
	<path fill="#0D5268" d="M349.411 282.052L385.312 331.816C383.832 335.217 380.935 338.572 378.75 341.59L378.374 341.672C375.789 340.438 347.006 297.167 342.939 291.149C344.635 287.881 347.139 284.937 349.411 282.052Z"/>
	<path fill="#0D5268" d="M595.442 458.494L660.477 458.499L652.965 468.75C652.201 469.312 651.896 469.414 650.963 469.501C644.314 470.121 637.253 469.504 630.565 469.499L588.5 469.709L595.442 458.494Z"/>
	<path fill="#08C0BF" d="M317.993 736.845L385.418 637.484L470.25 637.521L470.973 638.25L470.156 640.009L387.42 641.032L352.449 693.664C343.147 707.616 334.266 722.239 323.137 734.825L317.993 736.845Z"/>
	<path fill="#0C747E" d="M288.396 845.495L306.407 845.497L341.598 887.998L325.219 888.016L288.396 845.495Z"/>
	<path fill="#0C747E" d="M506.462 845.499L522.781 845.488L558.587 888.232L541.383 888.269L506.462 845.499Z"/>
	<path fill="#0C747E" d="M197.871 845.017L214.779 845.278L251.518 888.263L234.699 888.518L197.871 845.017Z"/>
	<path fill="#0C747E" d="M777.019 654.996L858.161 655.31L851.892 664.007L770.453 664.168L777.019 654.996Z"/>
	<path fill="#0C747E" d="M615.65 427.99L681.873 427.834L674.465 438.25C674.139 438.494 673.866 438.833 673.488 438.982C673.009 439.17 671.366 438.985 670.816 438.986L660.763 439.002L608.515 439.175L615.65 427.99Z"/>
	<path fill="#0C747E" d="M312.168 845.74L329.1 845.73L365.028 888.512L347.668 888.512L312.168 845.74Z"/>
	<path fill="#102F53" d="M642.514 389.01L708.468 389.016L700.244 399.982L634.173 400.838L642.514 389.01Z"/>
	<path fill="#0C747E" d="M581.868 845.181L598.364 845.283C598.433 845.291 599.263 845.453 599.419 845.573C601.997 847.566 605.163 852.538 607.327 855.131L634.661 887.994L617.242 888.299L581.868 845.181Z"/>
	<path fill="#0D5268" d="M605.984 442.992L671.226 443.018C671.197 444.606 664.201 452.832 662.935 454.494L597.953 454.703L605.984 442.992Z"/>
	<path fill="#0C747E" d="M456.501 679.259L515.557 679.333L506.942 692.014L448.382 692.534L456.501 679.259Z"/>
	<path fill="#0C747E" d="M767.902 668.993L848.423 669.032L841.725 678.469L762.04 678.493L767.902 668.993Z"/>
	<path fill="#0C747E" d="M446.458 695.493L504.512 695.509C504.393 696.656 503.377 697.792 502.751 698.755L496.331 708.509L438.023 709.014C437.844 707.87 445.335 697.226 446.458 695.493Z"/>
	<path fill="#0D5268" d="M751.297 696.21L829.315 696.02L822.336 705.998L744.257 706.514L751.297 696.21Z"/>
	<path fill="#0D5268" d="M731.303 726.497L808.442 726.505L801.519 736.455C792.654 737.456 783.636 736.718 774.727 736.698L725.179 736.776C726.14 733.489 729.431 729.479 731.303 726.497Z"/>
	<path fill="#102F53" d="M670.849 820.254L743.968 820.029L736.138 830.997L663.556 831.004L670.849 820.254Z"/>
	<path fill="#0D5268" d="M756.267 773.257L776.462 773.022C773.602 776.358 771.333 780.377 768.832 784.007L714.25 784.012L693.951 783.99C696.725 780.69 698.817 777.239 700.921 773.497L756.267 773.257Z"/>
	<path fill="#08C0BF" d="M626.972 411.484L692.822 411.307L684.677 423.522L618.921 423.691C618.811 422.582 625.936 412.998 626.972 411.484Z"/>
	<path fill="#0D5268" d="M740.869 711.249L819.471 711.038L811.922 720.98L756.11 721.452L742.11 721.492C739.815 721.498 736.963 721.821 734.74 721.314L740.869 711.249Z"/>
	<path fill="#102F53" d="M690.625 788.718L750.055 788.857L760.197 788.94C761.792 788.953 763.797 788.743 765.3 789.236L758.522 799.505L684.232 799.514C686.152 795.667 688.174 792.242 690.625 788.718Z"/>
	<path fill="#0D5268" d="M711.254 757.722L786.93 757.504L779.473 768.003L704.102 768.5L711.254 757.722Z"/>
	<path fill="#102F53" d="M721.083 804.258L755.539 804.017L747.384 814.995L707.649 815.16L674.034 815.138L680.878 804.5L721.083 804.258Z"/>
	<path fill="#0D5268" d="M721.962 741.73L798.452 741.501L790.549 752.265L714.864 752.509C714.9 751.703 715.794 750.721 716.26 750.029L721.962 741.73Z"/>
	<path fill="#09CFC8" d="M522.962 304.768C524.776 306.264 526.485 307.717 528.563 308.843C525.955 310.022 523.526 313.962 521.732 316.218C512.197 328.208 503.907 341.28 495.126 353.823L461.604 401.775L447.791 422.86C446.109 420.551 444.84 418.03 443.514 415.508L522.962 304.768Z"/>
	<path fill="#0C747E" d="M503.613 661.259L526.886 661.031L517.762 676.015L481.75 676.025L458.49 676.002L469.012 661.497L503.613 661.259Z"/>
	<path fill="#FCFDFD" d="M178.474 305.537C176.978 305.489 174.717 305.718 173.546 304.75L193.287 275.25L234.852 213.347L265.112 168.069L274.338 154.254C275.683 152.257 277.394 149.244 279.433 147.889C280.36 147.274 282.958 148.049 284.133 148.25C281.794 153.628 277.855 158.524 274.499 163.324L262.387 181.136L196.668 279.152L185.16 296.138C183 299.174 180.171 302.267 178.474 305.537Z"/>
	<path fill="#FCFDFD" d="M729.041 641.986L748.276 642.022L717.739 690.512L697.988 690.489L729.041 641.986Z"/>
	<path fill="#FCFDFD" d="M756.432 641.98L775.861 642.021L744.287 690.517L725.349 690.488C728.72 682.536 734.568 675.261 739.366 668.103L756.432 641.98Z"/>
	<path fill="#09CFC8" d="M613.75 147.846L744.348 148.026L724.719 175.009L688.283 175.215L707.867 147.891L613.75 147.846Z"/>
	<path fill="#0C747E" d="M742.128 324.748L751.05 324.839L739.927 340.512L684.25 340.496L674.672 340.503L684.075 324.988L742.128 324.748Z"/>
	<path fill="#102F53" d="M282.562 314.739L304.911 315.007L343.454 369.982L326.58 370.018L282.562 314.739Z"/>
	<path fill="#0D5268" d="M811.406 156.536L818.836 166.236L773.82 228.843L764.896 241.199C763.493 243.135 762.138 245.834 760.22 247.25C759.835 244.824 760.027 242.136 759.996 239.671L751.554 239.51L811.406 156.536Z"/>
	<path fill="#0D5268" d="M363.93 260.727C369.709 265.811 373.924 273.367 378.272 279.668L399.782 311.304L388.44 327.934L352.474 277.526L363.93 260.727Z"/>
	<path fill="#0D5268" d="M250.872 315.014L275.735 315.038C282.454 321.566 288.308 330.371 294.047 337.846L319.985 369.974L297.909 370.305L250.872 315.014Z"/>
	<path fill="#FCFDFD" d="M275.456 791.01L527.315 790.982L594.592 790.988L612.223 790.995C615.437 790.997 619.069 790.653 622.221 791.25C621.706 792.475 621.002 793.427 620.217 794.483L607.212 794.955L564.035 795.003L363.938 795.031L302.542 794.565L283.633 794.372C281.274 794.308 278.244 794.56 276.036 793.75L275.456 791.01Z"/>
	<path fill="#FBD757" d="M205.361 315.03L243.423 314.996C248.83 319.217 253.619 326.171 258.119 331.399L291.449 370.513L282.021 370.51C281.069 370.51 279.107 370.776 278.245 370.509C277.275 370.21 275.379 368.371 274.52 367.721L260.135 356.459L205.361 315.03Z"/>
	<path fill="#C20935" d="M515.635 486.239C517.298 486.619 518.185 487.418 519.444 488.487C520.299 490.206 521.153 491.806 522.533 493.171L525.25 492.922L527.478 489.939L543.483 517.526L521.816 550.015L470.299 550.495L475.716 535.308L476.026 534.809C483.894 538.55 494.315 539.008 502.584 536.086L504.376 535.363L508.393 533.343L516.278 525.307C517.47 524.182 519.482 522.566 519.79 520.894C520.252 518.385 519.933 515.501 520.041 512.937C520.305 506.677 521.85 498.625 519.8 492.658C519.046 490.462 516.989 488.135 515.635 486.239Z"/>
	<path fill="#4B0B4B" d="M508.393 533.343L516.278 525.307C518.825 526.88 521.43 526.999 524.238 527.786C523.986 528.308 523.614 529.405 523.123 529.777L512.34 538.333C509.938 537.634 506.237 537.024 504.376 535.363L508.393 533.343Z"/>
	<path fill="#A50438" d="M508.393 533.343L516.278 525.307C518.825 526.88 521.43 526.999 524.238 527.786C523.986 528.308 523.614 529.405 523.123 529.777C521.494 529.48 518.462 528.552 517 529.446C513.722 531.45 512.547 533.1 508.393 533.343Z"/>
	<path fill="#6B0730" d="M515.635 486.239C517.298 486.619 518.185 487.418 519.444 488.487C520.299 490.206 521.153 491.806 522.533 493.171C524.239 496.61 524.611 499.753 525.017 503.5C525.894 511.614 525.996 519.788 524.238 527.786C521.43 526.999 518.825 526.88 516.278 525.307C517.47 524.182 519.482 522.566 519.79 520.894C520.252 518.385 519.933 515.501 520.041 512.937C520.305 506.677 521.85 498.625 519.8 492.658C519.046 490.462 516.989 488.135 515.635 486.239Z"/>
	<path fill="#09CFC8" d="M730.631 174.006L749.151 147.98L810.458 147.873L792.036 174.449L749.178 174.477L736.891 174.475C734.828 174.473 732.58 174.738 730.631 174.006Z"/>
	<path fill="#F6B459" d="M270.166 225.221L322.662 147.492C323.98 146.401 417.651 147.013 428.555 147.019L422.534 156.882L345.88 155.996L334.5 155.925C333.492 155.91 331.257 155.546 330.382 155.777C329.894 155.906 328.786 157.046 328.375 157.418C318.824 166.066 311.531 177.092 304.107 187.528L277.791 224.37L277.424 224.648C274.756 226.752 272.737 229.953 270.804 232.731C270.214 233.581 269.197 235.713 268.297 236.18C267.213 236.743 265.935 236.574 264.75 236.542L264.25 235.736C266.679 232.571 269.608 229.266 270.166 225.221Z"/>
	<path fill="#0C747E" d="M376.927 246.464L377.642 246.531L405.392 247.013L445.909 304.985L417.265 304.991L376.927 246.464Z"/>
	<path fill="#102F53" d="M428.812 247.222L459.184 246.991L497.134 304.833C493.811 305.259 490.274 305.014 486.924 305.013L469.434 304.999L428.812 247.222Z"/>
	<path fill="#102F53" d="M483.382 247.296L521.181 247.206C526.147 247.207 532.769 246.435 537.512 247.43C540.598 251.077 543.608 254.743 546.12 258.816L518.928 298.998L483.382 247.296Z"/>
	<defs>
		<linearGradient id="gradient_1" gradientUnits="userSpaceOnUse" x1="676.4024" y1="780.18298" x2="644.68909" y2="747.81793">
			<stop offset="0" stop-color="#FA4128"/>
			<stop offset="1" stop-color="#E72742"/>
		</linearGradient>
	</defs>
	<path fill="url(#gradient_1)" d="M692.504 699.465C696.853 696.977 707.287 698.374 712.433 698.503L623.458 834.312L613.874 834.597C617.679 825.9 623.717 817.776 628.604 809.633L648.044 775.592C653.278 767.187 659.91 759.393 665.535 751.199C663.785 751.75 662.901 751.985 661.131 751.415L672.121 733.214L672.916 732.558L673.189 732.215C676.535 727.831 693.013 703.289 692.504 699.465Z"/>
	<path fill="#FBD757" d="M672.121 733.214L672.916 732.558L676.5 732.59L677.058 733.25C676.179 735.917 674.103 738.455 672.551 740.797C670.254 744.262 668.09 747.928 665.535 751.199C663.785 751.75 662.901 751.985 661.131 751.415L672.121 733.214Z"/>
	<path fill="#102F53" d="M688.062 836.258L733.149 835.995C733.208 836.616 733.251 836.246 732.683 837.006L699.451 883.596L696.382 887.497C693.816 885.49 659.522 840.962 659.016 839.25C659.275 838.318 659.459 837.97 660.141 837.232C660.829 836.487 660.504 836.629 661.344 836.59L688.062 836.258Z"/>
	<path fill="#FCFDFD" d="M528.563 308.843L542.508 309.074C541.027 312.885 537.678 316.712 535.345 320.113L519.626 342.972L455.628 435.719L447.791 422.86L461.604 401.775L495.126 353.823C503.907 341.28 512.197 328.208 521.732 316.218C523.526 313.962 525.955 310.022 528.563 308.843Z"/>
	<path fill="#0C747E" d="M688.283 175.215L724.719 175.009L679.397 239.016L643.003 239.003L687.844 175.42L688.283 175.215Z"/>
	<path fill="#C20935" d="M422.017 376.956L466.577 312.983L496.115 313.012C497.961 313.014 503.424 312.489 504.784 313.24L460.034 377.201C455.578 376.685 450.761 376.993 446.264 376.985L422.017 376.956Z"/>
	<path fill="#F39931" d="M719.821 698.49L739.683 698.495L650.559 834.517L630.713 834.488L719.821 698.49Z"/>
	<path fill="#960704" d="M476.403 477.101C485.023 473.508 494.228 473.598 502.909 477.142C507.692 479.094 511.817 482.854 515.635 486.239C516.989 488.135 519.046 490.462 519.8 492.658C521.85 498.625 520.305 506.677 520.041 512.937C519.933 515.501 520.252 518.385 519.79 520.894C519.482 522.566 517.47 524.182 516.278 525.307L508.393 533.343L504.376 535.363L502.584 536.086C494.315 539.008 483.894 538.55 476.026 534.809L476.954 533.376C477.917 532.414 478.721 531.334 479.565 530.268C477.945 529.71 476.365 529.596 474.841 528.715C467.891 524.696 465.209 517.236 463.286 509.909L462.949 508.463C463.883 507.771 464.604 507.004 465.403 506.17L462.291 506.093L457.858 506.782C456.66 506.412 455.63 506.029 454.508 505.452C456.794 501.808 457.821 497.261 459.572 493.329C460.684 490.833 462.544 488.718 464.283 486.64C468.05 482.14 470.958 478.743 476.378 476.253L476.403 477.101Z"/>
	<path fill="#C31919" d="M457.858 506.782C458.008 502.873 458.954 499.709 461.25 496.504L464.082 497.453C463.356 500.316 462.617 503.15 462.291 506.093L457.858 506.782Z"/>
	<path fill="#FBD757" d="M464.082 497.453C466.217 492.221 469.731 486.292 474.9 483.541C474.6 484.859 474.445 486.374 473.591 487.455C468.102 493.286 466.347 497.624 465.96 505.575L465.403 506.17L462.291 506.093C462.617 503.15 463.356 500.316 464.082 497.453Z"/>
	<path fill="#09CFC8" d="M474.9 483.541C476.962 482.173 479.218 480.832 481.506 479.876C488.842 476.811 496.606 478.322 503.669 481.294C509 484.183 513.796 488.506 515.536 494.5C515.952 495.932 516.439 497.564 516.519 499.045C515.465 501.128 514.598 502.792 512.896 504.429L512.799 503.883C512.29 502.469 512.057 501.535 511.89 500.002L510.336 498.852C508.801 495.572 508.232 493.217 505.573 490.443C501.592 486.29 495.929 484.437 490.292 484.271C484.788 484.109 478.563 484.325 474.314 488.281L473.591 487.455C474.445 486.374 474.6 484.859 474.9 483.541Z"/>
	<path fill="#F39931" d="M476.403 477.101C485.023 473.508 494.228 473.598 502.909 477.142C507.692 479.094 511.817 482.854 515.635 486.239C516.989 488.135 519.046 490.462 519.8 492.658C521.85 498.625 520.305 506.677 520.041 512.937C519.933 515.501 520.252 518.385 519.79 520.894C519.482 522.566 517.47 524.182 516.278 525.307L508.393 533.343L504.376 535.363L502.584 536.086C494.315 539.008 483.894 538.55 476.026 534.809L476.954 533.376C477.917 532.414 478.721 531.334 479.565 530.268C487.602 533.86 493.006 533.186 501.374 531.161C505.454 529.63 509.234 527.18 512.291 524.088L515.272 523.988C516.146 523.099 516.789 521.961 517.311 520.831C519.364 516.38 519.024 510.308 519.126 505.496C519.211 501.469 519.63 496.816 518.094 493.016C516.121 488.136 508.994 482.657 504.212 480.637L504.115 480.545C497.94 477.05 492.112 475.396 485.007 476.322C475.465 477.565 469.445 483.465 463.791 490.75L463.25 490.414C465.643 484.85 471.357 480.185 476.403 477.101Z"/>
	<path fill="#C31919" d="M512.291 524.088L515.272 523.988C509.261 531.461 501.547 535.149 492.083 536.182C486.574 536.784 482.127 534.651 476.954 533.376C477.917 532.414 478.721 531.334 479.565 530.268C487.602 533.86 493.006 533.186 501.374 531.161C505.454 529.63 509.234 527.18 512.291 524.088Z"/>
	<path fill="#08C0BF" d="M465.96 505.575C466.347 497.624 468.102 493.286 473.591 487.455L474.314 488.281C471.641 491.305 470.041 493.973 468.675 497.781C470.331 498.943 471.565 499.624 473.506 500.152L474.441 500.419L475.093 500.597C473.927 503.051 472.807 505.335 473.021 508.105L472.938 508.377C474.471 513.041 476.874 515.735 480.678 518.646C486.109 513.983 492.114 512.89 498.5 510.067C500.777 511.754 500.209 515.268 501.25 517.888C502.406 518.506 503.105 518.693 504.414 518.75C505.286 518.055 506.019 517.426 506.679 516.517C511.001 510.567 511.27 505.793 510.336 498.852L511.89 500.002C512.057 501.535 512.29 502.469 512.799 503.883L512.896 504.429C514.598 502.792 515.465 501.128 516.519 499.045C517.869 505.925 517.502 516.352 513.613 522.25L512.291 524.088C509.234 527.18 505.454 529.63 501.374 531.161C493.006 533.186 487.602 533.86 479.565 530.268C477.945 529.71 476.365 529.596 474.841 528.715C467.891 524.696 465.209 517.236 463.286 509.909L462.949 508.463C463.883 507.771 464.604 507.004 465.403 506.17L465.96 505.575Z"/>
	<path fill="#DBADA6" d="M493.387 513.472C494.839 512.498 496.053 511.679 497.75 511.214L498.845 511.657C499.211 513.272 499.4 514.474 498.625 516.022C498.404 516.463 498.234 516.597 497.919 516.916C497.519 516.463 497.759 516.647 497.116 516.365C495.382 515.605 494.538 514.973 493.387 513.472Z"/>
	<path fill="#94BBBF" d="M468.675 497.781C470.331 498.943 471.565 499.624 473.506 500.152L474.441 500.419L475.093 500.597C473.927 503.051 472.807 505.335 473.021 508.105L472.938 508.377C471.708 508.964 470.546 509.443 469.25 509.862L468.25 508.844C467.616 504.955 467.769 501.601 468.675 497.781Z"/>
	<path fill="#EAA595" d="M497.919 516.916C496.492 518.311 494.227 519.504 492.319 520.136L491.75 520.315C488.885 521.232 485.292 521.652 482.524 520.25L482.451 519.25C485.769 515.667 488.845 514.942 493.387 513.472C494.538 514.973 495.382 515.605 497.116 516.365C497.759 516.647 497.519 516.463 497.919 516.916Z"/>
	<path fill="#51F4DD" d="M516.519 499.045C517.869 505.925 517.502 516.352 513.613 522.25L512.291 524.088C509.234 527.18 505.454 529.63 501.374 531.161L499.212 529.07C506.768 524.506 513.611 519.041 512.817 509.17C512.696 507.668 512.133 505.79 512.896 504.429C514.598 502.792 515.465 501.128 516.519 499.045Z"/>
	<path fill="#EEE186" d="M465.403 506.17L465.96 505.575C467.201 512.894 468.71 519.989 475.016 524.707C477.258 526.383 479.862 527.673 482.5 528.575L483.186 528.816C488.847 530.748 493.472 530.653 499.212 529.07L501.374 531.161C493.006 533.186 487.602 533.86 479.565 530.268C477.945 529.71 476.365 529.596 474.841 528.715C467.891 524.696 465.209 517.236 463.286 509.909L462.949 508.463C463.883 507.771 464.604 507.004 465.403 506.17Z"/>
	<path fill="#F39931" d="M474.314 488.281C478.563 484.325 484.788 484.109 490.292 484.271C495.929 484.437 501.592 486.29 505.573 490.443C508.232 493.217 508.801 495.572 510.336 498.852C511.27 505.793 511.001 510.567 506.679 516.517C506.019 517.426 505.286 518.055 504.414 518.75C503.105 518.693 502.406 518.506 501.25 517.888C500.209 515.268 500.777 511.754 498.5 510.067C492.114 512.89 486.109 513.983 480.678 518.646C476.874 515.735 474.471 513.041 472.938 508.377L473.021 508.105C472.807 505.335 473.927 503.051 475.093 500.597L474.441 500.419L473.506 500.152C471.565 499.624 470.331 498.943 468.675 497.781C470.041 493.973 471.641 491.305 474.314 488.281Z"/>
	<path fill="#EEE186" d="M475.093 500.597C477.767 498.096 480.848 496.135 484.653 496.231C486.796 496.285 488.25 496.934 489.905 498.25C490.067 499.604 490.144 500.137 489.197 501.196C488.089 502.435 485.835 504.778 484.354 505.462C483.171 506.008 480.221 505.715 478.75 506.051C476.76 506.505 474.958 507.51 473.021 508.105C472.807 505.335 473.927 503.051 475.093 500.597Z"/>
	<path fill="#09CFC8" d="M173.574 834.659L162.133 834.497L440.6 420.327L444.696 426.431L173.574 834.659Z"/>
	<path fill="#0D5268" d="M821.538 169.845L830.245 182.267L786.947 246L787.25 246.681L832.783 186.497L840.926 198.299L812.052 238.372L760.271 310.151C759.881 304.879 760.355 299.758 760.422 294.499L760.603 266.239L760.646 256.256C760.648 255.571 760.441 253.881 760.654 253.26C761.301 251.369 763.706 248.744 764.939 247.107L772.75 236.468L821.538 169.845Z"/>
	<path fill="#4B0B4B" d="M260.102 379.662C264.002 379.247 268.073 379.494 272.004 379.487L293.383 379.453L363.83 379.294L373.149 365.137L395.498 331.245C399.435 325.259 403.149 318.488 407.745 313.014L431.448 313.023L388.116 376.408C383.548 382.026 379.714 388.448 375.675 394.461C374.078 396.84 372.38 400 370.371 402.019L312.282 401.799L300.085 401.777C298.513 401.762 296.079 402.052 294.63 401.711C291.903 401.069 288.026 397.572 285.5 395.971C277.024 390.597 268.197 385.61 260.102 379.662Z"/>
	<path fill="#0C747E" d="M610.016 316.886L657.085 247.686L673.999 247.743L673.99 294.422C673.971 303.324 673.057 312.521 674.627 321.336L661.013 341.059C659.93 342.645 658.167 346.155 656.748 347.216L610.016 316.886Z"/>
	<path fill="#0C747E" d="M730.631 174.006C732.58 174.738 734.828 174.473 736.891 174.475L749.178 174.477L792.036 174.449L747.064 239.011L684.475 238.995L730.631 174.006Z"/>
	<defs>
		<linearGradient id="gradient_2" gradientUnits="userSpaceOnUse" x1="264.89203" y1="236.33974" x2="225.41559" y2="216.06143">
			<stop offset="0" stop-color="#009694"/>
			<stop offset="1" stop-color="#008A9B"/>
		</linearGradient>
	</defs>
	<path fill="url(#gradient_2)" d="M284.133 148.25L312.371 147.801L236.455 259.672L215.37 290.472C211.96 295.399 208.608 301.329 204.342 305.508L178.474 305.537C180.171 302.267 183 299.174 185.16 296.138L196.668 279.152L262.387 181.136L274.499 163.324C277.855 158.524 281.794 153.628 284.133 148.25Z"/>
	<path fill="#F6B459" d="M682.915 247.497L754.432 247.507L754.409 315.516L682.519 315.16L682.915 247.497Z"/>
	<path fill="#01063C" d="M717.367 256.132C723.465 255.49 730.485 257.274 735.412 260.873C740.696 264.732 744.547 271.484 745.387 278C746.319 285.226 743.913 291.746 739.311 297.245C734.94 302.469 729.19 304.29 722.624 304.77C716.374 305.357 709.735 303.489 704.532 299.982C699.215 296.397 695.753 290.195 694.659 283.974C693.569 277.782 695.244 271.458 698.928 266.402C703.458 260.184 709.985 257.38 717.367 256.132Z"/>
	<path fill="#08C0BF" d="M714.824 259.537C719.453 259.627 722.823 259.203 727.16 261.218C731.807 263.377 735.079 267.2 736.696 272.016C738.395 277.073 737.792 283.162 735.37 287.887C732.381 293.717 728.121 295.925 722.181 297.961C717.979 298.186 713.623 297.548 709.825 295.717C705.445 293.605 702.518 289.823 700.955 285.294C699.045 279.76 699.528 274.39 702.092 269.153C704.87 263.477 709.183 261.48 714.824 259.537Z"/>
	<path fill="#0C747E" d="M522.962 304.768L546.884 270.842C552.377 263.03 557.785 254.658 564.102 247.495L652.632 247.795L606.326 315.089C604.622 313.551 601.216 309.66 599.107 309.05C597.781 308.666 595.141 308.966 593.739 308.99L577.481 309.457L542.508 309.074L528.563 308.843C526.485 307.717 524.776 306.264 522.962 304.768Z"/>
	<path fill="#F39931" d="M598.333 172.582C608.701 174.5 619.902 173.448 630.436 173.749L687.844 175.42L643.003 239.003L551.574 238.491L598.333 172.582Z"/>
	<path fill="#FCFDFD" d="M620.299 188.75C621.286 188.688 622.312 188.795 623.25 189.135C624.886 189.729 626.354 190.857 627.149 192.416C628.086 194.253 628.17 196.16 627.383 198.075C626.425 200.411 624.73 201.282 622.492 202.174L620.504 202.085C618.687 201.91 617.268 201.249 616.121 199.804C614.535 197.807 614.371 196.228 614.598 193.75C615.953 190.95 617.399 189.805 620.299 188.75Z"/>
	<path fill="#FCFDFD" d="M635.368 210.75C636.297 210.58 637.305 210.58 638.25 210.511C640.63 211.569 642.567 212.986 643.613 215.466C644.343 217.194 644.181 219.34 643.337 220.994C642.261 223.101 640.45 224.031 638.297 224.75C637.438 224.756 637.466 224.812 636.778 224.67C634.284 224.153 632.398 222.681 631.09 220.5C630.347 219.259 629.888 217.349 630.262 215.944C630.955 213.341 633.141 211.951 635.368 210.75Z"/>
	<path fill="#FCFDFD" d="M613.75 147.846L707.867 147.891L688.283 175.215L687.844 175.42L630.436 173.749C619.902 173.448 608.701 174.5 598.333 172.582C590.417 171.742 582.215 172.143 574.25 171.997L539.25 170.987L465.963 169.128L439.903 169.012C435.174 169.009 430.208 169.375 425.542 168.582L439.434 147.978L613.75 147.846Z"/>
	<path fill="#FCFDFD" d="M173.574 834.659L444.696 426.431L452.765 440.616L323.039 631.975L310.887 650.268L229.471 772.683L203.916 811C198.779 818.696 193.072 826.291 188.822 834.51L173.574 834.659Z"/>
	<defs>
		<linearGradient id="gradient_3" gradientUnits="userSpaceOnUse" x1="273.32324" y1="692.34497" x2="474.21405" y2="707.07129">
			<stop offset="0" stop-color="#0E6876"/>
			<stop offset="1" stop-color="#059199"/>
		</linearGradient>
	</defs>
	<path fill="url(#gradient_3)" d="M324.552 634.375L325.338 633.556C326.579 632.347 327.985 631.26 329.635 630.676C333.682 629.245 338.632 628.868 342.875 628.022C374.645 621.684 406.986 619.157 439.25 616.864C453.704 615.836 468.458 614.01 482.938 614.03L475.018 627.012L410.581 627.176L392.671 627.208C389.527 627.209 386.055 626.908 382.955 627.362L274.425 788.191L269.569 767.995C266.079 743.369 272.373 716.837 283.81 694.931C291.625 679.963 302.172 666.091 312.248 652.589L310.887 650.268L323.039 631.975C323.526 632.784 323.984 633.62 324.552 634.375Z"/>
	<path fill="#07A1B3" d="M323.039 631.975C323.526 632.784 323.984 633.62 324.552 634.375L312.248 652.589L310.887 650.268L323.039 631.975Z"/>
	<path fill="#08C0BF" d="M542.508 309.074L577.481 309.457L593.739 308.99C595.141 308.966 597.781 308.666 599.107 309.05C601.216 309.66 604.622 313.551 606.326 315.089L510.823 454.031L465.922 454.024L458.898 441.69C457.856 439.844 456.361 437.698 455.628 435.719L519.626 342.972L535.345 320.113C537.678 316.712 541.027 312.885 542.508 309.074Z"/>
	<path fill="#08C0BF" d="M610.016 316.886L656.748 347.216L553.679 502.147L534.472 468.5C530.579 461.745 527.016 454.372 522.393 448.107L610.016 316.886Z"/>
	<path fill="#FCFDFD" d="M584.431 391.75C585.733 391.383 587.089 391.581 588.422 391.662C589.976 392.529 591.306 393.298 592.14 394.934C592.932 396.487 592.978 399.173 592.217 400.745C591.305 402.626 590.055 403.437 588.194 404.25C586.998 404.491 585.367 404.699 584.181 404.394C582.561 403.977 581.06 402.562 580.247 401.143C579.358 399.591 579.176 397.735 579.805 396.049C580.611 393.893 582.429 392.664 584.431 391.75Z"/>
	<path fill="#01063C" d="M601.59 344.75L604 344.484C606.345 344.612 608.395 345.889 609.858 347.667C611.384 349.521 611.807 351.36 611.413 353.75C610.912 356.789 608.164 358.765 605.75 360.313C604.325 360.54 602.466 360.708 601.064 360.353C599.337 359.915 597.684 358.75 596.815 357.194C595.515 354.864 595.32 352.679 596.164 350.173C597.077 347.463 599.133 345.973 601.59 344.75Z"/>
	<path fill="#F33D52" d="M628.034 358.571C629.063 358.586 630.013 358.637 631.023 358.86C634.074 359.533 636.151 360.977 637.846 363.581C638.13 365.005 638.285 366.036 637.809 367.439C636.656 370.832 633.703 372.615 630.629 374.064C629.039 374.095 627.536 374.062 626 373.598C623.864 372.953 621.778 371.488 620.866 369.391C620.256 367.985 620.195 365.653 620.827 364.229C622.18 361.175 625.052 359.645 628.034 358.571Z"/>
	<path fill="#08C0BF" d="M425.542 168.582C430.208 169.375 435.174 169.009 439.903 169.012L465.963 169.128L539.25 170.987L574.25 171.997C582.215 172.143 590.417 171.742 598.333 172.582L551.574 238.491L377.386 238.998L425.542 168.582Z"/>
	<path fill="#FCFDFD" d="M506.745 192.75C507.745 192.598 508.488 192.523 509.486 192.764C512.243 193.432 513.918 194.722 515.25 197.237C516.509 199.614 516.42 202.022 515.519 204.5C514.468 207.389 512.064 208.695 509.446 209.986C507.931 209.99 506.127 210.092 504.668 209.656C502.763 209.085 501.174 207.04 500.315 205.35C499.338 203.428 499.105 200.835 499.846 198.779C501.065 195.398 503.614 194.068 506.745 192.75Z"/>
	<path fill="#F33D52" d="M463.018 193.032C465.257 192.944 467.594 192.807 469.75 193.534C472.961 194.616 475.631 196.766 477.083 199.87C478.377 202.637 478.137 205.582 477.107 208.391C475.718 212.179 472.594 214.535 469.077 216.25C466.609 216.795 463.84 216.476 461.44 215.761C458.634 214.926 456.56 213.058 455.25 210.445C453.677 207.307 453.772 203.973 454.959 200.734C456.367 196.894 459.48 194.744 463.018 193.032Z"/>
	<path fill="#0C747E" d="M323.137 734.825C334.266 722.239 343.147 707.616 352.449 693.664L387.42 641.032L470.156 640.009L403.888 742.357L385.788 769.958C382.762 774.52 380.187 779.608 376.301 783.51L285.6 783.5L312.368 744.581C313.862 741.673 315.801 739.247 317.993 736.845L323.137 734.825Z"/>
	<path fill="#01063C" d="M335.339 753.147C335.041 755.638 334.02 757.947 332.046 759.589C329.833 761.431 327.333 762.068 324.5 761.651C322.298 761.327 319.755 759.865 318.491 758L317.263 755.744C319.733 756.848 322.066 757.603 324.766 757.909C329.284 758.421 332.105 755.827 335.339 753.147Z"/>
	<path fill="#FCFDFD" d="M362.194 749.25C363.129 749.224 364.076 749.435 365 749.573C366.073 750.3 367.051 750.986 367.621 752.195C368.47 753.995 367.979 756.084 367.33 757.851C366.032 759.399 365.233 759.927 363.25 760.341C362.522 760.349 361.823 760.245 361.122 760.051C359.715 759.661 358.503 758.75 357.807 757.448C357.032 756 356.972 754.442 357.538 752.904C358.279 750.888 360.318 749.899 362.194 749.25Z"/>
	<path fill="#08C0BF" d="M378.832 717.75C380.076 717.504 381.487 717.384 382.75 717.526C384.701 717.745 386.714 719.547 387.756 721.128C388.915 722.888 388.996 725.271 388.401 727.25C387.641 729.778 385.074 731.187 382.968 732.434L379.75 732.49C377.963 732.348 375.987 730.798 374.974 729.406C373.525 727.416 372.888 725.185 373.557 722.75C374.187 720.458 376.873 718.746 378.832 717.75Z"/>
	<path fill="#FBD757" d="M323.137 734.825C327.644 735.078 331.297 735.38 334.486 739C336.188 740.932 337.504 744.411 337.352 747C337.226 749.149 336.236 751.228 335.339 753.147C332.105 755.827 329.284 758.421 324.766 757.909C322.066 757.603 319.733 756.848 317.263 755.744C314.538 752.056 313.429 748.95 312.368 744.581C313.862 741.673 315.801 739.247 317.993 736.845L323.137 734.825Z"/>
	<path fill="#08C0BF" d="M452.765 440.616L461.449 456.555L431.012 508.356L461.086 561.923L461.678 561.819C468.654 560.684 476.047 561.416 483.091 561.482L516.148 561.503L482.938 614.03C468.458 614.01 453.704 615.836 439.25 616.864C406.986 619.157 374.645 621.684 342.875 628.022C338.632 628.868 333.682 629.245 329.635 630.676C327.985 631.26 326.579 632.347 325.338 633.556L324.552 634.375C323.984 633.62 323.526 632.784 323.039 631.975L452.765 440.616Z"/>
	<path fill="#F33D52" d="M457.846 580.25C458.783 579.989 459.069 579.792 460.053 580.02C461.594 580.378 462.768 581.268 463.536 582.648C464.18 583.806 464.188 585.298 463.749 586.567C462.974 588.809 460.367 591.17 458.25 592.085C457.518 592.154 456.876 592.161 456.165 591.904C454.645 591.355 453.39 589.925 452.705 588.495C451.986 586.994 451.679 585.302 452.208 583.702C454.444 583.042 456.033 581.652 457.846 580.25Z"/>
	<path fill="#FCFDFD" d="M422.811 524.25C423.598 524.113 424.45 523.969 425.25 524.051C427.907 524.323 430.231 525.689 431.707 527.881C432.784 529.482 433.011 531.142 432.514 533C431.649 536.231 429.386 537.767 426.684 539.407C425.25 539.484 423.129 539.784 421.802 539.291C420.198 538.695 418.214 536.8 417.504 535.25C416.657 533.402 416.616 530.816 417.405 528.943C418.425 526.521 420.534 525.298 422.811 524.25Z"/>
	<path fill="#FCFDFD" d="M383.689 567.845C387.05 562.339 391.391 559.397 397.585 557.787C402.943 556.394 409.57 557.844 414.165 560.712C418.727 563.559 421.715 568.569 422.886 573.75C423.554 576.708 423.989 580.153 423.603 583.175C423.652 586.528 422.871 589.867 421.263 592.816C418.719 597.485 413.905 600.648 408.883 602.049C402.701 603.773 396.377 602.623 390.974 599.321C385.697 596.096 382.069 590.838 380.75 584.796C379.52 579.166 380.578 572.709 383.689 567.845Z"/>
	<path fill="#DDF4F8" d="M385.438 567.943C388.179 564.959 391.137 562.296 395.031 560.924C397.878 559.921 400.234 560.247 402.882 561.568C395.553 562.534 389.894 564.805 385.287 570.808L384.763 571.509C384.818 570.17 385.038 569.202 385.438 567.943Z"/>
	<path fill="#F33D52" d="M402.882 561.568C408.985 562.477 414.635 563.706 418.456 569C421.169 572.758 422.505 576.973 422.639 581.598C422.473 584.727 421.424 588.531 419.846 591.252C417.438 595.406 412.55 599.41 407.75 600.37C402.371 601.446 395.662 599.335 391.245 596.308C387.424 593.689 384.327 589.547 383.453 584.947L383.331 584.25C382.441 579.458 383.145 575.992 384.763 571.509L385.287 570.808C389.894 564.805 395.553 562.534 402.882 561.568Z"/>
	<defs>
		<linearGradient id="gradient_4" gradientUnits="userSpaceOnUse" x1="588.89801" y1="797.31561" x2="543.30182" y2="685.37073">
			<stop offset="0" stop-color="#00B0BA"/>
			<stop offset="1" stop-color="#07C8C1"/>
		</linearGradient>
	</defs>
	<path fill="url(#gradient_4)" d="M635.517 732.431L635.946 731.582C638.035 727.493 640.746 724.045 643.369 720.305L655.745 702.604L697.532 642.493L720.517 642.329L627.941 783.025L388.06 783.001L409.065 749.943C412.073 745.214 416.232 739.911 418.486 734.834L420.25 732.62L572.669 732.169L615.579 732.134C621.955 732.136 629.24 731.445 635.517 732.431Z"/>
	<path fill="#FCFDFD" d="M635.517 732.431C637.923 732.101 637.953 732.019 639.46 730C650.003 715.86 658.315 700.2 670.232 687.105C665.068 699.031 657.21 709.817 650.169 720.697C647.199 725.287 643.444 732.846 639.063 736.012L485.615 735.361L439.516 735.053C432.828 735.02 425.074 735.761 418.486 734.834L420.25 732.62L572.669 732.169L615.579 732.134C621.955 732.136 629.24 731.445 635.517 732.431Z"/>
	<path fill="#01063C" d="M420.03 742.499L506.501 742.497L506.451 774.755L420.039 774.501L420.03 742.499Z"/>
	<path fill="#FBD757" d="M444.915 769.987L425.449 769.995L425.485 747L492.889 747.086L492.897 747.774C488.683 748.874 484.787 748.851 480.5 749.134C477.596 749.325 474.72 749.837 471.811 749.958L462.121 750.037C461.458 750.037 459.337 749.796 458.797 750.031C457.417 750.63 454.932 754.834 454.139 756.188L444.915 769.987Z"/>
	<path fill="#F39931" d="M492.889 747.086C494.806 747.081 499.837 746.563 501.369 747.343L501.494 770.008L444.915 769.987L454.139 756.188C454.932 754.834 457.417 750.63 458.797 750.031C459.337 749.796 461.458 750.037 462.121 750.037L471.811 749.958C474.72 749.837 477.596 749.325 480.5 749.134C484.787 748.851 488.683 748.874 492.897 747.774L492.889 747.086Z"/>
	<path fill="#F33D52" d="M277.791 224.37L304.107 187.528C311.531 177.092 318.824 166.066 328.375 157.418C328.786 157.046 329.894 155.906 330.382 155.777C331.257 155.546 333.492 155.91 334.5 155.925L345.88 155.996L422.534 156.882L351.109 264.4L331.506 293.935C328.926 297.822 326.353 302.973 323.173 306.324L221.925 306.029C225.856 298.751 231.6 291.762 236.329 284.954L264.738 243.897C269.105 237.637 274.314 231.154 277.791 224.37Z"/>
	<defs>
		<linearGradient id="gradient_5" gradientUnits="userSpaceOnUse" x1="317.4292" y1="232.58199" x2="295.54034" y2="215.79245">
			<stop offset="0" stop-color="#FB8444"/>
			<stop offset="1" stop-color="#F7A72F"/>
		</linearGradient>
	</defs>
	<path fill="url(#gradient_5)" d="M249.485 288.857C251.374 284.883 254.656 280.986 257.15 277.33L273.31 253.605L334.478 163.987L373.599 164.046C372.061 164.348 370.598 164.23 369.617 165.5C370.816 166.831 371.69 166.846 373.5 166.959C376.383 167.139 379.366 166.594 382.258 166.555C386.21 166.501 389.703 167.546 393.797 166.628C394.701 166.425 395.687 166.298 396.587 166.663L397.082 167.02L396.309 167.274C390.834 168.913 384.057 167.516 378.355 167.461L343.701 168.212C342.295 168.282 337.833 168.109 336.862 168.76C335.272 169.828 333.35 172.865 332.196 174.439L320.53 191.14L282.082 247.852L265.648 272.63C262.262 277.685 258.987 283.604 254.481 287.734C252.683 289.383 251.784 289.76 249.485 288.857Z"/>
	<path fill="#01063C" d="M249.485 288.857L249.287 289.444L249.75 290.016L316.75 291.213L316.95 291.912C314.937 292.662 312.353 292.518 310.206 292.615L296.052 292.972L240.818 293.479L331.169 160.493L401 160.566L401.62 161.25C401.152 162.303 400.961 162.857 400.013 163.583L399.386 164L373.599 164.046L334.478 163.987L273.31 253.605L257.15 277.33C254.656 280.986 251.374 284.883 249.485 288.857Z"/>
	<path fill="#01063C" d="M345.788 173.471L392.863 173.517L321.177 279.725L273.68 279.496L345.788 173.471Z"/>
	<path fill="#08C0BF" d="M337.431 200.507L350.098 181.991L380.09 181.741L318.448 273.038L288.017 273.004L304.432 248.5C309.365 241.081 313.822 232.172 320.364 226.053L337.431 200.507Z"/>
	<path fill="#FCFDFD" d="M337.431 200.507L355.162 199.809L312.376 262.01L298.207 261.977C302.587 252.965 308.958 244.674 314.426 236.272C316.53 233.039 319.199 229.744 320.364 226.053L337.431 200.507Z"/>
	<path fill="#08C0BF" d="M188.822 834.51C193.072 826.291 198.779 818.696 203.916 811L229.471 772.683L310.887 650.268L312.248 652.589C302.172 666.091 291.625 679.963 283.81 694.931C272.373 716.837 266.079 743.369 269.569 767.995L274.425 788.191C274.678 789.241 274.873 790.091 275.456 791.01L276.036 793.75C278.244 794.56 281.274 794.308 283.633 794.372L302.542 794.565L363.938 795.031L564.035 795.003L607.212 794.955L620.217 794.483L593.687 833.811L188.822 834.51Z"/>
	<path d="M234.048 797.538C235.322 793.971 236.818 790.711 240.407 788.882C243.042 787.539 245.976 787.556 248.688 788.572C251.864 789.763 254.786 792.476 256.056 795.641C256.674 797.18 257.13 798.843 257.022 800.511C256.202 800.261 255.38 799.796 254.596 799.439C254.566 797.275 254.433 795.454 253.292 793.559C252 791.414 249.93 789.933 247.453 789.505C245.235 789.122 243.078 789.65 241.25 790.953C238.228 793.108 237.861 796.084 237.429 799.479L237.033 799.434C235.449 799.108 235.022 798.803 234.048 797.538Z"/>
	<path fill="#01063C" d="M234.048 797.538C235.022 798.803 235.449 799.108 237.033 799.434L237.429 799.479C238.308 801.559 239.507 804.189 241.697 805.171C244.109 806.252 247.357 806.318 249.756 805.157C251.563 804.282 254.128 801.963 254.559 799.914L254.596 799.439C255.38 799.796 256.202 800.261 257.022 800.511C256.969 802.268 256.274 804.275 255.322 805.75C253.616 808.396 249.805 811.021 246.648 811.434C243.647 811.827 240.139 810.579 237.881 808.585C234.335 805.453 234.182 801.908 234.048 797.538Z"/>
	<path fill="#FBD757" d="M237.429 799.479C237.861 796.084 238.228 793.108 241.25 790.953C243.078 789.65 245.235 789.122 247.453 789.505C249.93 789.933 252 791.414 253.292 793.559C254.433 795.454 254.566 797.275 254.596 799.439L254.559 799.914C254.128 801.963 251.563 804.282 249.756 805.157C247.357 806.318 244.109 806.252 241.697 805.171C239.507 804.189 238.308 801.559 237.429 799.479Z"/>
	<path fill="#F33D52" d="M883.528 633.596L898.523 633.889L880.91 660.992L937.625 661.081L893.932 725.538L905.142 725.593L892.702 744.718L888.151 751.959L881.886 760.109L867.685 781.219C866.18 783.547 858.69 796.067 856.865 796.994L842.471 818.011C839.488 823.283 836.286 828.407 832.373 833.043L816.643 856.047C813.45 861.443 810.125 866.96 805.884 871.608L781.814 907.296L669.872 907.448L359.976 908.011L237.124 907.707L199.277 907.675C192.563 907.673 185.537 908.064 178.863 907.491C173.679 907.046 168.366 904.333 163.663 902.249L163.004 902.614C159.418 904.217 153.698 901.851 150.145 900.649C148.223 899.284 147.435 897.725 146.929 895.476L272.687 895.896L702.835 896.282L883.528 633.596Z"/>
	<path fill="#7C2F7A" d="M146.929 895.476L272.687 895.896L151.764 896.018C155.632 898.653 159.433 900.33 163.663 902.249L163.004 902.614C159.418 904.217 153.698 901.851 150.145 900.649C148.223 899.284 147.435 897.725 146.929 895.476Z"/>
	<path fill="#C20935" d="M832.373 833.043C824.956 832.232 816.903 832.898 809.407 832.913L762.608 832.99L772.46 817.997L842.471 818.011C839.488 823.283 836.286 828.407 832.373 833.043Z"/>
	<path fill="#C20935" d="M856.865 796.994C855.128 796.185 852.896 796.494 851.013 796.493L838.595 796.489L786.581 796.503L797.247 781.16L867.685 781.219C866.18 783.547 858.69 796.067 856.865 796.994Z"/>
	<path fill="#C20935" d="M881.886 760.109L811.729 759.993L822.098 744.464L892.702 744.718L888.151 751.959L881.886 760.109Z"/>
	<path fill="#C20935" d="M805.884 871.608L736.292 871.5C739.508 865.814 743.191 860.492 747.374 855.477L816.643 856.047C813.45 861.443 810.125 866.96 805.884 871.608Z"/>
	<path fill="#4B0B4B" d="M880.91 660.992L937.625 661.081L893.932 725.538L836.122 725.488L880.91 660.992Z"/>
	<path fill="#F33D52" d="M431.448 313.023L460.334 313.01L408.229 391.121C404.293 397.297 399.284 403.246 395.733 409.573C395.135 410.639 394.846 411.509 394.905 412.75L395.5 413.13C400.076 409.219 403.944 402.787 407.34 397.855L422.017 376.956L446.264 376.985C450.761 376.993 455.578 376.685 460.034 377.201L169.333 808.048L159.645 822.327C156.879 826.486 154.23 830.811 150.885 834.534L109.051 834.721L78.767 834.698C78.0289 834.67 77.5508 834.421 76.9563 834.013L211.348 638.372C218.88 625.65 228.034 613.517 236.248 601.199L295.648 513.129L323.65 471.549C327.195 466.323 330.851 459.453 335.165 454.946C337.834 449.315 342.413 443.811 345.906 438.603L370.371 402.019C372.38 400 374.078 396.84 375.675 394.461C379.714 388.448 383.548 382.026 388.116 376.408L431.448 313.023Z"/>
	<path fill="#F17A94" d="M406.051 376.958C407.822 376.983 410.358 376.655 411.898 377.503L394.956 401.529C393.41 400.674 391.063 401.019 389.295 401.018L404.894 378.109L406.051 376.958Z"/>
	<path fill="#E95C85" d="M406.051 376.958L422.443 353.751C425.582 349.32 429.698 341.673 434.5 338.986L435.051 339.5C434.275 346.865 426.984 355.468 422.872 361.528L411.898 377.503C410.358 376.655 407.822 376.983 406.051 376.958Z"/>
	<path fill="#FCFDFD" d="M388.116 376.408C392.021 379.262 400.226 376.89 404.894 378.109L389.295 401.018C391.063 401.019 393.41 400.674 394.956 401.529L120.248 807.927L169.333 808.048L159.645 822.327C156.879 826.486 154.23 830.811 150.885 834.534L109.051 834.721L78.767 834.698C78.0289 834.67 77.5508 834.421 76.9563 834.013L211.348 638.372C218.88 625.65 228.034 613.517 236.248 601.199L295.648 513.129L323.65 471.549C327.195 466.323 330.851 459.453 335.165 454.946C337.834 449.315 342.413 443.811 345.906 438.603L370.371 402.019C372.38 400 374.078 396.84 375.675 394.461C379.714 388.448 383.548 382.026 388.116 376.408Z"/>
	<defs>
		<linearGradient id="gradient_6" gradientUnits="userSpaceOnUse" x1="177.41789" y1="766.42877" x2="69.660408" y2="786.84552">
			<stop offset="0" stop-color="#FB7C86"/>
			<stop offset="1" stop-color="#FFA0A9"/>
		</linearGradient>
	</defs>
	<path fill="url(#gradient_6)" d="M211.348 638.372C211.368 640.304 210.195 641.549 209.176 643.166L201.012 655.055L174.08 694.565C172.151 697.581 169.621 700.204 167.968 703.438L167.15 704.892C166.896 705.287 165.861 706.749 165.813 707.145C165.7 708.083 166.374 708.287 165.96 709.607L166.134 710.081L165.788 710.674C166.459 712.504 166.514 715.54 166.027 717.443L165.823 718.145C165.596 720.124 168.048 721.629 169.379 722.896L176.502 712.503C177.154 711.105 176.225 712.367 177.37 711.008C179.017 709.052 180.591 706.786 181.906 704.594L184.375 700.875L184.755 700L199.417 678.578L201.375 675.875L201.755 675L222.625 644.625C223.34 643.246 222.61 644.218 223.484 643.125C224.395 641.987 224.98 640.807 225.805 639.626L233.422 628.57L241.035 617.27L241.755 616C242.253 615.279 242.771 614.785 243.206 613.986L243.755 613C244.477 612.015 245.276 611.16 245.899 610.093L246.157 609.624L247.018 609.948L103.554 822.02L159.645 822.327C156.879 826.486 154.23 830.811 150.885 834.534L109.051 834.721L78.767 834.698C78.0289 834.67 77.5508 834.421 76.9563 834.013L211.348 638.372Z"/>
	<path fill="#F33D52" d="M388.116 376.408C392.021 379.262 400.226 376.89 404.894 378.109L389.295 401.018C385.579 404.7 382.756 409.853 379.821 414.18L361.948 440.569C358.961 444.979 356.071 449.857 352.71 453.977C348.848 461.107 343.377 467.995 338.815 474.736L309.051 518.594L268.163 578.895C261.21 589.152 254.53 600.114 247.018 609.948L246.157 609.624L245.899 610.093C245.276 611.16 244.477 612.015 243.755 613L243.206 613.986C242.771 614.785 242.253 615.279 241.755 616L241.035 617.27L233.422 628.57L225.805 639.626C224.98 640.807 224.395 641.987 223.484 643.125C222.61 644.218 223.34 643.246 222.625 644.625L201.755 675L201.375 675.875L199.417 678.578L184.755 700L184.375 700.875L181.906 704.594C180.591 706.786 179.017 709.052 177.37 711.008C176.225 712.367 177.154 711.105 176.502 712.503L169.379 722.896C168.048 721.629 165.596 720.124 165.823 718.145L166.027 717.443C166.514 715.54 166.459 712.504 165.788 710.674L166.134 710.081L165.96 709.607C166.374 708.287 165.7 708.083 165.813 707.145C165.861 706.749 166.896 705.287 167.15 704.892L167.968 703.438C169.621 700.204 172.151 697.581 174.08 694.565L201.012 655.055L209.176 643.166C210.195 641.549 211.368 640.304 211.348 638.372C218.88 625.65 228.034 613.517 236.248 601.199L295.648 513.129L323.65 471.549C327.195 466.323 330.851 459.453 335.165 454.946C337.834 449.315 342.413 443.811 345.906 438.603L370.371 402.019C372.38 400 374.078 396.84 375.675 394.461C379.714 388.448 383.548 382.026 388.116 376.408Z"/>
	<path fill="#E3193F" d="M388.116 376.408C392.021 379.262 400.226 376.89 404.894 378.109L389.295 401.018C385.579 404.7 382.756 409.853 379.821 414.18L361.948 440.569C358.961 444.979 356.071 449.857 352.71 453.977C352.76 452.594 353.498 452.155 353.502 451.125L353.939 450.656C354.549 449.968 354.994 449.263 355.5 448.5L356 447.766C356.84 446.506 357.339 445.287 358.5 444.25L358.502 443.625L359.5 442.75L359.502 442.125L359.931 441.648C360.908 440.547 361.706 439.486 362.5 438.25L364 436.25L364.002 435.625L365 434.75L365.002 434.002L366 433.25L366.002 432.625L367 431.75L367.002 431.002L367.439 430.579C368.253 429.761 368.999 429.184 369.002 428.002L370 427.25L370.002 426.625L371 425.75L371.002 425.002L372 424.25L372.002 423.625L372.728 423C373.367 422.437 373.68 422.109 373.875 421.252L374.5 420.75L374.502 420.125L374.939 419.641C375.626 418.866 376.498 418.184 376.502 417.125L377.5 416.25L377.502 415.502L378.5 414.75L378.502 414.125L379.5 413.25L379.502 412.502L380.5 411.75L380.502 411.125L381.228 410.5C381.986 409.832 381.906 409.503 382.375 408.752L383 408C383.671 407.178 383.999 407.082 384.002 406.002L385 405.25L385.002 404.625L386 403.75L386.002 403.125L386.75 402.245C385.458 401.383 383.563 401.75 382.018 401.753L372.079 401.774C368.337 406.304 365.207 411.512 361.921 416.384L342.917 444.667C341.27 447.073 337.779 453.977 335.165 454.946C337.834 449.315 342.413 443.811 345.906 438.603L370.371 402.019C372.38 400 374.078 396.84 375.675 394.461C379.714 388.448 383.548 382.026 388.116 376.408Z"/>
	<defs>
		<linearGradient id="gradient_7" gradientUnits="userSpaceOnUse" x1="815.00464" y1="597.20044" x2="638.6543" y2="241.7744">
			<stop offset="0" stop-color="#F90035"/>
			<stop offset="1" stop-color="#F96A77"/>
		</linearGradient>
	</defs>
	<path fill="url(#gradient_7)" d="M938.082 97.1334L939.891 97.1464C939.897 99.5657 921.453 124.929 918.368 129.494L966.968 129.915L882.348 252.582L908.003 252.594C911.375 252.6 915.753 252.068 918.978 252.916C918.995 253.277 919.156 253.661 919.03 254C918.363 255.8 916.053 258.33 914.923 259.979L903.728 276.885L904.288 276.926L950.207 277.082L717.859 633.622L717.356 633.813C715.56 634.318 713.222 634.042 711.327 634.049L697.423 634.08C696.449 634.087 694.273 633.839 693.412 634.114C692.261 634.482 688.023 641.353 687.116 642.604L661.158 678.652C657.171 684.218 653.257 690.933 648.574 695.848L637.451 712.593C635.543 715.477 633.708 718.89 631.419 721.471C627.385 722.846 620.652 721.929 616.333 721.927L583 721.923L522.912 721.937L503.538 721.984L898.018 138.026L843.817 137.924C845.49 136.602 848.113 136.997 850.163 136.985C855.157 136.954 860.114 136.767 865.1 137.12C866.004 137.183 866.436 137.197 867.245 136.75L865.173 135.887C863.972 136.035 863.665 135.882 862.569 135.463C862.746 134.745 862.689 134.151 862.58 133.429L862.48 132.829C863.506 132.466 865.056 131.805 865.827 130.997C867.031 129.733 867.725 129.129 869.327 128.289L870.494 127.688L871.105 127.024L871.968 126.69L872.583 126.068L873.48 125.695C874.071 125.418 874.377 125.164 875.047 125.047C875.877 124.901 876.519 124.791 877.315 124.475L878 124.192C879.684 123.518 880.62 123.257 881.765 121.767L883 121.868C885.832 120.213 888.572 119.731 891.319 117.775C895.69 117.824 901.35 118.405 905.46 116.862L908.821 112.589C909.388 111.656 909.227 111.705 909.1 110.69L909.006 109.918C910.684 109.728 910.579 109.65 911.693 108.354C914.11 108.062 914.279 106.169 916.265 105.265C917.393 104.751 918.806 104.633 920 104.192L920.875 103.857C922.078 103.631 923.313 103.705 924.5 103.188L925.266 102.767C926.066 102.851 926.627 102.889 927.42 102.68C929.49 102.135 929.712 101.46 930.726 99.7489L930.113 98.3955L928.188 97.807C930.768 97.8171 935.974 98.4332 938.082 97.1334Z"/>
	<path fill="#F17A94" d="M908.821 112.589L909.606 114.508C909.092 115.695 909.062 116.213 907.734 116.643L905.46 116.862L908.821 112.589Z"/>
	<path fill="#C20935" d="M893.916 290.103L803.7 289.989L812.47 277.006L903.093 276.868C900.41 281.47 897.579 286.21 893.916 290.103Z"/>
	<path fill="#C20935" d="M818.899 400.529L728.429 400.171L738.883 387.022L827.834 387.047L818.899 400.529Z"/>
	<path fill="#C20935" d="M868.379 327.083C865.403 326.621 862.279 326.924 859.267 326.954L845.626 326.774L777.936 325.983L788.165 313.014L878.011 313.043C875.114 317.891 872.138 322.841 868.379 327.083Z"/>
	<path fill="#C20935" d="M843.449 364.113C840.698 363.432 837.216 363.795 834.36 363.803L815.665 363.882L751.99 363.978L762.141 350.518C764.222 349.75 767.556 350.152 769.831 350.146L785.988 350.112L852.731 350.048L843.449 364.113Z"/>
	<path fill="#C20935" d="M792.848 439.12L702.137 438.975L712.618 424.472L802.584 424.486C799.615 429.247 796.605 434.986 792.848 439.12Z"/>
	<path fill="#C20935" d="M766.429 477.919L676.339 477.973L687.165 463.709C691.401 462.691 696.152 462.855 700.494 462.921L718.358 463.179L776.444 463.061L766.429 477.919Z"/>
	<defs>
		<linearGradient id="gradient_8" gradientUnits="userSpaceOnUse" x1="696.60699" y1="623.94421" x2="607.69562" y2="584.75543">
			<stop offset="0" stop-color="#C90933"/>
			<stop offset="1" stop-color="#960039"/>
		</linearGradient>
	</defs>
	<path fill="url(#gradient_8)" d="M522.912 721.937C528.25 721.151 534.01 721.528 539.412 721.511L568.189 721.446C568.811 712.409 570.186 703.459 571.485 694.5C574.428 674.204 578.599 653.719 585.727 634.438C598.289 600.46 618.669 568.559 643.553 542.317C664.605 520.116 692.3 503.171 722.673 497.724C733.384 495.803 744.107 495.336 754.956 495.041C753.002 498.576 750.974 501.882 748.371 504.988C745.643 504.256 742.247 504.772 739.428 504.937C720.64 506.034 700.345 512.388 684.033 521.773C635.071 549.941 600.619 605.201 586.518 659C582.94 672.651 580.463 686.721 578.481 700.688C577.504 707.578 576.284 714.642 575.879 721.595L583 721.465L583 721.923L522.912 721.937Z"/>
	<path fill="#F33D52" d="M583 721.465L575.879 721.595C576.284 714.642 577.504 707.578 578.481 700.688C580.463 686.721 582.94 672.651 586.518 659C600.619 605.201 635.071 549.941 684.033 521.773C700.345 512.388 720.64 506.034 739.428 504.937C742.247 504.772 745.643 504.256 748.371 504.988L734.039 526.393C729.504 526.515 725.008 527.908 720.629 529.018C693.581 535.871 671.029 553.135 652.138 573.134C644.162 581.578 637.303 590.988 630.964 600.692C606.993 637.385 595.067 677.999 591.483 721.47L583 721.465Z"/>
	<path fill="#4B0B4B" d="M918.368 129.494L966.968 129.915L882.348 252.582L908.003 252.594C911.375 252.6 915.753 252.068 918.978 252.916L829.447 252.977L918.368 129.494Z"/>
	<path fill="#F33D52" d="M583 721.465L591.483 721.47C595.067 677.999 606.993 637.385 630.964 600.692C637.303 590.988 644.162 581.578 652.138 573.134C671.029 553.135 693.581 535.871 720.629 529.018C725.008 527.908 729.504 526.515 734.039 526.393C732.632 529.29 730.586 534.155 727.887 536.081L695.612 586.162C677.475 614.174 656.885 642.303 650.492 675.75C649.212 682.448 648.203 689.002 648.574 695.848L637.451 712.593C635.543 715.477 633.708 718.89 631.419 721.471C627.385 722.846 620.652 721.929 616.333 721.927L583 721.923L583 721.465Z"/>
	<path fill="#A50438" d="M583 721.465L591.483 721.47C595.067 677.999 606.993 637.385 630.964 600.692C637.303 590.988 644.162 581.578 652.138 573.134C671.029 553.135 693.581 535.871 720.629 529.018C725.008 527.908 729.504 526.515 734.039 526.393C732.632 529.29 730.586 534.155 727.887 536.081C721.818 536.627 716.705 538.856 711.19 541.219C688.391 550.985 668.497 566.539 652.631 585.57C627.487 615.73 611.369 650.851 604.356 689.448C602.423 700.09 600.841 710.614 600.983 721.464L631.419 721.471C627.385 722.846 620.652 721.929 616.333 721.927L583 721.923L583 721.465Z"/>
	<path fill="#4B0B4B" d="M903.728 276.885L904.288 276.926L950.207 277.082L717.859 633.622L717.356 633.813C715.56 634.318 713.222 634.042 711.327 634.049L697.423 634.08C696.449 634.087 694.273 633.839 693.412 634.114C692.261 634.482 688.023 641.353 687.116 642.604L661.158 678.652C657.171 684.218 653.257 690.933 648.574 695.848C648.203 689.002 649.212 682.448 650.492 675.75C656.885 642.303 677.475 614.174 695.612 586.162L727.887 536.081C730.586 534.155 732.632 529.29 734.039 526.393L748.371 504.988C750.974 501.882 753.002 498.576 754.956 495.041L766.429 477.919L776.444 463.061L792.848 439.12C796.605 434.986 799.615 429.247 802.584 424.486L818.899 400.529L827.834 387.047L843.449 364.113L852.731 350.048L868.379 327.083C872.138 322.841 875.114 317.891 878.011 313.043L893.916 290.103C897.579 286.21 900.41 281.47 903.093 276.868L903.728 276.885Z"/>
</svg>
