<?xml version="1.0" encoding="utf-8" ?>
<svg xmlns="http://www.w3.org/2000/svg" xmlns:xlink="http://www.w3.org/1999/xlink" width="1024" height="1024">
	<path fill="#7C307A" d="M-0 -0L1024 0L1024 1024L-0 1024L0 -0Z"/>
	<path fill="#FAD755" d="M206.86 414.75C208.223 414.392 209.405 414.251 210.82 414.396C212.638 414.581 214.349 415.5 215.393 417.037C216.342 418.434 216.745 420.236 216.325 421.892C215.694 424.374 214.343 425.752 212.25 427.095C210.816 427.638 209.531 427.858 208 427.53C206.375 427.182 205.213 426.021 204.295 424.701C203.129 423.024 202.523 420.708 203.139 418.691C203.792 416.554 204.94 415.73 206.86 414.75Z"/>
	<path fill="#FAD755" d="M265.52 464.75C266.569 464.568 267.62 464.397 268.674 464.644C270.519 465.077 272.205 466.071 273.175 467.73C274.336 469.717 274.517 471.872 273.901 474.07C273.146 476.764 271.445 477.815 269.076 479.048C267.764 479.089 266.313 479.186 265.043 478.81C263.106 478.238 261.417 476.601 260.546 474.806C259.708 473.078 259.675 470.668 260.449 468.912C261.465 466.608 263.275 465.614 265.52 464.75Z"/>
	<path fill="#FAD755" d="M205.876 120.141C207.241 120.322 208.484 120.538 209.694 121.239C211.379 122.214 213.055 124.324 213.457 126.25C213.867 128.212 213.699 130.679 212.484 132.334C210.899 134.491 209.329 135.204 206.75 135.56C205.317 135.576 204.004 135.326 202.748 134.609C201.052 133.641 199.775 131.776 199.28 129.903C198.732 127.827 199.134 125.336 200.253 123.507C201.534 121.413 203.617 120.7 205.876 120.141Z"/>
	<path fill="#F7EA8B" d="M851.007 475.102C852.582 475.209 854.19 475.282 855.698 475.788C859.118 476.936 861.601 479.26 863.036 482.567C864.305 485.492 864.773 489.288 863.35 492.25C861.237 496.649 857.684 498.504 853.241 499.897C850.599 499.912 848.24 499.811 845.903 498.445C842.842 496.657 840.262 493.274 839.611 489.75C839.042 486.674 839.597 483.433 841.343 480.828C843.791 477.173 846.839 475.923 851.007 475.102Z"/>
	<path fill="#EBF5F6" d="M173.062 158.682L179.691 183.829L204.61 189.408L180.472 196.007L174.034 222.25L173.822 223L173.25 223.199L166.406 196.257C165.24 195.157 162.112 194.909 160.5 194.53L143.953 190.433L165.341 183.763C169.18 176.462 171.03 166.674 173.062 158.682Z"/>
	<path fill="#FCFCFD" d="M818.852 543.887L826.689 565.644C833.11 569.166 841.738 571.01 848.722 573.404L827.063 580.492C825.665 581.808 824.952 584.458 824.287 586.246L818.545 603.266L811.577 581.372C804.442 577.18 795.828 575.383 788.104 572.562C790.154 571.709 792.564 571.436 794.713 570.819L810.342 565.908C814.453 559.937 816.658 550.813 818.852 543.887Z"/>
	<path fill="#F5B457" d="M151.813 457.107C156.03 456.666 160.535 456.535 164.651 457.672L165.5 457.918C168.762 458.819 171.83 460.023 174.647 461.93C181.194 466.364 186.127 474.411 187.469 482.182L187.602 483C189 491.023 187.352 498.614 182.735 505.312C177.585 512.783 170.583 517.272 161.733 518.902C153.654 519.628 146.347 518.583 139.459 514.119C132.044 509.313 127.824 501.904 126.141 493.382C124.556 485.361 125.981 477.323 130.626 470.554C135.779 463.047 142.935 458.732 151.813 457.107Z"/>
	<defs>
		<linearGradient id="gradient_0" gradientUnits="userSpaceOnUse" x1="419.73883" y1="590.49353" x2="46.864601" y2="653.93121">
			<stop offset="0" stop-color="#E72331"/>
			<stop offset="1" stop-color="#FF9FA9"/>
		</linearGradient>
	</defs>
	<path fill="url(#gradient_0)" d="M389.324 400.44C391.485 400.444 393.787 400.284 395.921 400.61L357.649 458.287C353.352 463.379 349.849 469.582 346.109 475.125L319.377 515.087L232.617 643.373L217.769 665.45C216.492 667.325 213.279 670.974 212.777 672.939L120.588 807.944L169.396 808.084L159.846 822.29C157.075 826.169 154.312 831.233 151.08 834.598L77.0246 834.489L191.055 668.321C194.321 661.656 200.015 655.096 204.234 648.898L234.142 604.626L260.692 564.69L326.189 467.976L356.678 422.675C361.308 415.794 366.36 409.062 370.5 401.874L371.466 401.124L383.307 400.995C385.031 400.999 386.904 400.702 388.423 401.531L389.324 400.44Z"/>
	<path fill="#FCFCFD" d="M389.324 400.44C391.485 400.444 393.787 400.284 395.921 400.61L357.649 458.287C353.352 463.379 349.849 469.582 346.109 475.125L319.377 515.087L232.617 643.373L217.769 665.45C216.492 667.325 213.279 670.974 212.777 672.939L120.588 807.944L169.396 808.084L159.846 822.29L103.557 822.089L202.874 675.177L388.423 401.531L389.324 400.44Z"/>
	<path fill="#4A0B4A" d="M887.935 751.86L935.389 752.001L807.127 943.754L670.565 943.832L393.038 943.646L247.202 943.891L213.465 943.899C210.209 943.892 204.327 944.574 201.347 943.56C200.728 943.349 199.632 942.195 199.085 941.75L192.115 935.906L162.071 910.692C158.114 907.416 153.301 904.297 149.677 900.75L149.105 900.177C152.652 901.418 159.923 904.309 163.251 902.613L163.692 902.353C167.304 904.272 174.408 907.124 178.4 907.486C184.61 908.05 191.289 907.599 197.54 907.627L237.081 907.762L362.494 907.949L781.871 907.221L805.888 871.554C809.907 867.057 813.228 861.136 816.595 856.104L832.519 832.707C836.252 828.535 839.354 822.809 842.419 818.096L857.046 796.636C858.344 795.311 859.424 793.309 860.483 791.754L867.537 781.362L881.923 759.957L887.935 751.86Z"/>
	<path fill="#02073B" d="M285.004 138.188L285.009 107.842C285.007 104.344 284.358 99.3207 285.235 96.0694L940.957 97.0169L918.049 129.983L967.234 129.91L882.545 253.041L919.666 253.029L903.536 276.925L950.642 276.953L717.792 633.149C722.963 633.17 728.623 632.76 733.732 633.41L883.528 633.644L898.883 633.942L881.052 660.807L937.828 660.947L894.119 725.511L905.685 725.508L892.761 744.657L887.935 751.86L881.923 759.957L867.537 781.362L860.483 791.754C859.424 793.309 858.344 795.311 857.046 796.636L842.419 818.096C839.354 822.809 836.252 828.535 832.519 832.707L816.595 856.104C813.228 861.136 809.907 867.057 805.888 871.554L781.871 907.221L362.494 907.949L237.081 907.762L197.54 907.627C191.289 907.599 184.61 908.05 178.4 907.486C174.408 907.124 167.304 904.272 163.692 902.353C159.499 900.685 155.447 899.11 151.875 896.271L152.891 895.833C151.963 895.257 147.812 895.497 146.506 895.435C146.416 895.129 146.412 894.784 146.237 894.518C145.706 893.709 143.665 892.447 142.848 891.789L133.922 884.529L94.4009 851.552C87.9767 846.105 81.1592 840.945 75.2508 834.933L128.927 834.953L142.638 834.919C145.107 834.91 147.868 835.145 150.303 834.739L151.08 834.598C154.312 831.233 157.075 826.169 159.846 822.29L169.396 808.084L120.588 807.944L212.777 672.939C213.279 670.974 216.492 667.325 217.769 665.45L232.617 643.373L319.377 515.087L346.109 475.125C349.849 469.582 353.352 463.379 357.649 458.287L395.921 400.61C393.787 400.284 391.485 400.444 389.324 400.44L388.423 401.531C386.904 400.702 385.031 400.999 383.307 400.995L371.466 401.124L370.5 401.874L316.879 401.995L301.193 401.963C299.41 401.953 296.711 402.293 295.009 401.922C293.933 401.688 291.407 399.649 290.28 398.977L270.769 386.643C267.281 384.376 263.439 382.274 260.245 379.615C256.778 378.11 253.442 375.56 250.205 373.555L226.47 358.623L152.785 312.801L272.549 138.41L285.004 138.188Z"/>
	<path fill="#F4F4CA" d="M664.255 741.279L665.25 743L664.903 743.315C664.452 743.767 664.287 744.129 664.046 744.705L664.793 745.056L661.604 750.887C660.777 751.463 660.08 751.839 659.589 752.748L659.375 753.253L659.398 748.558L664.255 741.279Z"/>
	<path fill="#EBF5F6" d="M671.251 730.657L672.651 732.717L664.793 745.056L664.046 744.705C664.287 744.129 664.452 743.767 664.903 743.315L665.25 743L664.255 741.279L671.251 730.657Z"/>
	<path fill="#F7EA8B" d="M679.195 718.835L680.547 721.531L673.183 732.791L672.651 732.717L671.251 730.657L679.195 718.835Z"/>
	<path fill="#11274E" d="M542.273 247.23L553.947 247.208C553.573 249.084 551.717 251.179 550.639 252.791C550.058 253.692 549.625 254.358 548.75 254.991L542.273 247.23Z"/>
	<path fill="#FAD755" d="M692.581 699.006L693.325 699.758C692.281 703.207 690.026 706.395 688.144 709.446C685.662 713.468 683.26 717.666 680.547 721.531L679.195 718.835L692.581 699.006Z"/>
	<path fill="#F7EA8B" d="M647.379 766.994L659.398 748.558L659.375 753.253L659.589 752.748C660.08 751.839 660.777 751.463 661.604 750.887L660.286 753.604C657.21 759.006 653.65 765.016 649.352 769.54C649.107 768.325 648.265 767.767 647.379 766.994Z"/>
	<path fill="#F7EA8B" d="M614.278 817.056C614.048 819.704 613.351 822.605 614.66 824.955C612.827 827.989 610.788 831.09 609.691 834.476L603.053 834.438L614.278 817.056Z"/>
	<path fill="#EBF5F6" d="M647.379 766.994C648.265 767.767 649.107 768.325 649.352 769.54L647.175 772.427L634.305 793.121C633.327 791.989 633.002 790.943 632.566 789.552L647.379 766.994Z"/>
	<path fill="#F4F4CA" d="M614.278 817.056L632.566 789.552C633.002 790.943 633.327 791.989 634.305 793.121L614.66 824.955C613.351 822.605 614.048 819.704 614.278 817.056Z"/>
	<path fill="#11274E" d="M442.492 845.747L448.349 845.9L475.594 878.303C476.973 880.059 481.49 884.796 481.401 886.871L478.841 887.332L474.583 887.348L473.462 886.197L463.568 874.409L441.019 847.438C440.321 846.572 440.449 847.045 440.5 846.067L442.492 845.747Z"/>
	<path fill="#C10935" d="M442.296 507.441L467.415 466.9L470.582 473.513C471.26 474.525 471.716 475.287 472.75 475.971L474.25 475.4L474.606 474.5L473.186 471.584C476.415 470.588 479.966 470.666 483.318 470.558C481.353 471.313 478.387 472.098 477.457 474L477.976 475.367L477.183 475.882C470.37 477.82 466.34 484.013 462.155 489.356C458.958 493.436 458.137 498.482 455.998 502.998L455.582 503.888L454.548 505.809L454.641 505.949C455.467 506.053 457.158 506.042 457.817 506.471C459.636 506.585 460.608 506.021 462.367 506.032C463.421 506.222 464.489 506.476 465.559 506.53C464.791 507.464 464.374 507.397 463.375 507.899L463.081 508.155L461 508.545C458.859 507.296 453.378 507.943 450.77 507.953C449.325 508.373 447.968 508.863 446.457 508.933L446.343 508.52C445.463 508.285 444.834 508.23 443.941 508.353L443.05 508.484L442.296 507.441Z"/>
	<path fill="#A40538" d="M462.367 506.032C463.421 506.222 464.489 506.476 465.559 506.53C464.791 507.464 464.374 507.397 463.375 507.899L463.081 508.155L461 508.545C458.859 507.296 453.378 507.943 450.77 507.953C449.003 506.742 446.183 506.937 444.084 506.806C446.847 505.4 451.596 505.955 454.641 505.949C455.467 506.053 457.158 506.042 457.817 506.471C459.636 506.585 460.608 506.021 462.367 506.032Z"/>
	<path fill="#E2193F" d="M473.186 471.584C476.415 470.588 479.966 470.666 483.318 470.558C481.353 471.313 478.387 472.098 477.457 474L477.976 475.367L477.183 475.882C470.37 477.82 466.34 484.013 462.155 489.356C458.958 493.436 458.137 498.482 455.998 502.998L455.582 503.888L454.548 505.809L452.502 505.498L452.255 504.5C453.594 502.888 454.57 500.248 455.25 498.255C457.324 492.173 460.708 484.779 464.602 479.677C466.275 477.485 468.613 475.455 470.582 473.513C471.26 474.525 471.716 475.287 472.75 475.971L474.25 475.4L474.606 474.5L473.186 471.584Z"/>
	<path fill="#55F3D8" d="M468.992 845.024L478.948 844.995L514.053 888.008L503.439 888.098C501.48 886.562 499.705 883.532 498.162 881.508L488.331 868.898L468.992 845.024Z"/>
	<path fill="#55F3D8" d="M374.952 844.95L384.85 844.876L420.961 888.031L411.266 888.099L374.952 844.95Z"/>
	<path fill="#55F3D8" d="M566.03 844.953L575.562 844.927L611.08 888.215L600.26 888.265L566.03 844.953Z"/>
	<path fill="#55F3D8" d="M182.3 844.965L193.635 844.936L229.911 888.151L219.224 888.095L182.3 844.965Z"/>
	<path fill="#55F3D8" d="M274.592 845.193L284.281 845.191L320.611 888.086L309.148 888.069L274.592 845.193Z"/>
	<path fill="#11274E" d="M244.564 845.122L256.095 845.048L292.681 888.496L281.177 888.35L244.564 845.122Z"/>
	<path fill="#4FF3E6" d="M417.574 305.004L408.114 305.028L383.506 269.101C379.37 263.086 374.573 256.82 371.413 250.25C371.568 248.643 372.512 247.864 373.56 246.75C375.095 246.382 375.882 246.517 377.378 246.853L417.574 305.004Z"/>
	<path fill="#4FF3E6" d="M522.682 447.695C525.618 451.415 527.585 455.921 529.988 460L553.931 501.862L549.258 509.8L516.96 456.047L522.682 447.695Z"/>
	<path fill="#55F3D8" d="M331.62 308.393L366.772 360.237L361.539 367.919L339.03 334.252C335.046 328.353 329.746 322.227 326.513 315.958L331.62 308.393Z"/>
	<path fill="#0D737D" d="M469.718 304.942L460.26 305.045L419.196 247.031C422.503 246.99 425.868 246.792 429.145 247.307L469.718 304.942Z"/>
	<path fill="#0D5267" d="M435.772 711.992L494.318 712.064L488.137 721.504L429.905 721.67L435.772 711.992Z"/>
	<path fill="#11274E" d="M494.383 616.037L556.977 615.997L550.786 624.841L488.6 625.036L494.383 616.037Z"/>
	<path fill="#0D737D" d="M519.057 298.634L513.887 305.924L472.736 247.03L483.533 247.161L519.057 298.634Z"/>
	<path fill="#0BCEC8" d="M784.961 642.975L866.347 643.053L861.868 650.231L780.533 650.057L784.961 642.975Z"/>
	<path fill="#11274E" d="M529.225 845.955L545.453 845.953C547.927 849.899 551.098 853.635 553.982 857.293L579.286 888.232L566.304 888.362L529.225 845.955Z"/>
	<path fill="#A40538" d="M473.186 471.584L470.263 465.537L499.5 465.33C503.699 465.274 508.557 464.579 512.683 465.179L526.298 488.184L527.324 489.815L526.475 492.5C525.155 493.403 523.75 493.145 522.229 493.082C521.378 492.246 520.892 491.408 520.295 490.388C518.782 488.429 517.547 486.102 515.059 485.612C511.406 482.133 507.949 479.606 503.465 477.271C494.005 473.617 486.889 473.057 477.262 476.65L477.183 475.882L477.976 475.367L477.457 474C478.387 472.098 481.353 471.313 483.318 470.558C479.966 470.666 476.415 470.588 473.186 471.584Z"/>
	<path fill="#E2193F" d="M509.67 475.651C511.346 476.271 512.749 476.965 514.25 477.932L514.907 478.35C518.798 480.911 522.164 486.839 526.298 488.184L527.324 489.815L526.475 492.5C525.155 493.403 523.75 493.145 522.229 493.082C521.378 492.246 520.892 491.408 520.295 490.388L520.133 489.452C519.262 485.253 512.846 479.838 509.423 477.432C509.378 476.787 509.529 476.277 509.67 475.651Z"/>
	<path fill="#BE1617" d="M483.318 470.558C486.981 470.456 490.857 470.144 494.5 470.62C499.609 471.287 505.024 473.506 509.67 475.651C509.529 476.277 509.378 476.787 509.423 477.432C512.846 479.838 519.262 485.253 520.133 489.452L520.295 490.388C518.782 488.429 517.547 486.102 515.059 485.612C511.406 482.133 507.949 479.606 503.465 477.271C494.005 473.617 486.889 473.057 477.262 476.65L477.183 475.882L477.976 475.367L477.457 474C478.387 472.098 481.353 471.313 483.318 470.558Z"/>
	<path fill="#EF211C" d="M483.318 470.558C486.981 470.456 490.857 470.144 494.5 470.62C499.609 471.287 505.024 473.506 509.67 475.651C509.529 476.277 509.378 476.787 509.423 477.432L505.924 475.607L502.315 473.933C494.416 470.78 485.571 472.178 477.976 475.367L477.457 474C478.387 472.098 481.353 471.313 483.318 470.558Z"/>
	<path fill="#0C3A57" d="M572.907 573.742L584.002 573.666C583.318 576.627 579.459 581.172 577.739 583.945L526.75 583.968L514.622 584.017L521.208 573.994L572.907 573.742Z"/>
	<path fill="#11274E" d="M337.117 846.005L352.354 845.98L388.493 888.948L374.111 889.033C367.826 880.023 359.961 871.585 352.68 863.363C347.535 857.552 342.606 851.492 337.117 846.005Z"/>
	<path fill="#0D5267" d="M608.348 845.25L621.387 845.266L647.418 877.386C649.571 880.085 654.393 884.787 655.25 888.038L653.79 888.25L641.181 888.27L607.001 845.75L608.348 845.25Z"/>
	<path fill="#0D5267" d="M548.553 530.932L611.41 530.94L604.666 541.355L542.473 541.099L548.553 530.932Z"/>
	<path fill="#0D5267" d="M567.287 502.249L629.965 502.42C628.4 505.012 625.726 510.64 623.317 512.143L622.75 512.398L560.581 512.846L567.287 502.249Z"/>
	<path fill="#0D5267" d="M664.333 359.249L727.46 359.314L720.75 368.912L719.125 369.098L672.519 369.15C667.338 369.154 660.279 370.055 655.285 368.96L661.75 359.504L664.333 359.249Z"/>
	<path fill="#0D5267" d="M576.595 488.046L640.177 487.921L632.828 498.15L569.571 498.467L576.595 488.046Z"/>
	<path fill="#0D5267" d="M539.86 545.17L602.327 545.046L595.966 555.453L533.496 555.531L539.86 545.17Z"/>
	<path fill="#0D5267" d="M535.997 559.221L593.126 559.182L586.476 569.48L581.25 569.533L524.156 569.939C525.798 566.909 528.308 562.295 530.671 559.808C531.27 559.178 534.953 559.285 535.997 559.221Z"/>
	<path fill="#0C3A57" d="M512.169 587.99L574.964 588.013C574.927 588.919 573.801 590.014 573.247 590.79L568.076 598.305L505.551 598.536L512.169 587.99Z"/>
	<path fill="#0C3A57" d="M503.276 602.041L565.573 601.961L558.776 612.237L496.455 612.641L503.276 602.041Z"/>
	<path fill="#0D737D" d="M340.106 295.702C345.051 301.198 349.346 308.501 353.544 314.631L375.563 347.062L369.551 355.542L333.992 305.039L340.106 295.702Z"/>
	<path fill="#0D5267" d="M558.162 516.566L620.88 516.544L613.947 526.978L551.003 527.035L558.162 516.566Z"/>
	<path fill="#0D5267" d="M222.057 845.091L236.842 845.048L273.739 888.094L257.733 888.099L222.057 845.091Z"/>
	<path fill="#0D5267" d="M671.912 344.503L737.761 344.674L730.024 354.935L664.558 354.99L671.912 344.503Z"/>
	<path fill="#0D737D" d="M826.442 682.745L838.994 682.876L832.63 691.492L766.585 691.506L754.011 691.579L759.447 683.071L826.442 682.745Z"/>
	<path fill="#0C3A57" d="M414.704 846.014L430.863 846.008L465.048 887.759L449.473 887.861L414.704 846.014Z"/>
	<path fill="#0D737D" d="M390.397 845.365L406.732 845.433L441.504 887.564L425.353 887.703L390.397 845.365Z"/>
	<path fill="#0D5267" d="M585.891 473.553L650.025 473.459L642.477 484.063L578.868 484.477L585.891 473.553Z"/>
	<path fill="#0D5267" d="M349.458 282.096L385.392 332.085L378.75 341.866L377.925 342.112L342.94 291.269C344.388 288.164 347.429 284.926 349.458 282.096Z"/>
	<path fill="#0D5267" d="M652.676 373.453L718.154 373.488L711.369 384.095L645.297 384.118C645.236 383.218 651.694 374.904 652.676 373.453Z"/>
	<path fill="#108A8D" d="M484.348 845.048L499.631 845.037C502.471 846.924 505.454 851.61 507.721 854.329L535.194 888.029L519.405 888.023L484.348 845.048Z"/>
	<path fill="#108A8D" d="M288.505 845.513L305.598 845.513C305.622 845.516 306.493 845.68 306.617 845.795C307.891 846.976 309.067 848.95 310.176 850.326L318.076 859.961L341.704 888.111L325.208 888.113L288.505 845.513Z"/>
	<path fill="#0D5267" d="M595.483 458.416L660.422 458.432L653.054 468.75C652.272 469.464 652.279 469.446 651.25 469.526C644.54 470.046 637.325 469.537 630.566 469.536L588.479 469.677L595.483 458.416Z"/>
	<path fill="#0D737D" d="M506.386 845.492L522.788 845.489L558.811 888.228L541.342 888.191L506.386 845.492Z"/>
	<path fill="#0D737D" d="M777.027 655.082L858.275 655.334L851.914 663.985L770.321 664.279L777.027 655.082Z"/>
	<path fill="#0D737D" d="M198.026 845.107L214.851 845.155L251.622 888.175L234.734 888.444L198.026 845.107Z"/>
	<path fill="#0D737D" d="M312.1 845.647L329.183 845.666L365.061 888.446L347.624 888.446L312.1 845.647Z"/>
	<path fill="#108A8D" d="M655.748 427.747L681.943 427.706L673.889 439.025L634.494 439.079L608.422 439.27L615.659 427.916L655.748 427.747Z"/>
	<path fill="#0D737D" d="M767.856 669.078L848.461 669.032L841.785 678.388L761.941 678.477L767.856 669.078Z"/>
	<path fill="#0D5267" d="M605.934 443.02L671.65 442.913L662.882 454.519L597.855 454.798L605.934 443.02Z"/>
	<path fill="#0D737D" d="M508.299 679.242L515.664 679.177L507.023 692.021L456.75 692.353L448.371 692.43L456.55 679.353L508.299 679.242Z"/>
	<path fill="#0D737D" d="M581.899 845.315L599.171 845.325L634.7 888.1L617.04 888.126L581.899 845.315Z"/>
	<path fill="#11274E" d="M642.449 388.944L708.369 388.903L700.356 400.098L634.026 400.67L642.449 388.944Z"/>
	<path fill="#0D737D" d="M446.489 695.523L504.924 695.48L496.386 708.58L437.778 708.97L446.489 695.523Z"/>
	<path fill="#0D5267" d="M748.713 711.252L819.33 711.066L811.867 721.105L805.073 721.144L734.967 721.417C734.878 719.873 739.632 713.339 740.745 711.324L748.713 711.252Z"/>
	<path fill="#0D5267" d="M751.208 696.226L829.087 696.05C828.912 697.086 827.805 698.258 827.183 699.133L822.411 706.076L744.141 706.417L751.208 696.226Z"/>
	<path fill="#0D5267" d="M750.832 726.248L808.542 726.4L801.491 736.577C795.637 737.399 788.719 736.665 782.75 736.633L724.914 736.788L731.307 726.455L750.832 726.248Z"/>
	<path fill="#0D5267" d="M758.687 773.263L776.352 773.099L768.759 783.996L711.373 784.009L694.044 784.009C696.554 781.038 698.864 777.409 700.705 773.98L700.941 773.53L758.687 773.263Z"/>
	<path fill="#0C3A57" d="M686.379 820.26L744.014 819.927L736.245 830.987L720.375 831.011L663.53 831.055L670.679 820.278L686.379 820.26Z"/>
	<path fill="#0AC4C2" d="M626.992 411.513L674.769 411.41L686.622 411.388C688.59 411.383 690.88 411.136 692.801 411.575L684.683 423.59L618.532 423.641L626.992 411.513Z"/>
	<path fill="#0C3A57" d="M725.219 804.233L755.688 804.095L747.463 815.02L704 815.176L674.011 815.159L680.809 804.529L725.219 804.233Z"/>
	<path fill="#0C3A57" d="M741.921 788.744L765.565 788.925L758.574 799.536L709.624 799.612L684.178 799.579C685.98 795.831 688.092 792.165 690.59 788.837L741.921 788.744Z"/>
	<path fill="#0D5267" d="M711.237 757.634L786.986 757.493L779.535 768.074L704.041 768.556L711.237 757.634Z"/>
	<path fill="#0D5267" d="M721.91 741.653L798.436 741.533C795.517 744.783 793.125 748.692 790.642 752.279L714.518 752.5L721.91 741.653Z"/>
	<path fill="#0AC4C2" d="M317.516 737.216L385.424 637.475L470.75 637.477L471.191 638.028L469.987 640.171L387.831 641.067L354.767 690.735L338.163 715.415C333.631 722.06 329.142 728.828 323.544 734.637L317.516 737.216Z"/>
	<path fill="#A40538" d="M465.559 506.53L466.308 502.218C466.273 509.982 467.919 517.846 473.75 523.47C474.677 524.364 475.822 525.088 476.907 525.767C479.839 528.085 482.906 528.839 486.468 529.786C490.884 530.499 494.785 530.707 499.046 529.076C499.984 529.732 500.885 530.4 501.902 530.93L498.796 532.089C495.194 533.081 491.894 533.302 488.17 533.193L485.25 532.584C483.189 532.159 481.45 531.388 479.544 530.519C478.873 531.823 478.669 532.557 477.428 533.374L476.282 533.7L475.863 534.977L475.732 535.335L475.211 534.203L473.887 533.68C472.725 539.461 469.177 545.846 466.461 551.102L442.643 509.771C441.954 508.614 442.141 508.694 442.296 507.441L443.05 508.484L443.941 508.353C444.834 508.23 445.463 508.285 446.343 508.52L446.457 508.933C447.968 508.863 449.325 508.373 450.77 507.953C453.378 507.943 458.859 507.296 461 508.545L463.081 508.155L463.375 507.899C464.374 507.397 464.791 507.464 465.559 506.53Z"/>
	<path fill="#F29930" d="M450.77 507.953C453.378 507.943 458.859 507.296 461 508.545L463.081 508.155L463.347 509.91L460.25 509.915C459.672 512.716 462.575 518.614 464.149 521.078L465.1 522.466L465.473 523.02C466.98 525.181 469.248 527.252 471.25 528.961C472.111 529.696 474.922 531.189 475.294 532.077C475.431 532.404 475.228 533.773 475.211 534.203L473.887 533.68C466.334 527.73 461.458 520.629 458.72 511.418L458.451 510.5L446.107 509.801L446.457 508.933C447.968 508.863 449.325 508.373 450.77 507.953Z"/>
	<path fill="#8E0507" d="M475.211 534.203C475.228 533.773 475.431 532.404 475.294 532.077C474.922 531.189 472.111 529.696 471.25 528.961C469.248 527.252 466.98 525.181 465.473 523.02L465.1 522.466L464.149 521.078C462.575 518.614 459.672 512.716 460.25 509.915L463.347 509.91C465.059 517.707 468.145 524.436 475.166 528.922C476.207 529.588 476.723 529.406 477.861 529.615C478.33 529.701 479.168 530.294 479.544 530.519C478.873 531.823 478.669 532.557 477.428 533.374L476.282 533.7L475.863 534.977L475.732 535.335L475.211 534.203Z"/>
	<path fill="#D3CA75" d="M465.559 506.53L466.308 502.218C466.273 509.982 467.919 517.846 473.75 523.47C474.677 524.364 475.822 525.088 476.907 525.767C479.839 528.085 482.906 528.839 486.468 529.786C490.884 530.499 494.785 530.707 499.046 529.076C499.984 529.732 500.885 530.4 501.902 530.93L498.796 532.089C495.194 533.081 491.894 533.302 488.17 533.193L485.25 532.584C483.189 532.159 481.45 531.388 479.544 530.519C479.168 530.294 478.33 529.701 477.861 529.615C476.723 529.406 476.207 529.588 475.166 528.922C468.145 524.436 465.059 517.707 463.347 509.91L463.081 508.155L463.375 507.899C464.374 507.397 464.791 507.464 465.559 506.53Z"/>
	<path fill="#0D737D" d="M504.619 661.237L526.915 660.996L517.785 675.987L481.75 676.073L458.489 676.082L468.967 661.543L504.619 661.237Z"/>
	<path fill="#FCFCFD" d="M729.112 642.034L748.161 642.12L717.719 690.491L697.917 690.47L729.112 642.034Z"/>
	<path fill="#FCFCFD" d="M756.432 642.001L775.806 642.085L744.246 690.426L725.313 690.41C728.339 683.312 733.416 677.035 737.653 670.628L756.432 642.001Z"/>
	<path fill="#0BCEC8" d="M708.102 147.844L744.226 147.989L724.594 175.26L688.266 175.288L708.102 147.844Z"/>
	<path fill="#EBF5F6" d="M178.49 305.446L173.136 305.209L245.131 197.892L265.49 167.559L274.172 154.595C275.843 152.173 277.481 149.407 279.75 147.512L284.542 148.184C281.824 153.938 277.091 159.646 273.503 165.024L246.393 205.334L205.304 266.245C196.597 279.266 188.264 293.24 178.49 305.446Z"/>
	<path fill="#0D737D" d="M742.761 324.747L751.066 324.748L739.93 340.552L682.875 340.529C680.124 340.552 677.268 340.747 674.537 340.402L684.144 324.959L742.761 324.747Z"/>
	<path fill="#0C3A57" d="M282.686 314.87L304.894 314.973L343.629 370.01L326.586 370.013C319.891 360.283 311.813 351.276 304.492 342C297.396 333.008 290.646 323.081 282.686 314.87Z"/>
	<path fill="#8E0507" d="M477.262 476.65C486.889 473.057 494.005 473.617 503.465 477.271C507.949 479.606 511.406 482.133 515.059 485.612C516.945 487.896 519.276 490.294 520.241 493.136C521.289 496.223 521.003 500.187 520.901 503.416L519.818 522.242L516.286 525.712C515.065 526.632 514.254 527.383 513.452 528.698C512.146 530.837 510.035 532.32 508.024 533.766L504.105 535.783L502.051 536.446C494.172 538.745 483.222 538.91 475.863 534.977L476.282 533.7L477.428 533.374C478.669 532.557 478.873 531.823 479.544 530.519C481.45 531.388 483.189 532.159 485.25 532.584L488.17 533.193C491.894 533.302 495.194 533.081 498.796 532.089L501.902 530.93C504.954 529.427 507.688 527.841 510.449 525.862C511.737 524.372 513.151 522.945 514.191 521.262C517.559 515.808 517.513 503.296 516.196 497.157L515.92 497.991C515.617 499.612 515.506 502.668 514.117 503.662L512.429 504.394L510.928 498.502C510.412 496.72 509.921 495.776 508.644 494.405L506.617 491.642C503.215 487.453 498.157 484.971 492.823 484.45C486.556 483.839 481.337 484.04 475.588 486.903L474.461 486.753C470.065 491.038 466.599 495.846 466.308 502.218L465.559 506.53C464.489 506.476 463.421 506.222 462.367 506.032C460.608 506.021 459.636 506.585 457.817 506.471C457.158 506.042 455.467 506.053 454.641 505.949L454.548 505.809L455.582 503.888L455.998 502.998C458.137 498.482 458.958 493.436 462.155 489.356C466.34 484.013 470.37 477.82 477.183 475.882L477.262 476.65Z"/>
	<path fill="#BE1617" d="M457.817 506.471C457.71 505.141 457.895 503.978 458.296 502.706L458.53 502.002C459.131 499.865 460.331 497.471 461.75 495.755C462.494 496.499 462.246 496.721 462.248 497.729L464.462 496.583C463.501 499.672 462.503 502.78 462.367 506.032C460.608 506.021 459.636 506.585 457.817 506.471Z"/>
	<path fill="#FAD755" d="M473.618 484.12L474.944 483.563L474.461 486.753C470.065 491.038 466.599 495.846 466.308 502.218L465.559 506.53C464.489 506.476 463.421 506.222 462.367 506.032C462.503 502.78 463.501 499.672 464.462 496.583C466.52 491.391 469.592 487.875 473.618 484.12Z"/>
	<path fill="#0BCEC8" d="M474.944 483.563C477.125 482.156 479.352 480.644 481.819 479.792C490.229 476.884 497.623 478.647 505.392 482.334C511.075 486.456 515.013 489.803 516.196 497.157L515.92 497.991C515.617 499.612 515.506 502.668 514.117 503.662L512.429 504.394L510.928 498.502C510.412 496.72 509.921 495.776 508.644 494.405L506.617 491.642C503.215 487.453 498.157 484.971 492.823 484.45C486.556 483.839 481.337 484.04 475.588 486.903L474.461 486.753L474.944 483.563Z"/>
	<path fill="#F29930" d="M477.262 476.65C486.889 473.057 494.005 473.617 503.465 477.271C507.949 479.606 511.406 482.133 515.059 485.612C516.945 487.896 519.276 490.294 520.241 493.136C521.289 496.223 521.003 500.187 520.901 503.416L519.818 522.242L516.286 525.712C515.065 526.632 514.254 527.383 513.452 528.698C512.146 530.837 510.035 532.32 508.024 533.766L504.105 535.783L502.051 536.446C494.172 538.745 483.222 538.91 475.863 534.977L476.282 533.7L477.428 533.374C478.669 532.557 478.873 531.823 479.544 530.519C481.45 531.388 483.189 532.159 485.25 532.584L488.17 533.193C491.894 533.302 495.194 533.081 498.796 532.089L501.902 530.93C504.954 529.427 507.688 527.841 510.449 525.862C511.594 525.571 511.218 525.769 512.142 525.167C513.063 524.566 513.794 524.674 514.877 524.596L516.319 522.819C519.554 518.05 519.004 508.475 519.065 502.764C519.093 500.192 519.325 496.925 518.631 494.444C517.215 489.381 510.469 484.112 506.13 481.541C498.215 476.674 491.149 474.739 481.951 476.817L481.197 476.979C479.185 477.439 477.611 478.302 475.83 479.31L475.19 479.662C472.932 480.944 470.766 482.946 468.971 484.823C467.158 486.441 465.432 488.341 464.15 490.412C463.681 491.169 464.034 490.932 463.25 491.159L463.385 490.609C465.076 485.596 472.532 478.944 477.262 476.65Z"/>
	<path fill="#BE1617" d="M510.449 525.862C511.594 525.571 511.218 525.769 512.142 525.167C513.063 524.566 513.794 524.674 514.877 524.596C511.229 529.412 505.631 532.744 500.047 534.849C491.649 536.948 485.335 536.857 477.428 533.374C478.669 532.557 478.873 531.823 479.544 530.519C481.45 531.388 483.189 532.159 485.25 532.584L488.17 533.193C491.894 533.302 495.194 533.081 498.796 532.089L501.902 530.93C504.954 529.427 507.688 527.841 510.449 525.862Z"/>
	<path fill="#0D5267" d="M811.448 156.53C813.534 160.04 816.156 163.151 818.851 166.205L760.006 248.11L759.982 239.674L751.457 239.514L811.448 156.53Z"/>
	<path fill="#0D5267" d="M363.471 261.25L364.854 261.15C370.849 267.976 376.088 276.284 381.175 283.828L399.832 311.266L388.75 327.43L387.937 327.597L352.543 277.523L363.471 261.25Z"/>
	<path fill="#0D5267" d="M250.943 314.993L275.531 314.986C278.092 317.242 280.304 320.321 282.474 322.954L296.694 341.125L319.851 370.038L297.933 370.302L250.943 314.993Z"/>
	<path fill="#FCFCFD" d="M275.403 790.949L622.662 791.017L620.052 794.816C591.233 795.578 278.262 795.609 275.614 794.25L275.403 790.949Z"/>
	<path fill="#FAD755" d="M205.416 314.94L243.477 314.939C245.697 316.5 247.72 319.347 249.521 321.413L262.297 336.279L291.464 370.48L281.676 370.55C280.741 370.552 279.176 370.764 278.3 370.429C276.883 369.889 275.182 368.188 273.921 367.223L262.511 358.33L205.416 314.94Z"/>
	<path fill="#C10935" d="M515.059 485.612C517.547 486.102 518.782 488.429 520.295 490.388C520.892 491.408 521.378 492.246 522.229 493.082C523.75 493.145 525.155 493.403 526.475 492.5L527.324 489.815L543.492 517.468L543.117 517.985L521.824 549.946L470.338 550.496L475.732 535.335L475.863 534.977C483.222 538.91 494.172 538.745 502.051 536.446L504.105 535.783L508.024 533.766C510.035 532.32 512.146 530.837 513.452 528.698C514.254 527.383 515.065 526.632 516.286 525.712L519.818 522.242L520.901 503.416C521.003 500.187 521.289 496.223 520.241 493.136C519.276 490.294 516.945 487.896 515.059 485.612Z"/>
	<path fill="#4A0B4A" d="M508.024 533.766C510.035 532.32 512.146 530.837 513.452 528.698C514.254 527.383 515.065 526.632 516.286 525.712C518.976 526.503 521.588 527.158 524.392 527.429C524.016 528.144 523.646 529.131 523.117 529.726C519.774 532.953 516.268 535.616 512.539 538.369C509.781 537.33 506.721 536.949 504.105 535.783L508.024 533.766Z"/>
	<path fill="#A40538" d="M508.024 533.766C510.035 532.32 512.146 530.837 513.452 528.698C514.254 527.383 515.065 526.632 516.286 525.712C518.976 526.503 521.588 527.158 524.392 527.429C524.016 528.144 523.646 529.131 523.117 529.726L517.25 528.935L516.811 529.379C514.645 531.521 512.398 532.975 509.381 533.524L508.57 533.678L508.024 533.766Z"/>
	<path fill="#690830" d="M515.059 485.612C517.547 486.102 518.782 488.429 520.295 490.388C520.892 491.408 521.378 492.246 522.229 493.082C523.88 495.121 524.091 496.467 524.468 499C525.718 507.379 526.578 519.175 524.392 527.429C521.588 527.158 518.976 526.503 516.286 525.712L519.818 522.242L520.901 503.416C521.003 500.187 521.289 496.223 520.241 493.136C519.276 490.294 516.945 487.896 515.059 485.612Z"/>
	<path fill="#11274E" d="M429.145 247.307L459.248 247.036C467.733 261.946 478.161 276.108 487.643 290.404C490.771 295.121 494.768 299.822 497.227 304.911L469.718 304.942L429.145 247.307Z"/>
	<path fill="#0D737D" d="M377.378 246.853L405.343 246.934L445.835 305.006L417.574 305.004L377.378 246.853Z"/>
	<path fill="#0BCEC8" d="M730.047 174.873L749.196 147.982L793.78 147.911L804.213 147.868C806.118 147.856 808.469 147.579 810.298 148.069L791.813 174.738L730.047 174.873Z"/>
	<path fill="#11274E" d="M483.533 247.161L537.49 247.182C538.9 249.117 546.013 257.203 546.039 259.107L519.057 298.634L483.533 247.161Z"/>
	<path fill="#F29930" d="M475.588 486.903C481.337 484.04 486.556 483.839 492.823 484.45C498.157 484.971 503.215 487.453 506.617 491.642L508.644 494.405C509.921 495.776 510.412 496.72 510.928 498.502L512.429 504.394L514.117 503.662C515.506 502.668 515.617 499.612 515.92 497.991L516.196 497.157C517.513 503.296 517.559 515.808 514.191 521.262C513.151 522.945 511.737 524.372 510.449 525.862C507.688 527.841 504.954 529.427 501.902 530.93C500.885 530.4 499.984 529.732 499.046 529.076C494.785 530.707 490.884 530.499 486.468 529.786C482.906 528.839 479.839 528.085 476.907 525.767C475.822 525.088 474.677 524.364 473.75 523.47C467.919 517.846 466.273 509.982 466.308 502.218C466.599 495.846 470.065 491.038 474.461 486.753L475.588 486.903Z"/>
	<path fill="#D3CA75" d="M474.692 500.727L477.188 498.633C478.754 497.341 480.537 496.814 482.498 496.421C484.296 496.06 487.042 496.282 488.755 497.25C489.359 497.591 489.899 498.257 490.356 498.75C490.217 500.444 489.498 501.116 488.25 502.292C487.468 503.03 484.592 505.508 483.718 505.762C483.151 505.927 481.8 505.749 481.177 505.765C479.18 505.817 477.985 506.167 476.247 507.088C475.183 507.652 474.15 507.84 472.961 507.635C472.827 504.704 473.355 503.245 474.692 500.727Z"/>
	<path fill="#07B7BE" d="M474.461 486.753L475.588 486.903C471.806 490.234 470.242 492.821 468.678 497.629C470.026 499.458 471.901 500.19 474.141 500.646L474.692 500.727C473.355 503.245 472.827 504.704 472.961 507.635L472.754 507.995C473.691 511.972 475.941 515.569 479.397 517.873L480.797 518.646C482.431 517.323 484.302 515.602 486.25 514.788C489.398 513.474 492.726 512.963 495.781 511.324C496.785 510.786 497.665 510.388 498.75 510.037L499.75 510.742C500.348 512.836 500.52 514.839 500.665 517L501.422 518.25C502.84 518.658 503.534 518.917 505 518.477C506.536 516.966 507.476 515.535 508.465 513.626C510.527 509.475 511.566 507.004 510.777 502.279L510.639 501.5C510.216 499.009 509.484 496.776 508.644 494.405C509.921 495.776 510.412 496.72 510.928 498.502L512.429 504.394L514.117 503.662C515.506 502.668 515.617 499.612 515.92 497.991L516.196 497.157C517.513 503.296 517.559 515.808 514.191 521.262C513.151 522.945 511.737 524.372 510.449 525.862C507.688 527.841 504.954 529.427 501.902 530.93C500.885 530.4 499.984 529.732 499.046 529.076C494.785 530.707 490.884 530.499 486.468 529.786C482.906 528.839 479.839 528.085 476.907 525.767C475.822 525.088 474.677 524.364 473.75 523.47C467.919 517.846 466.273 509.982 466.308 502.218C466.599 495.846 470.065 491.038 474.461 486.753Z"/>
	<path fill="#DAA" d="M493.238 513.451C494.851 512.612 496.827 511.065 498.619 511.341C499.256 512.436 499.56 513.375 499.275 514.669L498.978 515.423C498.242 515.273 497.484 515.308 496.735 515.278C494.621 515.195 494.604 514.931 493.238 513.451Z"/>
	<path fill="#EAA292" d="M482.031 520.491L482.481 519.268C484.135 515.881 489.993 514.63 493.238 513.451C494.604 514.931 494.621 515.195 496.735 515.278C497.484 515.308 498.242 515.273 498.978 515.423C498.606 516.2 498.284 516.856 497.776 517.556C493.337 520.305 489.357 522.4 483.957 521.054L482.031 520.491Z"/>
	<path fill="#55F3D8" d="M516.196 497.157C517.513 503.296 517.559 515.808 514.191 521.262C513.151 522.945 511.737 524.372 510.449 525.862C507.688 527.841 504.954 529.427 501.902 530.93C500.885 530.4 499.984 529.732 499.046 529.076L500.5 528.236L503.745 526.25C505.649 525.102 507.854 523.046 509.096 521.183C509.996 519.833 511.207 518.276 511.728 516.747L511.954 515.997L513.046 511.861C513.119 509.35 512.814 506.871 512.429 504.394L514.117 503.662C515.506 502.668 515.617 499.612 515.92 497.991L516.196 497.157Z"/>
	<path fill="#4FF3E6" d="M512.429 504.394L514.117 503.662C515.506 502.668 515.617 499.612 515.92 497.991C515.983 502.131 515.154 505.608 515.245 509.75C514.483 510.146 514.857 510.097 514.148 510.021L513.046 511.861C513.119 509.35 512.814 506.871 512.429 504.394Z"/>
	<path fill="#0AC4C2" d="M474.461 486.753L475.588 486.903C471.806 490.234 470.242 492.821 468.678 497.629C470.026 499.458 471.901 500.19 474.141 500.646L474.692 500.727C473.355 503.245 472.827 504.704 472.961 507.635L472.754 507.995C473.691 511.972 475.941 515.569 479.397 517.873L480.797 518.646C481.101 519.13 481.573 520.099 482.031 520.491L483.957 521.054C489.357 522.4 493.337 520.305 497.776 517.556C498.015 520.506 498.523 523.514 496.563 526.06C495.946 526.861 495.35 527.243 494.5 527.755C493.445 527.76 493.441 527.635 492.5 528.255C490.012 528.253 485.571 528.828 483.5 527.755L482.498 527.503C480.665 526.98 478.79 526.017 476.907 525.767C475.822 525.088 474.677 524.364 473.75 523.47C467.919 517.846 466.273 509.982 466.308 502.218C466.599 495.846 470.065 491.038 474.461 486.753Z"/>
	<path fill="#94BBBD" d="M468.678 497.629C470.026 499.458 471.901 500.19 474.141 500.646L474.692 500.727C473.355 503.245 472.827 504.704 472.961 507.635L472.754 507.995C471.974 508.954 471.214 509.386 470.035 509.763C469.228 510.02 468.968 509.642 468.25 509.279L468.105 507.5C467.454 503.932 467.978 501.166 468.678 497.629Z"/>
	<path fill="#11274E" d="M691.721 836.266L733.363 836.044L697.491 886.195L696.588 887.25L695.867 887.175L658.86 839.75C659.159 837.996 659.574 837.753 660.75 836.479L691.721 836.266Z"/>
	<defs>
		<linearGradient id="gradient_1" gradientUnits="userSpaceOnUse" x1="676.72363" y1="780.4068" x2="644.89844" y2="747.59503">
			<stop offset="0" stop-color="#F84328"/>
			<stop offset="1" stop-color="#E4213F"/>
		</linearGradient>
	</defs>
	<path fill="url(#gradient_1)" d="M692.581 699.006C695.713 697.462 708.327 698.423 712.503 698.429L623.474 834.372L613.961 834.42L609.691 834.476C610.788 831.09 612.827 827.989 614.66 824.955L634.305 793.121L647.175 772.427L649.352 769.54C653.65 765.016 657.21 759.006 660.286 753.604L661.604 750.887L664.793 745.056L672.651 732.717L673.183 732.791L680.547 721.531C683.26 717.666 685.662 713.468 688.144 709.446C690.026 706.395 692.281 703.207 693.325 699.758L692.581 699.006Z"/>
	<path fill="#FAD755" d="M672.651 732.717L673.183 732.791L676.75 732.528L677.339 733.431L665.853 751.024L660.286 753.604L661.604 750.887L664.793 745.056L672.651 732.717Z"/>
	<path fill="#F5B457" d="M660.286 753.604L665.853 751.024L648.194 775.338L629.614 807.875L619.833 823.986C617.733 827.358 615.26 830.642 613.961 834.42L609.691 834.476C610.788 831.09 612.827 827.989 614.66 824.955L634.305 793.121L647.175 772.427L649.352 769.54C653.65 765.016 657.21 759.006 660.286 753.604Z"/>
	<path fill="#0D737D" d="M687.899 175.448L688.266 175.288L724.594 175.26L679.347 238.989L643.039 238.964L687.899 175.448Z"/>
	<path fill="#C10935" d="M422.085 376.865L466.581 313.041L504.991 313.022L478.035 351.5L465.176 370.07C463.664 372.212 461.926 375.424 460.02 377.148C456.13 376.451 451.235 377.092 447.25 377.119L422.085 376.865Z"/>
	<path fill="#F29930" d="M719.815 698.505L739.712 698.504L650.551 834.383L630.705 834.421L719.815 698.505Z"/>
	<path fill="#EBF5F6" d="M523.138 304.834C524.434 305.851 526.797 308.22 528.326 308.606C530.992 309.281 535.477 308.669 538.326 308.649L538.354 308.842L542.5 308.937L542.889 309.5L455.716 436.013L447.911 422.932L443.727 415.791L523.138 304.834Z"/>
	<path fill="#0BCEC8" d="M523.138 304.834C524.434 305.851 526.797 308.22 528.326 308.606C530.992 309.281 535.477 308.669 538.326 308.649L538.354 308.842L527.66 308.914C516.12 322.173 506.411 337.85 496.269 352.214C479.836 375.488 462.759 398.604 447.911 422.932L443.727 415.791L523.138 304.834Z"/>
	<path fill="#0D5267" d="M821.505 169.718L830.26 182.243L784.382 249.683C786.571 248.012 788.261 245.236 789.979 243.071L802.891 226.139L832.845 186.43L840.942 198.215L813.579 236.227L760.504 310.015L760.343 309.542C759.625 304.698 760.396 298.513 760.432 293.553L760.721 261.689C760.766 259.245 760.292 255.152 760.906 252.867C761.126 252.047 762.864 250.113 763.445 249.298L771.254 238.426L808.354 187.565L821.505 169.718Z"/>
	<path fill="#4A0B4A" d="M260.245 379.615L363.923 379.374L407.461 312.945L431.438 312.995L387.996 376.475L371.466 401.124L370.5 401.874L316.879 401.995L301.193 401.963C299.41 401.953 296.711 402.293 295.009 401.922C293.933 401.688 291.407 399.649 290.28 398.977L270.769 386.643C267.281 384.376 263.439 382.274 260.245 379.615Z"/>
	<path fill="#0D737D" d="M610.04 316.666L639.312 273.833C645.107 265.247 650.446 255.783 657.102 247.845L674.014 247.679L673.986 295.829C673.986 303.989 673.07 313.254 674.579 321.207L656.954 347.117L610.04 316.666Z"/>
	<path fill="#0BCEC8" d="M173.428 834.644L162.057 834.61L440.618 420.17L444.745 426.313C436.296 436.134 429.985 448.034 422.646 458.704L402.257 488.2L357.743 556.298L291.327 655.15L271.557 683.986L236.757 737.937L200.168 792.757C190.987 806.434 181.293 820.167 173.428 834.644Z"/>
	<path fill="#0D737D" d="M791.813 174.738L781.239 189.975L760.561 219.212C756.141 225.378 750.854 231.684 747.377 238.424L747.059 239.05L684.744 239.029C684.719 238.729 725.991 180.486 730.047 174.873L791.813 174.738Z"/>
	<defs>
		<linearGradient id="gradient_2" gradientUnits="userSpaceOnUse" x1="264.21695" y1="236.16084" x2="226.30074" y2="216.3484">
			<stop offset="0" stop-color="#009593"/>
			<stop offset="1" stop-color="#008A9C"/>
		</linearGradient>
	</defs>
	<path fill="url(#gradient_2)" d="M284.542 148.184L312.391 147.826L298.429 167.978L271.814 207.509L226.063 274.982L210.478 297.432C208.663 299.958 206.722 303.533 204.33 305.447L178.49 305.446C188.264 293.24 196.597 279.266 205.304 266.245L246.393 205.334L273.503 165.024C277.091 159.646 281.824 153.938 284.542 148.184Z"/>
	<path fill="#F5B457" d="M682.863 247.6L754.379 247.429L754.393 315.472L682.573 315.31L682.863 247.6Z"/>
	<path fill="#02073B" d="M716.39 256.169C723.343 255.669 730.35 256.928 736.013 261.25C741.235 265.235 744.65 271.969 745.436 278.465C746.225 284.986 744.425 290.77 740.408 295.964C735.897 301.799 730.78 303.954 723.618 304.86C716.788 305.291 710.247 303.831 704.5 299.968C699.226 296.423 695.831 290.507 694.66 284.317C693.483 278.092 695.248 271.396 698.998 266.368C703.424 260.433 709.159 257.322 716.39 256.169Z"/>
	<path fill="#0AC4C2" d="M715.462 259.621C720.66 259.401 724.97 259.548 729.5 262.509C733.595 265.186 736.529 269.499 737.411 274.323C738.371 279.572 737.307 285.403 734.287 289.795C730.971 294.617 727.364 296.831 721.728 297.993C717.455 298.092 713.692 297.998 709.839 295.828C705.204 293.217 701.929 289.028 700.484 283.9C699.015 278.687 699.686 273.087 702.431 268.402C705.487 263.184 709.806 261.02 715.462 259.621Z"/>
	<path fill="#0D737D" d="M523.138 304.834C526.542 299.876 562.586 247.92 564.106 247.48L652.451 247.721C651.961 249.418 650.644 251.031 649.677 252.506L642.499 262.879L617.903 298.197L608.985 310.981C608.162 312.153 607.351 313.968 606.405 314.945C604.753 313.369 601.066 309.413 598.856 309.013C596.949 308.667 594.241 309.022 592.25 309.037L577.565 309.139L538.326 308.649C535.477 308.669 530.992 309.281 528.326 308.606C526.797 308.22 524.434 305.851 523.138 304.834Z"/>
	<path fill="#F29930" d="M598.097 172.731C607.348 174.229 617.562 173.452 626.961 173.696L687.899 175.448L643.039 238.964L551.485 238.551L598.097 172.731Z"/>
	<path fill="#FCFCFD" d="M618.848 189.25C620.097 188.861 621.455 188.732 622.75 188.989C624.493 189.334 626.243 190.637 627.097 192.191C628.067 193.957 628.227 196.003 627.51 197.881C626.735 199.908 625.44 200.831 623.555 201.75C622.39 202.128 620.961 202.181 619.75 202.013C618.142 201.789 616.502 200.519 615.626 199.2C614.531 197.551 614.158 195.791 614.657 193.86C615.244 191.585 616.889 190.326 618.848 189.25Z"/>
	<path fill="#FCFCFD" d="M635.184 210.75C636.363 210.517 637.755 210.319 638.916 210.691C640.874 211.318 642.638 213.089 643.499 214.929C644.313 216.669 644.331 219.069 643.53 220.816C642.5 223.062 641.021 223.927 638.75 224.656C638.088 224.764 637.5 224.781 636.835 224.679C634.541 224.329 632.796 223.335 631.52 221.364C630.561 219.883 629.81 217.417 630.337 215.675C631.126 213.066 632.843 211.884 635.184 210.75Z"/>
	<path fill="#FCFCFD" d="M425.567 168.453L439.375 147.88L708.102 147.844L688.266 175.288L687.899 175.448L626.961 173.696C617.562 173.452 607.348 174.229 598.097 172.731C595.832 172.34 593.226 172.565 590.918 172.545L578.387 172.219L549 171.169L446.189 169.074L431.963 169.008C429.905 169.004 427.438 169.372 425.567 168.453Z"/>
	<path fill="#FCFCFD" d="M444.745 426.313L452.966 440.848L348.212 594.515L330.061 621.634C328.35 624.231 325.319 627.745 324.288 630.603L284.945 689.448L239.48 758L199.645 817.665C196.25 823.032 191.709 828.832 188.984 834.484L173.428 834.644C181.293 820.167 190.987 806.434 200.168 792.757L236.757 737.937L271.557 683.986L291.327 655.15L357.743 556.298L402.257 488.2L422.646 458.704C429.985 448.034 436.296 436.134 444.745 426.313Z"/>
	<defs>
		<linearGradient id="gradient_3" gradientUnits="userSpaceOnUse" x1="272.70493" y1="693.46704" x2="475.33624" y2="706.06909">
			<stop offset="0" stop-color="#0E6776"/>
			<stop offset="1" stop-color="#069197"/>
		</linearGradient>
	</defs>
	<path fill="url(#gradient_3)" d="M325.047 634.383L326.449 632.792C329.113 629.992 336.416 629.507 340.134 628.724C366.365 623.198 392.377 620.79 419.025 618.46L482.95 614.021L475.001 627.062L382.97 627.313L296.367 755.324L281.939 776.685C279.418 780.401 275.935 784.63 274.331 788.814C274.399 786.745 273.616 784.961 273.079 783L270.805 773.599C267.746 759.25 268.205 745.023 271.257 730.703C273.919 718.208 278.135 706.154 284.089 694.833C295.506 673.126 311.749 654.819 325.047 634.383Z"/>
	<path fill="#0AC4C2" d="M538.326 308.649L577.565 309.139L592.25 309.037C594.241 309.022 596.949 308.667 598.856 309.013C601.066 309.413 604.753 313.369 606.405 314.945L510.834 454.03L465.885 454.102L455.716 436.013L542.889 309.5L542.5 308.937L538.354 308.842L538.326 308.649Z"/>
	<path fill="#0AC4C2" d="M610.04 316.666L656.954 347.117L553.931 501.862L529.988 460C527.585 455.921 525.618 451.415 522.682 447.695L610.04 316.666Z"/>
	<path fill="#FCFCFD" d="M584.174 391.75C585.483 391.372 587.402 391.202 588.709 391.635C590.018 392.07 591.332 393.293 591.997 394.505C593.04 396.406 593.029 398.688 592.25 400.676C591.484 402.633 590.063 403.385 588.255 404.25C587.095 404.45 585.753 404.633 584.592 404.399C582.714 404.02 581.071 402.735 580.163 401.061C579.385 399.629 579.268 397.912 579.75 396.36C580.432 394.163 582.229 392.781 584.174 391.75Z"/>
	<path fill="#02073B" d="M601.439 344.75C602.417 344.6 603.514 344.447 604.5 344.559C606.978 344.841 609.128 346.521 610.486 348.525C611.647 350.236 611.764 352.262 611.302 354.25C610.57 357.398 608.121 358.992 605.483 360.463C603.986 360.533 602.184 360.73 600.74 360.278C598.965 359.723 597.398 358.393 596.565 356.744C595.473 354.584 595.339 352.329 596.157 350.042C597.141 347.293 598.885 345.931 601.439 344.75Z"/>
	<path fill="#F23B51" d="M626.476 359.045C628.151 358.888 629.866 358.632 631.52 359.052C633.999 359.68 636.475 360.888 637.742 363.233C638.431 364.509 638.24 366.156 637.867 367.5C637.026 370.524 634.288 372.371 631.676 373.758C630.251 373.921 628.724 374.188 627.296 373.992C624.832 373.654 622.664 372.435 621.335 370.298C620.348 368.713 620.142 366.392 620.689 364.617C621.548 361.83 624.075 360.332 626.476 359.045Z"/>
	<path fill="#0AC4C2" d="M425.567 168.453C427.438 169.372 429.905 169.004 431.963 169.008L446.189 169.074L549 171.169L578.387 172.219L590.918 172.545C593.226 172.565 595.832 172.34 598.097 172.731L551.485 238.551L377.381 238.963L425.567 168.453Z"/>
	<path fill="#FCFCFD" d="M507.2 192.563C508.506 192.683 509.884 192.773 511.116 193.255C513.373 194.137 514.945 196.077 515.765 198.312C516.597 200.58 516.299 203.13 515.286 205.286C514.04 207.938 511.755 209.075 509.154 210.107C507.768 210.074 506.158 210.129 504.833 209.689C502.865 209.034 501.084 207.146 500.24 205.308C499.265 203.183 499.126 200.411 500.101 198.25C501.563 195.008 503.998 193.713 507.2 192.563Z"/>
	<path fill="#F23B51" d="M463.083 193.032C465.114 192.9 467.053 192.782 469.04 193.313C472.43 194.22 475.491 196.501 477.086 199.669C478.42 202.32 478.231 205.264 477.316 208.001C475.816 212.489 472.823 214.459 468.792 216.406L468.321 216.416C465.74 216.548 463.788 216.635 461.307 215.813C458.463 214.872 456.357 212.935 455.052 210.25C453.596 207.253 453.802 203.649 454.956 200.593C456.461 196.607 459.36 194.688 463.083 193.032Z"/>
	<path fill="#0D737D" d="M469.987 640.171L443.092 682.024L396.191 754.156L383.571 773.307C381.61 776.321 379.124 781.313 376.319 783.481L285.556 783.51L312.519 744.396C313.858 741.726 315.655 739.533 317.516 737.216L323.544 734.637C329.142 728.828 333.631 722.06 338.163 715.415L354.767 690.735L387.831 641.067L469.987 640.171Z"/>
	<path fill="#02073B" d="M317.045 755.41C319.93 756.881 322.952 758.024 326.25 757.97C330.377 757.904 332.991 755.284 335.737 752.587C335.124 755.898 334.154 758.361 331.207 760.25C328.841 761.766 326.194 762.205 323.486 761.471C321.037 760.807 318.92 759.395 317.743 757.084L317.045 755.41Z"/>
	<path fill="#FCFCFD" d="M361.639 749.25C362.617 749.088 363.212 749.082 364.169 749.319C366.12 749.804 366.998 751.08 367.904 752.75C368.078 754.413 368.293 756.234 367.411 757.75C366.543 759.243 365.312 759.81 363.75 760.347C362.804 760.36 361.79 760.396 360.875 760.123C359.372 759.675 358.175 758.546 357.587 757.101C357.044 755.768 356.987 754.355 357.494 753.016C358.286 750.922 359.671 750.108 361.639 749.25Z"/>
	<path fill="#0AC4C2" d="M378.787 717.75C380.079 717.501 381.438 717.392 382.75 717.594C384.622 717.882 386.731 719.544 387.76 721.091C388.981 722.924 389.047 724.943 388.474 727.006C387.709 729.759 385.662 730.947 383.283 732.222C381.811 732.433 380.336 732.604 378.878 732.204C376.503 731.552 374.788 729.73 373.764 727.564C373.164 726.292 373.223 723.901 373.703 722.611C374.628 720.124 376.469 718.8 378.787 717.75Z"/>
	<path fill="#FAD755" d="M323.544 734.637C327.521 734.731 331.078 735.145 333.92 738.25C336.156 740.693 337.711 744.412 337.257 747.755C337.03 749.426 336.377 751.039 335.737 752.587C332.991 755.284 330.377 757.904 326.25 757.97C322.952 758.024 319.93 756.881 317.045 755.41L317.029 755.287C314.141 751.61 313.219 748.961 312.519 744.396C313.858 741.726 315.655 739.533 317.516 737.216L323.544 734.637Z"/>
	<path fill="#0AC4C2" d="M452.966 440.848L461.418 456.588L461.127 457.013L431.047 508.314L461.11 561.899L462.098 561.766C467.923 561.042 474.334 561.539 480.236 561.519L516.128 561.419L482.95 614.021L419.025 618.46C392.377 620.79 366.365 623.198 340.134 628.724C336.416 629.507 329.113 629.992 326.449 632.792L325.047 634.383L324.255 634.308L319.895 640.031L317.255 643.75L316.255 645C314.815 647.132 313.394 649.248 311.755 651.25L311.5 651.25C313.497 647.753 315.953 643.92 318.417 640.729C320.35 638.226 324.202 633.751 324.288 630.603C325.319 627.745 328.35 624.231 330.061 621.634L348.212 594.515L452.966 440.848Z"/>
	<path fill="#EF211C" d="M458.645 579.75L459.037 579.764C460.64 580.025 462.439 580.821 463.411 582.176C464.239 583.331 464.228 584.483 463.961 585.836C463.531 588.014 462.281 589.261 460.491 590.454L460.061 590.731L459.939 591.75L456.955 592.25C456.461 592.084 456.206 592.025 455.77 591.796C454.069 590.899 452.673 589.047 452.145 587.216C451.657 585.522 451.801 584.084 452.661 582.608L453.211 583.25C455.265 583.541 456.363 580.351 458.645 579.75Z"/>
	<path fill="#FCFCFD" d="M382.566 569.476C385.3 564.283 389.337 560.22 395.062 558.419C400.784 556.62 407.303 556.958 412.644 559.804C418.28 562.808 421.151 567.289 422.812 573.367L423.14 574.9C422.518 574.248 422.638 574.526 422.387 573.754C422.096 572.862 421.136 572.41 420.387 571.843C418.771 570.164 418.258 568.114 416.278 566.602L414.031 564.764L413.235 562.786L412.536 562.549C410.577 561.844 412.919 562.724 411 561.755L410.546 561.645C409.674 561.425 410.245 561.603 409.265 561.113C408.439 560.701 408.135 560.676 407.245 560.75L406.5 560.255C404.327 560.255 399.142 559.66 397.5 560.755C396.331 560.755 396.56 560.719 395.5 561.255L395.048 561.363C394.279 561.554 393.706 561.902 393 562.255L392.22 562.629C391.533 562.972 391.112 563.323 390.5 563.755L389.781 564.224C388.568 565.033 387.582 565.797 386.755 567L386.24 567.734C385.786 568.415 385.521 568.994 385.25 569.755L383.499 570.239L382.566 569.476Z"/>
	<path fill="#FCFCFD" d="M423.075 524.006C424.131 523.991 425.168 524.005 426.2 524.257C428.67 524.86 430.73 525.961 431.995 528.25C432.913 529.909 433.019 531.449 432.494 533.25C431.58 536.39 429.525 537.779 426.799 539.332C425.444 539.453 423.905 539.676 422.565 539.396C420.62 538.989 418.714 537.443 417.733 535.746C416.668 533.904 416.615 531.272 417.287 529.281C418.249 526.434 420.501 525.19 423.075 524.006Z"/>
	<path fill="#EBF5F6" d="M382.566 569.476L383.499 570.239L385.25 569.755C385.521 568.994 385.786 568.415 386.24 567.734L386.755 567C387.582 565.797 388.568 565.033 389.781 564.224L390.5 563.755C391.112 563.323 391.533 562.972 392.22 562.629L393 562.255C393.706 561.902 394.279 561.554 395.048 561.363L395.5 561.255C396.56 560.719 396.331 560.755 397.5 560.755C399.142 559.66 404.327 560.255 406.5 560.255L407.245 560.75C408.135 560.676 408.439 560.701 409.265 561.113C410.245 561.603 409.674 561.425 410.546 561.645L411 561.755C412.919 562.724 410.577 561.844 412.536 562.549L413.235 562.786L414.031 564.764C411.042 563.384 408.133 562.124 404.803 561.926C401.898 561.754 399.421 561.896 396.63 562.75C391.582 564.295 387.027 567.567 384.526 572.347C382.363 576.482 382.328 582.368 383.91 586.709C385.995 592.429 390.323 596.369 395.834 598.715C400.474 600.69 406.302 601.128 411.022 599.16C415.347 597.357 418.958 593.79 420.738 589.442C423.258 583.283 422.674 577.882 420.387 571.843C421.136 572.41 422.096 572.862 422.387 573.754C422.638 574.526 422.518 574.248 423.14 574.9C424.856 579.121 423.986 585.965 422.543 590.11C421.043 594.421 417.537 598.653 413.331 600.538C407.343 603.222 400.528 603.694 394.408 601.178C388.79 598.869 383.823 594.087 381.692 588.347C379.31 581.93 379.694 575.659 382.566 569.476Z"/>
	<path fill="#F23B51" d="M420.387 571.843C422.674 577.882 423.258 583.283 420.738 589.442C418.958 593.79 415.347 597.357 411.022 599.16C406.302 601.128 400.474 600.69 395.834 598.715C390.323 596.369 385.995 592.429 383.91 586.709C382.328 582.368 382.363 576.482 384.526 572.347C387.027 567.567 391.582 564.295 396.63 562.75C399.421 561.896 401.898 561.754 404.803 561.926C408.133 562.124 411.042 563.384 414.031 564.764L416.278 566.602C418.258 568.114 418.771 570.164 420.387 571.843Z"/>
	<defs>
		<linearGradient id="gradient_4" gradientUnits="userSpaceOnUse" x1="589.52356" y1="796.96051" x2="544.41144" y2="685.4613">
			<stop offset="0" stop-color="#00AFBB"/>
			<stop offset="1" stop-color="#09C7C1"/>
		</linearGradient>
	</defs>
	<path fill="url(#gradient_4)" d="M584.78 732.358L635.685 732.128L635.895 731.679C637.941 727.482 641.098 723.612 643.704 719.72L665.77 688.25L697.567 642.392L720.588 642.206L628.006 783.027L388.043 783.046L418.545 734.878L420.142 732.65L584.78 732.358Z"/>
	<defs>
		<linearGradient id="gradient_5" gradientUnits="userSpaceOnUse" x1="545.30853" y1="684.01801" x2="539.69568" y2="744.93634">
			<stop offset="0" stop-color="#FFF2F1"/>
			<stop offset="1" stop-color="#FBFFFF"/>
		</linearGradient>
	</defs>
	<path fill="url(#gradient_5)" d="M584.78 732.358L637.963 732.325L654.737 707.717C659.392 700.792 664.163 692.877 670.269 687.134C667.633 693.487 663.8 699.337 660.179 705.165L645.29 728.17C644.131 729.837 640.732 735.432 639.084 735.944L418.545 734.878L420.142 732.65L584.78 732.358Z"/>
	<path fill="#02073B" d="M420.028 742.456L506.525 742.461L506.503 774.675L419.995 774.579L420.028 742.456Z"/>
	<path fill="#FAD755" d="M445.375 770.053L425.436 770.05L425.475 746.985L499.42 747.059C497.843 748.378 494.918 748.322 492.854 748.594C484.36 749.715 475.718 749.969 467.159 750.175C465.133 750.224 460.231 749.8 458.488 750.629C458.136 750.797 457.427 751.93 457.141 752.3C454.668 755.498 452.879 759.249 450.641 762.626C448.967 765.152 446.989 767.5 445.375 770.053Z"/>
	<path fill="#F29930" d="M499.42 747.059L501.297 747.25L501.469 769.99L445.375 770.053C446.989 767.5 448.967 765.152 450.641 762.626C452.879 759.249 454.668 755.498 457.141 752.3C457.427 751.93 458.136 750.797 458.488 750.629C460.231 749.8 465.133 750.224 467.159 750.175C475.718 749.969 484.36 749.715 492.854 748.594C494.918 748.322 497.843 748.378 499.42 747.059Z"/>
	<path fill="#F23B51" d="M270.256 225.331L270.246 225.301L322.999 147.257C326.546 146.727 330.513 147.059 334.125 147.051L354.292 147.021L428.424 147.119L422.56 156.668L323.349 306.127L221.754 306.048C220.24 305.976 218.928 306.263 217.756 305.25C220.108 299.405 224.266 293.896 227.75 288.654L244.172 264.16C252.818 251.312 260.891 237.636 270.256 225.331Z"/>
	<path fill="#F29930" d="M270.256 225.331C270.156 228.63 265.428 233.863 263.401 236.746L268.5 236.75L270.003 234.29L277.466 224.072C279.123 221.77 280.171 219.361 282.709 217.935L221.754 306.048C220.24 305.976 218.928 306.263 217.756 305.25C220.108 299.405 224.266 293.896 227.75 288.654L244.172 264.16C252.818 251.312 260.891 237.636 270.256 225.331Z"/>
	<defs>
		<linearGradient id="gradient_6" gradientUnits="userSpaceOnUse" x1="296.27866" y1="214.92" x2="318.82635" y2="232.18367">
			<stop offset="0" stop-color="#F1A82B"/>
			<stop offset="1" stop-color="#F87F43"/>
		</linearGradient>
	</defs>
	<path fill="url(#gradient_6)" d="M249.519 288.544L334.382 164.106L400 164.034C398.753 165.142 397.561 165.198 395.86 164.89L395.305 164.69C392.814 163.815 389.685 164.983 387.182 165.027L369.613 165.055L369.437 165.481C369.791 165.82 370.057 166.288 370.5 166.5C371.807 167.128 381.653 166.415 383.889 166.468C384.7 166.487 385.019 166.842 385.75 167C387.591 167.399 390.32 167.027 392.25 167L393 166.5L396 166.25L396.993 166.394C398.011 166.521 398.24 166.537 399.107 166.076L398.798 166.759C393.509 168.726 384.363 167.538 378.646 167.533C366.849 167.522 355.047 167.194 343.286 168.241C341.486 168.402 338.554 168.231 336.902 168.767C334.284 169.617 282.968 247.011 276.607 256.504L262.919 276.631C260.369 280.295 257.595 284.924 254.25 287.887C253.195 288.821 251.112 289.536 249.802 288.981L249.519 288.544Z"/>
	<path fill="#02073B" d="M249.519 288.544L248.682 289.5C248.871 289.658 249.02 289.885 249.25 289.973C250.417 290.418 254.29 289.986 255.705 289.992L280.545 290.131L316.933 291.145L317.434 292C315.606 293.451 248.183 293.363 241.175 293.426C241.045 289.968 321.696 172.31 331.157 160.489L401.5 160.53L401.876 161C401.329 162.181 400.855 163.028 400 164.034L334.382 164.106L249.519 288.544Z"/>
	<path fill="#F5B457" d="M270.256 225.331L270.246 225.301L322.999 147.257C326.546 146.727 330.513 147.059 334.125 147.051L354.292 147.021L428.424 147.119L422.56 156.668L346.86 156.041L334.725 156.015C333.561 156.011 331.163 155.686 330.106 155.998C329.37 156.214 327.241 158.593 326.595 159.199C319.072 166.259 312.864 175.079 306.948 183.477L291.122 205.858L284.757 215.086C284.22 215.847 283.377 217.441 282.709 217.935C280.171 219.361 279.123 221.77 277.466 224.072L270.003 234.29L268.5 236.75L263.401 236.746C265.428 233.863 270.156 228.63 270.256 225.331Z"/>
	<path fill="#02073B" d="M345.756 173.533L392.927 173.463L321.136 279.746L273.688 279.511L345.756 173.533Z"/>
	<path fill="#0AC4C2" d="M337.448 200.545L337.668 200.119C341.045 193.797 345.992 187.836 350.119 181.941L380.101 181.841L379.607 182.436L318.453 273.004L288.005 273.022C292.972 264.661 298.733 256.994 304.157 248.941C309.565 240.914 314.765 231.575 321.36 224.557L337.448 200.545Z"/>
	<path fill="#EBF5F6" d="M337.448 200.545L355.259 199.775C351.529 206.746 346.337 212.962 341.691 219.341L326.302 241.725C321.595 248.483 316.385 254.936 312.321 262.122L298.31 262.084C300.165 257.271 303.288 253.318 306.14 249.059L316.144 233.665C318.033 230.717 320.236 227.9 321.36 224.557L337.448 200.545Z"/>
	<path fill="#07B7BE" d="M324.288 630.603C324.202 633.751 320.35 638.226 318.417 640.729C315.953 643.92 313.497 647.753 311.5 651.25L311.755 651.25C313.394 649.248 314.815 647.132 316.255 645L317.255 643.75L319.895 640.031L324.255 634.308L325.047 634.383C311.749 654.819 295.506 673.126 284.089 694.833C278.135 706.154 273.919 718.208 271.257 730.703C268.205 745.023 267.746 759.25 270.805 773.599L273.079 783C273.616 784.961 274.399 786.745 274.331 788.814L275.403 790.949L275.614 794.25C278.262 795.609 591.233 795.578 620.052 794.816L593.703 833.803L188.984 834.484C191.709 828.832 196.25 823.032 199.645 817.665L239.48 758L284.945 689.448L324.288 630.603Z"/>
	<path fill="#01000D" d="M234.035 797.887C235.347 793.982 236.667 790.714 240.663 788.83C243.054 787.703 246.321 787.53 248.8 788.428C252.099 789.622 254.881 792.523 256.194 795.737C256.857 797.358 257.088 799.172 257.269 800.903L254.347 800.516C254.561 797.994 254.736 795.788 253.264 793.597C251.789 791.398 249.776 789.908 247.126 789.57C244.918 789.288 242.53 789.911 240.82 791.357C238.03 793.715 237.819 796.268 237.634 799.649L237.471 800.212L236.75 800.383C235.278 799.549 234.923 799.399 234.035 797.887Z"/>
	<path fill="#02073B" d="M234.035 797.887C234.923 799.399 235.278 799.549 236.75 800.383L237.471 800.212L237.634 799.649C238.64 802.22 239.662 804.095 242.243 805.338C244.291 806.324 247.369 806.264 249.433 805.354C251.466 804.458 252.398 803.282 253.628 801.512L254.347 800.516L257.269 800.903C256.54 803.433 255.724 805.59 253.94 807.597C251.818 809.984 248.721 811.492 245.518 811.504C242.49 811.516 239.326 810.152 237.208 807.977C234.296 804.987 234.038 801.795 234.035 797.887Z"/>
	<path fill="#FAD755" d="M237.634 799.649C237.819 796.268 238.03 793.715 240.82 791.357C242.53 789.911 244.918 789.288 247.126 789.57C249.776 789.908 251.789 791.398 253.264 793.597C254.736 795.788 254.561 797.994 254.347 800.516L253.628 801.512C252.398 803.282 251.466 804.458 249.433 805.354C247.369 806.264 244.291 806.324 242.243 805.338C239.662 804.095 238.64 802.22 237.634 799.649Z"/>
	<path fill="#F23B51" d="M431.438 312.995L460.321 312.978L419.457 373.748L407.274 392.616C406.203 394.236 404.813 397.052 403.318 398.217C401.268 403.004 395.893 407.41 394.604 412.25L395.5 413.524C397.739 412.753 418.933 381.287 422.085 376.865L447.25 377.119C451.235 377.092 456.13 376.451 460.02 377.148L420.976 433L394.801 471.916L389.805 479.3C389.104 480.333 388.342 481.871 387.346 482.565C382.278 491.681 375.392 500.38 369.566 509.092L324.018 576.5L274.236 651.248L261.563 669.885C259.509 672.923 257.446 676.857 254.87 679.441L169.396 808.084L120.588 807.944L212.777 672.939C213.279 670.974 216.492 667.325 217.769 665.45L232.617 643.373L319.377 515.087L346.109 475.125C349.849 469.582 353.352 463.379 357.649 458.287L395.921 400.61C393.787 400.284 391.485 400.444 389.324 400.44L388.423 401.531C386.904 400.702 385.031 400.999 383.307 400.995L371.466 401.124L387.996 376.475L431.438 312.995Z"/>
	<path fill="#EF7B94" d="M405.987 376.922C408.152 376.749 410.358 376.419 412.511 376.798C409.205 381.327 405.477 386.123 402.832 391.07C400.55 394.217 398.496 397.714 395.921 400.61C393.787 400.284 391.485 400.444 389.324 400.44L405.031 377.827L405.987 376.922Z"/>
	<path fill="#E75C84" d="M405.987 376.922L424.657 350.418C427.394 346.695 430.452 341.336 434.348 338.75L435.198 338.807C435.955 342.071 429.764 351.353 427.886 354.355L412.511 376.798C410.358 376.419 408.152 376.749 405.987 376.922Z"/>
	<path fill="#E2193F" d="M387.996 376.475C392.451 378.932 399.961 377.116 405.031 377.827L389.324 400.44L388.423 401.531C386.904 400.702 385.031 400.999 383.307 400.995L371.466 401.124L387.996 376.475Z"/>
	<path fill="#F23B51" d="M883.528 633.644L898.883 633.942L881.052 660.807L937.828 660.947L894.119 725.511L905.685 725.508L892.761 744.657L887.935 751.86L881.923 759.957L867.537 781.362L860.483 791.754C859.424 793.309 858.344 795.311 857.046 796.636L842.419 818.096C839.354 822.809 836.252 828.535 832.519 832.707L816.595 856.104C813.228 861.136 809.907 867.057 805.888 871.554L781.871 907.221L362.494 907.949L237.081 907.762L197.54 907.627C191.289 907.599 184.61 908.05 178.4 907.486C174.408 907.124 167.304 904.272 163.692 902.353C159.499 900.685 155.447 899.11 151.875 896.271L152.891 895.833L702.909 896.318L883.528 633.644Z"/>
	<path fill="#C10935" d="M832.519 832.707L762.68 832.999L772.467 818.003L842.419 818.096C839.354 822.809 836.252 828.535 832.519 832.707Z"/>
	<path fill="#C10935" d="M857.046 796.636C854.755 796.282 852.182 796.526 849.848 796.536L835.607 796.59L786.62 796.539L797.13 781.353L867.537 781.362L860.483 791.754C859.424 793.309 858.344 795.311 857.046 796.636Z"/>
	<path fill="#C10935" d="M881.923 759.957L811.81 760L822.118 744.479L892.761 744.657L887.935 751.86L881.923 759.957Z"/>
	<path fill="#C10935" d="M805.888 871.554L736.283 871.491C739.536 866.192 743.112 860.102 747.389 855.615L816.595 856.104C813.228 861.136 809.907 867.057 805.888 871.554Z"/>
	<path fill="#4A0B4A" d="M881.052 660.807L937.828 660.947L894.119 725.511L836.067 725.445L881.052 660.807Z"/>
	<defs>
		<linearGradient id="gradient_7" gradientUnits="userSpaceOnUse" x1="815.07391" y1="600.96289" x2="516.04382" y2="-15.78003">
			<stop offset="0" stop-color="#F80035"/>
			<stop offset="1" stop-color="#F6B3A4"/>
		</linearGradient>
	</defs>
	<path fill="url(#gradient_7)" d="M285.004 138.188L285.009 107.842C285.007 104.344 284.358 99.3207 285.235 96.0694L940.957 97.0169L918.049 129.983L967.234 129.91L882.545 253.041L919.666 253.029L903.536 276.925L950.642 276.953L717.792 633.149C722.963 633.17 728.623 632.76 733.732 633.41L693.144 633.496L648.62 695.482L631.357 721.494L600.968 721.591L591.519 721.511C589.038 722.142 586.251 721.88 583.702 721.88L570.51 721.835L530.657 722.005C524.038 722.023 517.025 722.497 510.455 721.92L503.679 721.961L602.531 564.144L643.826 500.169L743.511 353.566L848.198 204.195L866.007 180.141C869.156 175.877 872.201 171.343 875.745 167.401C877.695 164.164 880.32 161.119 882.573 158.066L898.047 137.983L285.004 138.188Z"/>
	<path fill="#C10935" d="M893.925 290.11C890.771 289.75 887.337 289.994 884.153 289.99L865.15 289.959L803.807 289.889L812.488 277.008L902.974 277.096C900.438 281.096 897.281 286.946 893.925 290.11Z"/>
	<path fill="#C10935" d="M818.878 400.479L728.32 400.16L738.829 387.005L827.798 387.044L818.878 400.479Z"/>
	<path fill="#C10935" d="M868.403 327.099C865.784 326.538 862.596 326.871 859.908 326.876L845.402 326.793L777.968 326.064L788.119 313.008L878.065 312.977C875.031 317.614 872.045 322.959 868.403 327.099Z"/>
	<path fill="#C10935" d="M843.737 363.759L752.13 363.996L762.396 350.21L852.701 350.059L843.737 363.759Z"/>
	<path fill="#C10935" d="M792.873 439.061L702.295 439.016L712.541 424.512L802.582 424.494L794.892 436.323C794.439 436.968 793.478 438.677 792.873 439.061Z"/>
	<path fill="#C10935" d="M766.445 477.648L676.83 478.013C677.017 476.679 678.256 475.223 679.028 474.107C681.6 470.391 684.421 466.853 687.305 463.376C696.811 462.195 707.483 463.126 717.103 463.138L776.418 463.075C773.236 467.874 770.182 473.303 766.445 477.648Z"/>
	<defs>
		<linearGradient id="gradient_8" gradientUnits="userSpaceOnUse" x1="697.18262" y1="624.02515" x2="607.69189" y2="585.00836">
			<stop offset="0" stop-color="#C80933"/>
			<stop offset="1" stop-color="#940038"/>
		</linearGradient>
	</defs>
	<path fill="url(#gradient_8)" d="M510.455 721.92C516.835 721.05 523.885 721.5 530.354 721.479L568.154 721.433C568.631 713.288 569.988 705.074 571.089 696.995C573.428 679.823 576.627 662.804 581.795 646.238C594.192 606.493 617.8 568.906 646.727 539.095C665.839 519.399 692.814 503.933 719.75 498.285C731.459 495.829 743.057 495.223 754.976 495.008C753.098 498.243 751.112 501.996 748.542 504.731C709.533 504.986 675.721 521.78 648.616 549.25C616.888 581.407 595.145 623.209 584.731 667.023C580.498 684.832 578.122 703.284 575.844 721.431C580.86 721.435 586.573 720.949 591.519 721.511C589.038 722.142 586.251 721.88 583.702 721.88L570.51 721.835L530.657 722.005C524.038 722.023 517.025 722.497 510.455 721.92Z"/>
	<path fill="#FCFCFD" d="M293.924 110.46L909.78 110.938L906.424 115.689L905.922 116.248C903.854 118.235 899.947 117.639 897.176 117.689L766.044 117.666L293.926 117.504L293.924 110.46Z"/>
	<path fill="#4A0B4A" d="M918.049 129.983L967.234 129.91L882.545 253.041L829.434 253.103L887.082 172.458L887.316 172.066C888.506 171.556 892.392 165.152 893.454 163.671L918.049 129.983Z"/>
	<path fill="#F23B51" d="M591.519 721.511C586.573 720.949 580.86 721.435 575.844 721.431C578.122 703.284 580.498 684.832 584.731 667.023C595.145 623.209 616.888 581.407 648.616 549.25C675.721 521.78 709.533 504.986 748.542 504.731L733.957 526.618C732.285 529.644 730.381 533.696 727.934 536.097C722.648 536.69 717.418 538.86 712.49 540.834C686.654 551.185 665.38 569.773 648.181 591.354C624.242 621.39 609.455 656.88 603.526 694.75C602.165 703.445 600.883 712.783 600.968 721.591L591.519 721.511Z"/>
	<path fill="#A40538" d="M591.519 721.511C594.816 675.989 608.237 633.191 634.361 595.482C652.077 569.908 677.979 545.116 707.081 533.25C713.999 530.429 720.984 528.734 728.25 527.144C730.2 526.718 731.964 526.657 733.957 526.618C732.285 529.644 730.381 533.696 727.934 536.097C722.648 536.69 717.418 538.86 712.49 540.834C686.654 551.185 665.38 569.773 648.181 591.354C624.242 621.39 609.455 656.88 603.526 694.75C602.165 703.445 600.883 712.783 600.968 721.591L591.519 721.511Z"/>
	<path fill="#F23B51" d="M600.968 721.591C600.883 712.783 602.165 703.445 603.526 694.75C609.455 656.88 624.242 621.39 648.181 591.354C665.38 569.773 686.654 551.185 712.49 540.834C717.418 538.86 722.648 536.69 727.934 536.097L686.848 599.732C677.786 613.766 668.562 627.543 661.421 642.703C655.642 654.969 651.292 668.261 649.392 681.717C648.749 686.267 648.198 690.883 648.62 695.482L631.357 721.494L600.968 721.591Z"/>
	<path fill="#4A0B4A" d="M903.536 276.925L950.642 276.953L717.792 633.149C722.963 633.17 728.623 632.76 733.732 633.41L693.144 633.496L648.62 695.482C648.198 690.883 648.749 686.267 649.392 681.717C651.292 668.261 655.642 654.969 661.421 642.703C668.562 627.543 677.786 613.766 686.848 599.732L727.934 536.097C730.381 533.696 732.285 529.644 733.957 526.618L748.542 504.731C751.112 501.996 753.098 498.243 754.976 495.008L766.445 477.648C770.182 473.303 773.236 467.874 776.418 463.075L792.873 439.061C793.478 438.677 794.439 436.968 794.892 436.323L802.582 424.494L818.878 400.479L827.798 387.044L843.737 363.759L852.701 350.059L868.403 327.099C872.045 322.959 875.031 317.614 878.065 312.977L893.925 290.11C897.281 286.946 900.438 281.096 902.974 277.096L903.536 276.925Z"/>
</svg>
